%TF.GenerationSoftware,KiCad,Pcbnew,(6.0.0)*%
%TF.CreationDate,2022-04-26T02:16:27+02:00*%
%TF.ProjectId,Plug_Molex_microfit_3.0_To_Screew_v0.1,506c7567-5f4d-46f6-9c65-785f6d696372,rev?*%
%TF.SameCoordinates,Original*%
%TF.FileFunction,Legend,Bot*%
%TF.FilePolarity,Positive*%
%FSLAX46Y46*%
G04 Gerber Fmt 4.6, Leading zero omitted, Abs format (unit mm)*
G04 Created by KiCad (PCBNEW (6.0.0)) date 2022-04-26 02:16:27*
%MOMM*%
%LPD*%
G01*
G04 APERTURE LIST*
%ADD10C,0.200000*%
%ADD11C,0.150000*%
%ADD12C,0.120000*%
G04 APERTURE END LIST*
D10*
X126559523Y-87702380D02*
X126559523Y-86702380D01*
X126130952Y-87416666D02*
X125654761Y-87416666D01*
X126226190Y-87702380D02*
X125892857Y-86702380D01*
X125559523Y-87702380D01*
X125369047Y-86702380D02*
X124797619Y-86702380D01*
X125083333Y-87702380D02*
X125083333Y-86702380D01*
X107833333Y-90952380D02*
X107833333Y-89952380D01*
X107357142Y-90952380D02*
X107357142Y-89952380D01*
X107119047Y-89952380D01*
X106976190Y-90000000D01*
X106880952Y-90095238D01*
X106833333Y-90190476D01*
X106785714Y-90380952D01*
X106785714Y-90523809D01*
X106833333Y-90714285D01*
X106880952Y-90809523D01*
X106976190Y-90904761D01*
X107119047Y-90952380D01*
X107357142Y-90952380D01*
X105880952Y-90952380D02*
X106357142Y-90952380D01*
X106357142Y-89952380D01*
X105547619Y-90428571D02*
X105214285Y-90428571D01*
X105071428Y-90952380D02*
X105547619Y-90952380D01*
X105547619Y-89952380D01*
X105071428Y-89952380D01*
X104119047Y-90952380D02*
X104690476Y-90952380D01*
X104404761Y-90952380D02*
X104404761Y-89952380D01*
X104500000Y-90095238D01*
X104595238Y-90190476D01*
X104690476Y-90238095D01*
X107500000Y-73452380D02*
X107500000Y-72452380D01*
X107023809Y-73452380D02*
X107023809Y-72452380D01*
X106452380Y-73452380D01*
X106452380Y-72452380D01*
X105452380Y-72500000D02*
X105547619Y-72452380D01*
X105690476Y-72452380D01*
X105833333Y-72500000D01*
X105928571Y-72595238D01*
X105976190Y-72690476D01*
X106023809Y-72880952D01*
X106023809Y-73023809D01*
X105976190Y-73214285D01*
X105928571Y-73309523D01*
X105833333Y-73404761D01*
X105690476Y-73452380D01*
X105595238Y-73452380D01*
X105452380Y-73404761D01*
X105404761Y-73357142D01*
X105404761Y-73023809D01*
X105595238Y-73023809D01*
X104452380Y-73452380D02*
X105023809Y-73452380D01*
X104738095Y-73452380D02*
X104738095Y-72452380D01*
X104833333Y-72595238D01*
X104928571Y-72690476D01*
X105023809Y-72738095D01*
X107380952Y-80452380D02*
X107380952Y-79452380D01*
X106904761Y-80452380D02*
X106904761Y-79452380D01*
X106333333Y-80452380D01*
X106333333Y-79452380D01*
X105571428Y-79452380D02*
X105571428Y-80166666D01*
X105619047Y-80309523D01*
X105714285Y-80404761D01*
X105857142Y-80452380D01*
X105952380Y-80452380D01*
X105142857Y-79547619D02*
X105095238Y-79500000D01*
X105000000Y-79452380D01*
X104761904Y-79452380D01*
X104666666Y-79500000D01*
X104619047Y-79547619D01*
X104571428Y-79642857D01*
X104571428Y-79738095D01*
X104619047Y-79880952D01*
X105190476Y-80452380D01*
X104571428Y-80452380D01*
D11*
X127100000Y-72866666D02*
X126866666Y-73566666D01*
X126633333Y-72866666D01*
X126000000Y-73566666D02*
X126233333Y-73233333D01*
X126400000Y-73566666D02*
X126400000Y-72866666D01*
X126133333Y-72866666D01*
X126066666Y-72900000D01*
X126033333Y-72933333D01*
X126000000Y-73000000D01*
X126000000Y-73100000D01*
X126033333Y-73166666D01*
X126066666Y-73200000D01*
X126133333Y-73233333D01*
X126400000Y-73233333D01*
X125733333Y-72933333D02*
X125700000Y-72900000D01*
X125633333Y-72866666D01*
X125466666Y-72866666D01*
X125400000Y-72900000D01*
X125366666Y-72933333D01*
X125333333Y-73000000D01*
X125333333Y-73066666D01*
X125366666Y-73166666D01*
X125766666Y-73566666D01*
X125333333Y-73566666D01*
X125033333Y-73300000D02*
X124500000Y-73300000D01*
D10*
X126226190Y-97202380D02*
X126035714Y-97202380D01*
X125940476Y-97250000D01*
X125845238Y-97345238D01*
X125797619Y-97535714D01*
X125797619Y-97869047D01*
X125845238Y-98059523D01*
X125940476Y-98154761D01*
X126035714Y-98202380D01*
X126226190Y-98202380D01*
X126321428Y-98154761D01*
X126416666Y-98059523D01*
X126464285Y-97869047D01*
X126464285Y-97535714D01*
X126416666Y-97345238D01*
X126321428Y-97250000D01*
X126226190Y-97202380D01*
X125416666Y-96964285D02*
X125321428Y-96916666D01*
X125178571Y-96916666D01*
X125083333Y-96964285D01*
X125035714Y-97059523D01*
X125035714Y-97154761D01*
X125083333Y-97250000D01*
X125416666Y-97583333D01*
X125035714Y-97583333D01*
X106761904Y-100500000D02*
X106857142Y-100452380D01*
X107000000Y-100452380D01*
X107142857Y-100500000D01*
X107238095Y-100595238D01*
X107285714Y-100690476D01*
X107333333Y-100880952D01*
X107333333Y-101023809D01*
X107285714Y-101214285D01*
X107238095Y-101309523D01*
X107142857Y-101404761D01*
X107000000Y-101452380D01*
X106904761Y-101452380D01*
X106761904Y-101404761D01*
X106714285Y-101357142D01*
X106714285Y-101023809D01*
X106904761Y-101023809D01*
X106285714Y-101452380D02*
X106285714Y-100452380D01*
X105714285Y-101452380D01*
X105714285Y-100452380D01*
X105238095Y-101452380D02*
X105238095Y-100452380D01*
X105000000Y-100452380D01*
X104857142Y-100500000D01*
X104761904Y-100595238D01*
X104714285Y-100690476D01*
X104666666Y-100880952D01*
X104666666Y-101023809D01*
X104714285Y-101214285D01*
X104761904Y-101309523D01*
X104857142Y-101404761D01*
X105000000Y-101452380D01*
X105238095Y-101452380D01*
D11*
X127100000Y-83616666D02*
X126866666Y-84316666D01*
X126633333Y-83616666D01*
X126000000Y-84316666D02*
X126233333Y-83983333D01*
X126400000Y-84316666D02*
X126400000Y-83616666D01*
X126133333Y-83616666D01*
X126066666Y-83650000D01*
X126033333Y-83683333D01*
X126000000Y-83750000D01*
X126000000Y-83850000D01*
X126033333Y-83916666D01*
X126066666Y-83950000D01*
X126133333Y-83983333D01*
X126400000Y-83983333D01*
X125333333Y-84316666D02*
X125733333Y-84316666D01*
X125533333Y-84316666D02*
X125533333Y-83616666D01*
X125600000Y-83716666D01*
X125666666Y-83783333D01*
X125733333Y-83816666D01*
X125033333Y-84050000D02*
X124500000Y-84050000D01*
X124766666Y-84316666D02*
X124766666Y-83783333D01*
D10*
X126964285Y-69202380D02*
X126392857Y-69202380D01*
X126678571Y-70202380D02*
X126678571Y-69202380D01*
X126107142Y-69916666D02*
X125630952Y-69916666D01*
X126202380Y-70202380D02*
X125869047Y-69202380D01*
X125535714Y-70202380D01*
X124630952Y-70107142D02*
X124678571Y-70154761D01*
X124821428Y-70202380D01*
X124916666Y-70202380D01*
X125059523Y-70154761D01*
X125154761Y-70059523D01*
X125202380Y-69964285D01*
X125250000Y-69773809D01*
X125250000Y-69630952D01*
X125202380Y-69440476D01*
X125154761Y-69345238D01*
X125059523Y-69250000D01*
X124916666Y-69202380D01*
X124821428Y-69202380D01*
X124678571Y-69250000D01*
X124630952Y-69297619D01*
X106761904Y-97000000D02*
X106857142Y-96952380D01*
X107000000Y-96952380D01*
X107142857Y-97000000D01*
X107238095Y-97095238D01*
X107285714Y-97190476D01*
X107333333Y-97380952D01*
X107333333Y-97523809D01*
X107285714Y-97714285D01*
X107238095Y-97809523D01*
X107142857Y-97904761D01*
X107000000Y-97952380D01*
X106904761Y-97952380D01*
X106761904Y-97904761D01*
X106714285Y-97857142D01*
X106714285Y-97523809D01*
X106904761Y-97523809D01*
X106285714Y-97952380D02*
X106285714Y-96952380D01*
X105714285Y-97952380D01*
X105714285Y-96952380D01*
X105238095Y-97952380D02*
X105238095Y-96952380D01*
X105000000Y-96952380D01*
X104857142Y-97000000D01*
X104761904Y-97095238D01*
X104714285Y-97190476D01*
X104666666Y-97380952D01*
X104666666Y-97523809D01*
X104714285Y-97714285D01*
X104761904Y-97809523D01*
X104857142Y-97904761D01*
X105000000Y-97952380D01*
X105238095Y-97952380D01*
X127011904Y-93952380D02*
X126440476Y-93952380D01*
X126726190Y-94952380D02*
X126726190Y-93952380D01*
X126107142Y-94952380D02*
X126107142Y-93952380D01*
X125726190Y-93952380D01*
X125630952Y-94000000D01*
X125583333Y-94047619D01*
X125535714Y-94142857D01*
X125535714Y-94285714D01*
X125583333Y-94380952D01*
X125630952Y-94428571D01*
X125726190Y-94476190D01*
X126107142Y-94476190D01*
X125154761Y-94904761D02*
X125011904Y-94952380D01*
X124773809Y-94952380D01*
X124678571Y-94904761D01*
X124630952Y-94857142D01*
X124583333Y-94761904D01*
X124583333Y-94666666D01*
X124630952Y-94571428D01*
X124678571Y-94523809D01*
X124773809Y-94476190D01*
X124964285Y-94428571D01*
X125059523Y-94380952D01*
X125107142Y-94333333D01*
X125154761Y-94238095D01*
X125154761Y-94142857D01*
X125107142Y-94047619D01*
X125059523Y-94000000D01*
X124964285Y-93952380D01*
X124726190Y-93952380D01*
X124583333Y-94000000D01*
X126511904Y-104500000D02*
X126607142Y-104452380D01*
X126750000Y-104452380D01*
X126892857Y-104500000D01*
X126988095Y-104595238D01*
X127035714Y-104690476D01*
X127083333Y-104880952D01*
X127083333Y-105023809D01*
X127035714Y-105214285D01*
X126988095Y-105309523D01*
X126892857Y-105404761D01*
X126750000Y-105452380D01*
X126654761Y-105452380D01*
X126511904Y-105404761D01*
X126464285Y-105357142D01*
X126464285Y-105023809D01*
X126654761Y-105023809D01*
X126035714Y-105452380D02*
X126035714Y-104452380D01*
X125464285Y-105452380D01*
X125464285Y-104452380D01*
X124988095Y-105452380D02*
X124988095Y-104452380D01*
X124750000Y-104452380D01*
X124607142Y-104500000D01*
X124511904Y-104595238D01*
X124464285Y-104690476D01*
X124416666Y-104880952D01*
X124416666Y-105023809D01*
X124464285Y-105214285D01*
X124511904Y-105309523D01*
X124607142Y-105404761D01*
X124750000Y-105452380D01*
X124988095Y-105452380D01*
X107142857Y-93452380D02*
X106809523Y-94452380D01*
X106476190Y-93452380D01*
X106285714Y-93452380D02*
X105952380Y-94452380D01*
X105619047Y-93452380D01*
X105428571Y-93452380D02*
X104857142Y-93452380D01*
X105142857Y-94452380D02*
X105142857Y-93452380D01*
X107380952Y-83952380D02*
X107380952Y-82952380D01*
X106904761Y-83952380D02*
X106904761Y-82952380D01*
X106333333Y-83952380D01*
X106333333Y-82952380D01*
X105571428Y-82952380D02*
X105571428Y-83666666D01*
X105619047Y-83809523D01*
X105714285Y-83904761D01*
X105857142Y-83952380D01*
X105952380Y-83952380D01*
X105142857Y-83047619D02*
X105095238Y-83000000D01*
X105000000Y-82952380D01*
X104761904Y-82952380D01*
X104666666Y-83000000D01*
X104619047Y-83047619D01*
X104571428Y-83142857D01*
X104571428Y-83238095D01*
X104619047Y-83380952D01*
X105190476Y-83952380D01*
X104571428Y-83952380D01*
X107380952Y-86928571D02*
X107714285Y-86928571D01*
X107714285Y-87452380D02*
X107714285Y-86452380D01*
X107238095Y-86452380D01*
X106428571Y-86785714D02*
X106428571Y-87452380D01*
X106857142Y-86785714D02*
X106857142Y-87309523D01*
X106809523Y-87404761D01*
X106714285Y-87452380D01*
X106571428Y-87452380D01*
X106476190Y-87404761D01*
X106428571Y-87357142D01*
X105571428Y-87404761D02*
X105666666Y-87452380D01*
X105857142Y-87452380D01*
X105952380Y-87404761D01*
X106000000Y-87309523D01*
X106000000Y-86928571D01*
X105952380Y-86833333D01*
X105857142Y-86785714D01*
X105666666Y-86785714D01*
X105571428Y-86833333D01*
X105523809Y-86928571D01*
X105523809Y-87023809D01*
X106000000Y-87119047D01*
X104952380Y-87452380D02*
X105047619Y-87404761D01*
X105095238Y-87309523D01*
X105095238Y-86452380D01*
X103809523Y-87452380D02*
X103809523Y-86452380D01*
X103428571Y-86452380D01*
X103333333Y-86500000D01*
X103285714Y-86547619D01*
X103238095Y-86642857D01*
X103238095Y-86785714D01*
X103285714Y-86880952D01*
X103333333Y-86928571D01*
X103428571Y-86976190D01*
X103809523Y-86976190D01*
X102666666Y-87452380D02*
X102761904Y-87404761D01*
X102809523Y-87357142D01*
X102857142Y-87261904D01*
X102857142Y-86976190D01*
X102809523Y-86880952D01*
X102761904Y-86833333D01*
X102666666Y-86785714D01*
X102523809Y-86785714D01*
X102428571Y-86833333D01*
X102380952Y-86880952D01*
X102333333Y-86976190D01*
X102333333Y-87261904D01*
X102380952Y-87357142D01*
X102428571Y-87404761D01*
X102523809Y-87452380D01*
X102666666Y-87452380D01*
X101904761Y-87452380D02*
X101904761Y-86785714D01*
X101904761Y-86880952D02*
X101857142Y-86833333D01*
X101761904Y-86785714D01*
X101619047Y-86785714D01*
X101523809Y-86833333D01*
X101476190Y-86928571D01*
X101476190Y-87452380D01*
X101476190Y-86928571D02*
X101428571Y-86833333D01*
X101333333Y-86785714D01*
X101190476Y-86785714D01*
X101095238Y-86833333D01*
X101047619Y-86928571D01*
X101047619Y-87452380D01*
X100571428Y-86785714D02*
X100571428Y-87785714D01*
X100571428Y-86833333D02*
X100476190Y-86785714D01*
X100285714Y-86785714D01*
X100190476Y-86833333D01*
X100142857Y-86880952D01*
X100095238Y-86976190D01*
X100095238Y-87261904D01*
X100142857Y-87357142D01*
X100190476Y-87404761D01*
X100285714Y-87452380D01*
X100476190Y-87452380D01*
X100571428Y-87404761D01*
X99285714Y-87404761D02*
X99380952Y-87452380D01*
X99571428Y-87452380D01*
X99666666Y-87404761D01*
X99714285Y-87309523D01*
X99714285Y-86928571D01*
X99666666Y-86833333D01*
X99571428Y-86785714D01*
X99380952Y-86785714D01*
X99285714Y-86833333D01*
X99238095Y-86928571D01*
X99238095Y-87023809D01*
X99714285Y-87119047D01*
X107833333Y-76952380D02*
X107833333Y-75952380D01*
X107357142Y-76952380D02*
X107357142Y-75952380D01*
X107119047Y-75952380D01*
X106976190Y-76000000D01*
X106880952Y-76095238D01*
X106833333Y-76190476D01*
X106785714Y-76380952D01*
X106785714Y-76523809D01*
X106833333Y-76714285D01*
X106880952Y-76809523D01*
X106976190Y-76904761D01*
X107119047Y-76952380D01*
X107357142Y-76952380D01*
X105880952Y-76952380D02*
X106357142Y-76952380D01*
X106357142Y-75952380D01*
X105547619Y-76428571D02*
X105214285Y-76428571D01*
X105071428Y-76952380D02*
X105547619Y-76952380D01*
X105547619Y-75952380D01*
X105071428Y-75952380D01*
X104690476Y-76047619D02*
X104642857Y-76000000D01*
X104547619Y-75952380D01*
X104309523Y-75952380D01*
X104214285Y-76000000D01*
X104166666Y-76047619D01*
X104119047Y-76142857D01*
X104119047Y-76238095D01*
X104166666Y-76380952D01*
X104738095Y-76952380D01*
X104119047Y-76952380D01*
X106619047Y-108452380D02*
X107190476Y-108452380D01*
X106904761Y-108452380D02*
X106904761Y-107452380D01*
X107000000Y-107595238D01*
X107095238Y-107690476D01*
X107190476Y-107738095D01*
X106238095Y-107547619D02*
X106190476Y-107500000D01*
X106095238Y-107452380D01*
X105857142Y-107452380D01*
X105761904Y-107500000D01*
X105714285Y-107547619D01*
X105666666Y-107642857D01*
X105666666Y-107738095D01*
X105714285Y-107880952D01*
X106285714Y-108452380D01*
X105666666Y-108452380D01*
X105380952Y-107452380D02*
X105047619Y-108452380D01*
X104714285Y-107452380D01*
X107500000Y-70452380D02*
X107500000Y-69452380D01*
X107023809Y-70452380D02*
X107023809Y-69452380D01*
X106452380Y-70452380D01*
X106452380Y-69452380D01*
X105452380Y-69500000D02*
X105547619Y-69452380D01*
X105690476Y-69452380D01*
X105833333Y-69500000D01*
X105928571Y-69595238D01*
X105976190Y-69690476D01*
X106023809Y-69880952D01*
X106023809Y-70023809D01*
X105976190Y-70214285D01*
X105928571Y-70309523D01*
X105833333Y-70404761D01*
X105690476Y-70452380D01*
X105595238Y-70452380D01*
X105452380Y-70404761D01*
X105404761Y-70357142D01*
X105404761Y-70023809D01*
X105595238Y-70023809D01*
X105023809Y-69547619D02*
X104976190Y-69500000D01*
X104880952Y-69452380D01*
X104642857Y-69452380D01*
X104547619Y-69500000D01*
X104500000Y-69547619D01*
X104452380Y-69642857D01*
X104452380Y-69738095D01*
X104500000Y-69880952D01*
X105071428Y-70452380D01*
X104452380Y-70452380D01*
X126190476Y-100702380D02*
X126666666Y-100702380D01*
X126714285Y-101178571D01*
X126666666Y-101130952D01*
X126571428Y-101083333D01*
X126333333Y-101083333D01*
X126238095Y-101130952D01*
X126190476Y-101178571D01*
X126142857Y-101273809D01*
X126142857Y-101511904D01*
X126190476Y-101607142D01*
X126238095Y-101654761D01*
X126333333Y-101702380D01*
X126571428Y-101702380D01*
X126666666Y-101654761D01*
X126714285Y-101607142D01*
X125857142Y-100702380D02*
X125523809Y-101702380D01*
X125190476Y-100702380D01*
X106761904Y-104000000D02*
X106857142Y-103952380D01*
X107000000Y-103952380D01*
X107142857Y-104000000D01*
X107238095Y-104095238D01*
X107285714Y-104190476D01*
X107333333Y-104380952D01*
X107333333Y-104523809D01*
X107285714Y-104714285D01*
X107238095Y-104809523D01*
X107142857Y-104904761D01*
X107000000Y-104952380D01*
X106904761Y-104952380D01*
X106761904Y-104904761D01*
X106714285Y-104857142D01*
X106714285Y-104523809D01*
X106904761Y-104523809D01*
X106285714Y-104952380D02*
X106285714Y-103952380D01*
X105714285Y-104952380D01*
X105714285Y-103952380D01*
X105238095Y-104952380D02*
X105238095Y-103952380D01*
X105000000Y-103952380D01*
X104857142Y-104000000D01*
X104761904Y-104095238D01*
X104714285Y-104190476D01*
X104666666Y-104380952D01*
X104666666Y-104523809D01*
X104714285Y-104714285D01*
X104761904Y-104809523D01*
X104857142Y-104904761D01*
X105000000Y-104952380D01*
X105238095Y-104952380D01*
X126226190Y-91357142D02*
X126273809Y-91404761D01*
X126416666Y-91452380D01*
X126511904Y-91452380D01*
X126654761Y-91404761D01*
X126750000Y-91309523D01*
X126797619Y-91214285D01*
X126845238Y-91023809D01*
X126845238Y-90880952D01*
X126797619Y-90690476D01*
X126750000Y-90595238D01*
X126654761Y-90500000D01*
X126511904Y-90452380D01*
X126416666Y-90452380D01*
X126273809Y-90500000D01*
X126226190Y-90547619D01*
X125321428Y-91452380D02*
X125797619Y-91452380D01*
X125797619Y-90452380D01*
X125130952Y-90452380D02*
X124559523Y-90452380D01*
X124845238Y-91452380D02*
X124845238Y-90452380D01*
D11*
X127100000Y-76616666D02*
X126866666Y-77316666D01*
X126633333Y-76616666D01*
X126000000Y-77316666D02*
X126233333Y-76983333D01*
X126400000Y-77316666D02*
X126400000Y-76616666D01*
X126133333Y-76616666D01*
X126066666Y-76650000D01*
X126033333Y-76683333D01*
X126000000Y-76750000D01*
X126000000Y-76850000D01*
X126033333Y-76916666D01*
X126066666Y-76950000D01*
X126133333Y-76983333D01*
X126400000Y-76983333D01*
X125733333Y-76683333D02*
X125700000Y-76650000D01*
X125633333Y-76616666D01*
X125466666Y-76616666D01*
X125400000Y-76650000D01*
X125366666Y-76683333D01*
X125333333Y-76750000D01*
X125333333Y-76816666D01*
X125366666Y-76916666D01*
X125766666Y-77316666D01*
X125333333Y-77316666D01*
X125033333Y-77050000D02*
X124500000Y-77050000D01*
X124766666Y-77316666D02*
X124766666Y-76783333D01*
D10*
X126011904Y-108428571D02*
X126345238Y-108428571D01*
X126345238Y-108952380D02*
X126345238Y-107952380D01*
X125869047Y-107952380D01*
X125011904Y-108952380D02*
X125488095Y-108952380D01*
X125488095Y-107952380D01*
D11*
X127100000Y-80116666D02*
X126866666Y-80816666D01*
X126633333Y-80116666D01*
X126000000Y-80816666D02*
X126233333Y-80483333D01*
X126400000Y-80816666D02*
X126400000Y-80116666D01*
X126133333Y-80116666D01*
X126066666Y-80150000D01*
X126033333Y-80183333D01*
X126000000Y-80250000D01*
X126000000Y-80350000D01*
X126033333Y-80416666D01*
X126066666Y-80450000D01*
X126133333Y-80483333D01*
X126400000Y-80483333D01*
X125333333Y-80816666D02*
X125733333Y-80816666D01*
X125533333Y-80816666D02*
X125533333Y-80116666D01*
X125600000Y-80216666D01*
X125666666Y-80283333D01*
X125733333Y-80316666D01*
X125033333Y-80550000D02*
X124500000Y-80550000D01*
D12*
%TO.C,J3*%
X122160000Y-67350000D02*
X123900000Y-67350000D01*
X123660000Y-67590000D02*
X123660000Y-110410000D01*
X116540000Y-67590000D02*
X116540000Y-110410000D01*
X116540000Y-110410000D02*
X123660000Y-110410000D01*
X123900000Y-67350000D02*
X123900000Y-68850000D01*
X122100000Y-67590000D02*
X122100000Y-110410000D01*
X116540000Y-67590000D02*
X123660000Y-67590000D01*
X121555493Y-69777011D02*
G75*
G03*
X121432000Y-69142000I-1555481J27013D01*
G01*
X118567891Y-69142258D02*
G75*
G03*
X118568000Y-70358000I1432112J-607743D01*
G01*
X120607742Y-68317891D02*
G75*
G03*
X119392000Y-68318000I-607743J-1432112D01*
G01*
X119392258Y-71182109D02*
G75*
G03*
X120608000Y-71182000I607743J1432112D01*
G01*
X121431385Y-70357587D02*
G75*
G03*
X121555000Y-69750000I-1431382J607586D01*
G01*
X121555000Y-97750000D02*
G75*
G03*
X121555000Y-97750000I-1555000J0D01*
G01*
X121555000Y-87250000D02*
G75*
G03*
X121555000Y-87250000I-1555000J0D01*
G01*
X121555000Y-101250000D02*
G75*
G03*
X121555000Y-101250000I-1555000J0D01*
G01*
X121555000Y-108250000D02*
G75*
G03*
X121555000Y-108250000I-1555000J0D01*
G01*
X121555000Y-73250000D02*
G75*
G03*
X121555000Y-73250000I-1555000J0D01*
G01*
X121555000Y-94250000D02*
G75*
G03*
X121555000Y-94250000I-1555000J0D01*
G01*
X121555000Y-80250000D02*
G75*
G03*
X121555000Y-80250000I-1555000J0D01*
G01*
X121555000Y-76750000D02*
G75*
G03*
X121555000Y-76750000I-1555000J0D01*
G01*
X121555000Y-104750000D02*
G75*
G03*
X121555000Y-104750000I-1555000J0D01*
G01*
X121555000Y-83750000D02*
G75*
G03*
X121555000Y-83750000I-1555000J0D01*
G01*
X121555000Y-90750000D02*
G75*
G03*
X121555000Y-90750000I-1555000J0D01*
G01*
%TO.C,G\u002A\u002A\u002A*%
G36*
X93730239Y-85639921D02*
G01*
X94186527Y-85639921D01*
X94490718Y-85639921D01*
X94617465Y-85639921D01*
X94617465Y-84942019D01*
X94617220Y-84743903D01*
X94616227Y-84578326D01*
X94614171Y-84452651D01*
X94610735Y-84361328D01*
X94605604Y-84298806D01*
X94598462Y-84259535D01*
X94588993Y-84237965D01*
X94576882Y-84228545D01*
X94553160Y-84225570D01*
X94513897Y-84248352D01*
X94508068Y-84280863D01*
X94502646Y-84357457D01*
X94498014Y-84470876D01*
X94494398Y-84614095D01*
X94492020Y-84780087D01*
X94491106Y-84961827D01*
X94490718Y-85639921D01*
X94186527Y-85639921D01*
X94186527Y-84420209D01*
X93958383Y-84316291D01*
X93730239Y-84212372D01*
X93730239Y-83866209D01*
X93850648Y-83913938D01*
X93883057Y-83926805D01*
X93984850Y-83967386D01*
X94075434Y-84003700D01*
X94179810Y-84045732D01*
X94257266Y-83968275D01*
X94280683Y-83945546D01*
X94320243Y-83915307D01*
X94365510Y-83898961D01*
X94431475Y-83892319D01*
X94533130Y-83891192D01*
X94586356Y-83891928D01*
X94708930Y-83902261D01*
X94795641Y-83928108D01*
X94856772Y-83973699D01*
X94902605Y-84043267D01*
X94905553Y-84049337D01*
X94916726Y-84078004D01*
X94925711Y-84114942D01*
X94932742Y-84165452D01*
X94938052Y-84234840D01*
X94941875Y-84328407D01*
X94944444Y-84451459D01*
X94945993Y-84609297D01*
X94946756Y-84807226D01*
X94946966Y-85050549D01*
X94947006Y-85969461D01*
X93730239Y-85969461D01*
X93730239Y-85639921D01*
G37*
G36*
X95656786Y-107389621D02*
G01*
X95327245Y-107389621D01*
X95327245Y-105260280D01*
X95656786Y-105260280D01*
X95656786Y-107389621D01*
G37*
G36*
X94360111Y-101171877D02*
G01*
X94206626Y-101260188D01*
X94066091Y-101340284D01*
X93944507Y-101408669D01*
X93847872Y-101461846D01*
X93782185Y-101496316D01*
X93753445Y-101508583D01*
X93753137Y-101508568D01*
X93741591Y-101484332D01*
X93733371Y-101422769D01*
X93730239Y-101336912D01*
X93730239Y-101165241D01*
X93981521Y-101019313D01*
X94232802Y-100873385D01*
X93981521Y-100437556D01*
X93929183Y-100346666D01*
X94317133Y-100346666D01*
X94319317Y-100371557D01*
X94348460Y-100432662D01*
X94405630Y-100532635D01*
X94407952Y-100536539D01*
X94453612Y-100612600D01*
X94488119Y-100668857D01*
X94504164Y-100693383D01*
X94507784Y-100695707D01*
X94545133Y-100690944D01*
X94602967Y-100665069D01*
X94664303Y-100625299D01*
X94723815Y-100579380D01*
X94537556Y-100469950D01*
X94505559Y-100451161D01*
X94423150Y-100402867D01*
X94361583Y-100366929D01*
X94332285Y-100350022D01*
X94317133Y-100346666D01*
X93929183Y-100346666D01*
X93919881Y-100330512D01*
X93849852Y-100207305D01*
X93799612Y-100114573D01*
X93765875Y-100044368D01*
X93745355Y-99988746D01*
X93734767Y-99939759D01*
X93730823Y-99889461D01*
X93730239Y-99829905D01*
X93730242Y-99827505D01*
X93733520Y-99742067D01*
X93741834Y-99681251D01*
X93753425Y-99658084D01*
X93763076Y-99661346D01*
X93811378Y-99685380D01*
X93893565Y-99729849D01*
X94003640Y-99791253D01*
X94135606Y-99866093D01*
X94283465Y-99950871D01*
X94441222Y-100042088D01*
X94602879Y-100136244D01*
X94762438Y-100229841D01*
X94913903Y-100319379D01*
X95051277Y-100401360D01*
X95168563Y-100472285D01*
X95259763Y-100528654D01*
X95318881Y-100566969D01*
X95339920Y-100583730D01*
X95334367Y-100589329D01*
X95293234Y-100617457D01*
X95217061Y-100665348D01*
X95111846Y-100729506D01*
X94983588Y-100806431D01*
X94838287Y-100892628D01*
X94681941Y-100984600D01*
X94520550Y-101078848D01*
X94507784Y-101086250D01*
X94360111Y-101171877D01*
G37*
G36*
X98694004Y-97317122D02*
G01*
X98714027Y-97330478D01*
X98775972Y-97372240D01*
X98870716Y-97436360D01*
X98992732Y-97519092D01*
X99136495Y-97616688D01*
X99296479Y-97725399D01*
X99467157Y-97841479D01*
X100168962Y-98318985D01*
X100168962Y-98866497D01*
X99427495Y-99371634D01*
X99274409Y-99475869D01*
X99112042Y-99586289D01*
X98966639Y-99685033D01*
X98843184Y-99768720D01*
X98746660Y-99833975D01*
X98682051Y-99877417D01*
X98654341Y-99895670D01*
X98643609Y-99895631D01*
X98633568Y-99871234D01*
X98627143Y-99813988D01*
X98623745Y-99717955D01*
X98622787Y-99577195D01*
X98622919Y-99239821D01*
X99104055Y-98922955D01*
X99178852Y-98873542D01*
X99309228Y-98786624D01*
X99421037Y-98711063D01*
X99508307Y-98650949D01*
X99565067Y-98610369D01*
X99585344Y-98593414D01*
X99579527Y-98587609D01*
X99539186Y-98557656D01*
X99465497Y-98506297D01*
X99364434Y-98437613D01*
X99241969Y-98355686D01*
X99104076Y-98264595D01*
X98622654Y-97948451D01*
X98622654Y-97270271D01*
X98694004Y-97317122D01*
G37*
G36*
X93730239Y-87974030D02*
G01*
X93952046Y-87966706D01*
X94173852Y-87959382D01*
X94182042Y-87437907D01*
X94495481Y-87437907D01*
X94495649Y-87602204D01*
X94497008Y-87742781D01*
X94499457Y-87852894D01*
X94502894Y-87925801D01*
X94507219Y-87954758D01*
X94522800Y-87963641D01*
X94571392Y-87972056D01*
X94581086Y-87971154D01*
X94592740Y-87963933D01*
X94601520Y-87944751D01*
X94607742Y-87908074D01*
X94611722Y-87848371D01*
X94613775Y-87760106D01*
X94614216Y-87637747D01*
X94613362Y-87475761D01*
X94611528Y-87268613D01*
X94609689Y-87085426D01*
X94607550Y-86918170D01*
X94604942Y-86791220D01*
X94601413Y-86699026D01*
X94596509Y-86636039D01*
X94589779Y-86596710D01*
X94580768Y-86575488D01*
X94569023Y-86566825D01*
X94554092Y-86565170D01*
X94542354Y-86566004D01*
X94529766Y-86572554D01*
X94520083Y-86590471D01*
X94512835Y-86625374D01*
X94507551Y-86682879D01*
X94503762Y-86768608D01*
X94500997Y-86888177D01*
X94498785Y-87047207D01*
X94496657Y-87251315D01*
X94496605Y-87256633D01*
X94495481Y-87437907D01*
X94182042Y-87437907D01*
X94186527Y-87152315D01*
X94199201Y-86345249D01*
X94268085Y-86286029D01*
X94299784Y-86262988D01*
X94407576Y-86219651D01*
X94534669Y-86203745D01*
X94665150Y-86214549D01*
X94783101Y-86251342D01*
X94872609Y-86313404D01*
X94934331Y-86379073D01*
X94949287Y-88301597D01*
X93730239Y-88301597D01*
X93730239Y-87974030D01*
G37*
G36*
X94946966Y-90310529D02*
G01*
X94946954Y-90371666D01*
X94946636Y-90603919D01*
X94945711Y-90792016D01*
X94943944Y-90941260D01*
X94941103Y-91056955D01*
X94936954Y-91144404D01*
X94931263Y-91208910D01*
X94923797Y-91255778D01*
X94914322Y-91290311D01*
X94902605Y-91317811D01*
X94862954Y-91379993D01*
X94796932Y-91432935D01*
X94703564Y-91461278D01*
X94572289Y-91469886D01*
X94502015Y-91467508D01*
X94370701Y-91446278D01*
X94271994Y-91405303D01*
X94213916Y-91347326D01*
X94209913Y-91335108D01*
X94201596Y-91270677D01*
X94195011Y-91157576D01*
X94190207Y-90997213D01*
X94187234Y-90790998D01*
X94186139Y-90540340D01*
X94186035Y-90479285D01*
X94184776Y-90291434D01*
X94182255Y-90121236D01*
X94178661Y-89975299D01*
X94174185Y-89860234D01*
X94169017Y-89782648D01*
X94163348Y-89749151D01*
X94146320Y-89733361D01*
X94100363Y-89729343D01*
X94090258Y-89736812D01*
X94081233Y-89755481D01*
X94074159Y-89789943D01*
X94068805Y-89845183D01*
X94064942Y-89926188D01*
X94062338Y-90037944D01*
X94060763Y-90185439D01*
X94059988Y-90373658D01*
X94059780Y-90607588D01*
X94059780Y-91470260D01*
X93730239Y-91470260D01*
X93730239Y-90548793D01*
X93730240Y-90538812D01*
X93731088Y-90265589D01*
X93733486Y-90032999D01*
X93737380Y-89843052D01*
X93742714Y-89697758D01*
X93749434Y-89599127D01*
X93757485Y-89549168D01*
X93773401Y-89510829D01*
X93816770Y-89452853D01*
X93883087Y-89416246D01*
X93981289Y-89397128D01*
X94120312Y-89391617D01*
X94207208Y-89392181D01*
X94283000Y-89396514D01*
X94333167Y-89408371D01*
X94371733Y-89431491D01*
X94412720Y-89469615D01*
X94490718Y-89547613D01*
X94491106Y-90312479D01*
X94491232Y-90381342D01*
X94492527Y-90569805D01*
X94495064Y-90740395D01*
X94498657Y-90886547D01*
X94503118Y-91001696D01*
X94508261Y-91079277D01*
X94513897Y-91112726D01*
X94530925Y-91128516D01*
X94576882Y-91132534D01*
X94586987Y-91125065D01*
X94596012Y-91106396D01*
X94603086Y-91071934D01*
X94608440Y-91016695D01*
X94612303Y-90935690D01*
X94614907Y-90823933D01*
X94616482Y-90676438D01*
X94617257Y-90488219D01*
X94617465Y-90254289D01*
X94617465Y-89391617D01*
X94947006Y-89391617D01*
X94946966Y-90310529D01*
G37*
G36*
X94947006Y-93169477D02*
G01*
X94946846Y-93391768D01*
X94945848Y-93612569D01*
X94943312Y-93791567D01*
X94938540Y-93933586D01*
X94930835Y-94043452D01*
X94919499Y-94125989D01*
X94903836Y-94186023D01*
X94883148Y-94228378D01*
X94856738Y-94257879D01*
X94823908Y-94279351D01*
X94783962Y-94297619D01*
X94699718Y-94320863D01*
X94575802Y-94333166D01*
X94448387Y-94328587D01*
X94341635Y-94306633D01*
X94314683Y-94296560D01*
X94278135Y-94277679D01*
X94249273Y-94250853D01*
X94227189Y-94210738D01*
X94210973Y-94151992D01*
X94199718Y-94069268D01*
X94192515Y-93957224D01*
X94188456Y-93810516D01*
X94186634Y-93623798D01*
X94186139Y-93391728D01*
X94186062Y-93341906D01*
X94184860Y-93154959D01*
X94182364Y-92985340D01*
X94178769Y-92839723D01*
X94174271Y-92724782D01*
X94169065Y-92647190D01*
X94163348Y-92613622D01*
X94146320Y-92597832D01*
X94100363Y-92593814D01*
X94090258Y-92601283D01*
X94081233Y-92619952D01*
X94074159Y-92654414D01*
X94068805Y-92709654D01*
X94064942Y-92790659D01*
X94062338Y-92902415D01*
X94060763Y-93049910D01*
X94059988Y-93238129D01*
X94059780Y-93472059D01*
X94059780Y-94334731D01*
X93730239Y-94334731D01*
X93730239Y-93395140D01*
X93730274Y-93327542D01*
X93731288Y-93054212D01*
X93733735Y-92830045D01*
X93737650Y-92653799D01*
X93743068Y-92524234D01*
X93750025Y-92440108D01*
X93758555Y-92400180D01*
X93781594Y-92360203D01*
X93828544Y-92308708D01*
X93893155Y-92277167D01*
X93986278Y-92261256D01*
X94118766Y-92256652D01*
X94215915Y-92257095D01*
X94291111Y-92261336D01*
X94340702Y-92272728D01*
X94378076Y-92294576D01*
X94416620Y-92330186D01*
X94490718Y-92404284D01*
X94490718Y-93176284D01*
X94490926Y-93357366D01*
X94491909Y-93544756D01*
X94493917Y-93690688D01*
X94497187Y-93800316D01*
X94501956Y-93878798D01*
X94508462Y-93931288D01*
X94516942Y-93962943D01*
X94527632Y-93978919D01*
X94551907Y-93992902D01*
X94591005Y-93993202D01*
X94597813Y-93972239D01*
X94604863Y-93900715D01*
X94610362Y-93779069D01*
X94614302Y-93607608D01*
X94616673Y-93386639D01*
X94617465Y-93116468D01*
X94617465Y-92256088D01*
X94947006Y-92256088D01*
X94947006Y-93169477D01*
G37*
G36*
X98681337Y-101251336D02*
G01*
X98742098Y-101290378D01*
X98835340Y-101351806D01*
X98956030Y-101432266D01*
X99099137Y-101528399D01*
X99259630Y-101636849D01*
X99432475Y-101754260D01*
X100169812Y-102256388D01*
X100163050Y-102534282D01*
X100156287Y-102812176D01*
X99400685Y-103326448D01*
X99232147Y-103440964D01*
X99071377Y-103549816D01*
X98928685Y-103646032D01*
X98808831Y-103726422D01*
X98716572Y-103787793D01*
X98656665Y-103826956D01*
X98633869Y-103840719D01*
X98632879Y-103839403D01*
X98628969Y-103805291D01*
X98625927Y-103731944D01*
X98624038Y-103628687D01*
X98623588Y-103504841D01*
X98624522Y-103168962D01*
X99060863Y-102885173D01*
X99087868Y-102867602D01*
X99221072Y-102780688D01*
X99340828Y-102702167D01*
X99439863Y-102636834D01*
X99510901Y-102589486D01*
X99546669Y-102564916D01*
X99557724Y-102554976D01*
X99562441Y-102540024D01*
X99551754Y-102519601D01*
X99521152Y-102490003D01*
X99466125Y-102447526D01*
X99382163Y-102388466D01*
X99264756Y-102309118D01*
X99109394Y-102205778D01*
X98622654Y-101883109D01*
X98622654Y-101553713D01*
X98622668Y-101531549D01*
X98623737Y-101401722D01*
X98627084Y-101314529D01*
X98633519Y-101262916D01*
X98643853Y-101239832D01*
X98658896Y-101238224D01*
X98681337Y-101251336D01*
G37*
G36*
X90637624Y-102066268D02*
G01*
X90358782Y-102066268D01*
X90358782Y-99049701D01*
X90637624Y-99049701D01*
X90637624Y-102066268D01*
G37*
G36*
X94059780Y-96340852D02*
G01*
X94116816Y-96332752D01*
X94173852Y-96324651D01*
X94187184Y-94562875D01*
X94490061Y-94562875D01*
X94503393Y-96324651D01*
X94560429Y-96332752D01*
X94617465Y-96340852D01*
X94617465Y-94562875D01*
X94947006Y-94562875D01*
X94947006Y-96484859D01*
X95181538Y-96401034D01*
X95485735Y-96311994D01*
X95850808Y-96252102D01*
X96222283Y-96238606D01*
X96593187Y-96271268D01*
X96956544Y-96349847D01*
X97305378Y-96474103D01*
X97391423Y-96515212D01*
X97500273Y-96573746D01*
X97618124Y-96641975D01*
X97736043Y-96714262D01*
X97845099Y-96784971D01*
X97936361Y-96848464D01*
X98000896Y-96899105D01*
X98029772Y-96931258D01*
X98031973Y-96941770D01*
X98035502Y-96996997D01*
X98036369Y-97083696D01*
X98034333Y-97188335D01*
X98026946Y-97414274D01*
X97873287Y-97272901D01*
X97726313Y-97147439D01*
X97429633Y-96943177D01*
X97108859Y-96779960D01*
X96772155Y-96662315D01*
X96712509Y-96646752D01*
X96626122Y-96628171D01*
X96537672Y-96615682D01*
X96435008Y-96608159D01*
X96305976Y-96604472D01*
X96138423Y-96603493D01*
X96020378Y-96603899D01*
X95881822Y-96606475D01*
X95774361Y-96612379D01*
X95686344Y-96622696D01*
X95606120Y-96638511D01*
X95522038Y-96660908D01*
X95361141Y-96711922D01*
X95192111Y-96774513D01*
X95042942Y-96838935D01*
X94928542Y-96899204D01*
X94906186Y-96912974D01*
X94867494Y-96942749D01*
X94864260Y-96970979D01*
X94890518Y-97015987D01*
X94897385Y-97027769D01*
X94907412Y-97053196D01*
X94915613Y-97089745D01*
X94922232Y-97142366D01*
X94927510Y-97216003D01*
X94931690Y-97315605D01*
X94935014Y-97446118D01*
X94937724Y-97612489D01*
X94940063Y-97819664D01*
X94942273Y-98072591D01*
X94943844Y-98288622D01*
X94944791Y-98522780D01*
X94944142Y-98714732D01*
X94941461Y-98869234D01*
X94936308Y-98991046D01*
X94928244Y-99084923D01*
X94916831Y-99155626D01*
X94901629Y-99207910D01*
X94882200Y-99246535D01*
X94858105Y-99276257D01*
X94828905Y-99301834D01*
X94822575Y-99306705D01*
X94796630Y-99323174D01*
X94764174Y-99335303D01*
X94717843Y-99343751D01*
X94650273Y-99349175D01*
X94554099Y-99352235D01*
X94421956Y-99353588D01*
X94246481Y-99353893D01*
X93730239Y-99353893D01*
X93730239Y-99024352D01*
X94143433Y-99024352D01*
X94193504Y-99024251D01*
X94359041Y-99021869D01*
X94477785Y-99016161D01*
X94552773Y-99006918D01*
X94587046Y-98993933D01*
X94596614Y-98974908D01*
X94608282Y-98906688D01*
X94615190Y-98791015D01*
X94617465Y-98626368D01*
X94617465Y-98289222D01*
X93730239Y-98289222D01*
X93730239Y-97959681D01*
X94617465Y-97959681D01*
X94617465Y-97616922D01*
X94617452Y-97562609D01*
X94616829Y-97441011D01*
X94614166Y-97358396D01*
X94607976Y-97306123D01*
X94596768Y-97275551D01*
X94579053Y-97258039D01*
X94553340Y-97244946D01*
X94529952Y-97235494D01*
X94492867Y-97232696D01*
X94452646Y-97255089D01*
X94393839Y-97308863D01*
X94356688Y-97343957D01*
X94308001Y-97385712D01*
X94282124Y-97401996D01*
X94280877Y-97401766D01*
X94267651Y-97375707D01*
X94257843Y-97319611D01*
X94249900Y-97237226D01*
X93990070Y-97230002D01*
X93730239Y-97222778D01*
X93730239Y-96895010D01*
X94290401Y-96895010D01*
X94443234Y-96787276D01*
X94596067Y-96679541D01*
X93730239Y-96665669D01*
X93730239Y-94562875D01*
X94059780Y-94562875D01*
X94059780Y-96340852D01*
G37*
G36*
X93288793Y-105240398D02*
G01*
X93294182Y-105283870D01*
X93297909Y-105361314D01*
X93299301Y-105461377D01*
X93299301Y-105687824D01*
X93191567Y-105775947D01*
X93125256Y-105828127D01*
X92842521Y-106012688D01*
X92530104Y-106163267D01*
X92196390Y-106277394D01*
X91849763Y-106352602D01*
X91498609Y-106386425D01*
X91151313Y-106376394D01*
X90886325Y-106339720D01*
X90541879Y-106254335D01*
X90209229Y-106125738D01*
X89882500Y-105951544D01*
X89555815Y-105729372D01*
X89550819Y-105724476D01*
X89534513Y-105681400D01*
X89525210Y-105598117D01*
X89522255Y-105469541D01*
X89522696Y-105412859D01*
X89525606Y-105321446D01*
X89530638Y-105258418D01*
X89537087Y-105234931D01*
X89543748Y-105238098D01*
X89581811Y-105266183D01*
X89644010Y-105317061D01*
X89720870Y-105383090D01*
X89864419Y-105501615D01*
X90158965Y-105700848D01*
X90468987Y-105853029D01*
X90798650Y-105960023D01*
X91152122Y-106023696D01*
X91471577Y-106038845D01*
X91810860Y-106007152D01*
X92143907Y-105927157D01*
X92466877Y-105800089D01*
X92775931Y-105627181D01*
X93067231Y-105409663D01*
X93134084Y-105353346D01*
X93208784Y-105292116D01*
X93262227Y-105250366D01*
X93285860Y-105234931D01*
X93288793Y-105240398D01*
G37*
G36*
X94059780Y-75856805D02*
G01*
X94332285Y-75849611D01*
X94604790Y-75842416D01*
X94618130Y-74105988D01*
X94949287Y-74105988D01*
X94941809Y-75062925D01*
X94941429Y-75111616D01*
X94939352Y-75359579D01*
X94936906Y-75562550D01*
X94933392Y-75725378D01*
X94928112Y-75852913D01*
X94920365Y-75950007D01*
X94909453Y-76021508D01*
X94894676Y-76072266D01*
X94875336Y-76107133D01*
X94850732Y-76130957D01*
X94820166Y-76148588D01*
X94782938Y-76164878D01*
X94751499Y-76174170D01*
X94655636Y-76187029D01*
X94509606Y-76194738D01*
X94313273Y-76197306D01*
X94206789Y-76196870D01*
X94065442Y-76193305D01*
X93961849Y-76184338D01*
X93887952Y-76167836D01*
X93835691Y-76141663D01*
X93797004Y-76103685D01*
X93763833Y-76051766D01*
X93760403Y-76043827D01*
X93752135Y-76004941D01*
X93745435Y-75937989D01*
X93740179Y-75839200D01*
X93736245Y-75704802D01*
X93733508Y-75531025D01*
X93731847Y-75314098D01*
X93731138Y-75050250D01*
X93730239Y-74105988D01*
X94059780Y-74105988D01*
X94059780Y-75856805D01*
G37*
G36*
X95656786Y-95881038D02*
G01*
X95327245Y-95881038D01*
X95327245Y-93751697D01*
X95656786Y-93751697D01*
X95656786Y-95881038D01*
G37*
G36*
X94947006Y-92027945D02*
G01*
X93730239Y-92027945D01*
X93730239Y-91698404D01*
X94947006Y-91698404D01*
X94947006Y-92027945D01*
G37*
G36*
X91518772Y-102233412D02*
G01*
X91687573Y-102238721D01*
X91833636Y-102249208D01*
X91943114Y-102264894D01*
X92082677Y-102297805D01*
X92444782Y-102415670D01*
X92788268Y-102574655D01*
X93102844Y-102770274D01*
X93299301Y-102910944D01*
X93299301Y-103147688D01*
X93298814Y-103206278D01*
X93295733Y-103297850D01*
X93290443Y-103360936D01*
X93283677Y-103384432D01*
X93280330Y-103383236D01*
X93247612Y-103359342D01*
X93190644Y-103311077D01*
X93119343Y-103246752D01*
X92996339Y-103141634D01*
X92799482Y-102998581D01*
X92591942Y-102872181D01*
X92393246Y-102775118D01*
X92309843Y-102742102D01*
X91973745Y-102641353D01*
X91629905Y-102587179D01*
X91284238Y-102579417D01*
X90942657Y-102617903D01*
X90611076Y-102702474D01*
X90295409Y-102832968D01*
X90261255Y-102850569D01*
X90100982Y-102943496D01*
X89939097Y-103051856D01*
X89791831Y-103164231D01*
X89675410Y-103269202D01*
X89619444Y-103323806D01*
X89569212Y-103367628D01*
X89542327Y-103384432D01*
X89537177Y-103376372D01*
X89529502Y-103328668D01*
X89524220Y-103247650D01*
X89522255Y-103144343D01*
X89522255Y-102904254D01*
X89718712Y-102765564D01*
X89808516Y-102704556D01*
X90146603Y-102513117D01*
X90505467Y-102366087D01*
X90878443Y-102266336D01*
X90893089Y-102263590D01*
X91014391Y-102248371D01*
X91168336Y-102238255D01*
X91341078Y-102233263D01*
X91518772Y-102233412D01*
G37*
G36*
X93527445Y-97400729D02*
G01*
X93457734Y-97389671D01*
X93432175Y-97386579D01*
X93356953Y-97379686D01*
X93247952Y-97371017D01*
X93115459Y-97361377D01*
X92969760Y-97351567D01*
X92877903Y-97345445D01*
X92737126Y-97335351D01*
X92614958Y-97325744D01*
X92522064Y-97317479D01*
X92469112Y-97311412D01*
X92430072Y-97303893D01*
X92400223Y-97286574D01*
X92388658Y-97247700D01*
X92386726Y-97172704D01*
X92387139Y-97128203D01*
X92389432Y-97069702D01*
X92393064Y-97046563D01*
X92450467Y-97041682D01*
X92627008Y-97027139D01*
X92805404Y-97013055D01*
X92976928Y-97000066D01*
X93132849Y-96988808D01*
X93264439Y-96979916D01*
X93362969Y-96974027D01*
X93419710Y-96971776D01*
X93527445Y-96971058D01*
X93527445Y-97400729D01*
G37*
G36*
X93527445Y-104174716D02*
G01*
X93432385Y-104160939D01*
X93394273Y-104156564D01*
X93306761Y-104148651D01*
X93187117Y-104139139D01*
X93045911Y-104128857D01*
X92893712Y-104118636D01*
X92771888Y-104110508D01*
X92638686Y-104100879D01*
X92529454Y-104092154D01*
X92453069Y-104085050D01*
X92418413Y-104080282D01*
X92410474Y-104074997D01*
X92392966Y-104028680D01*
X92386726Y-103942912D01*
X92387195Y-103913859D01*
X92396708Y-103839870D01*
X92418413Y-103814826D01*
X92447394Y-103813075D01*
X92519884Y-103807805D01*
X92626355Y-103799678D01*
X92758094Y-103789361D01*
X92906387Y-103777520D01*
X93035045Y-103767384D01*
X93178369Y-103756647D01*
X93301139Y-103748048D01*
X93393366Y-103742280D01*
X93445060Y-103740040D01*
X93527445Y-103739322D01*
X93527445Y-104174716D01*
G37*
G36*
X94286327Y-103739760D02*
G01*
X94319555Y-103761287D01*
X94365890Y-103805223D01*
X94413718Y-103851593D01*
X94513932Y-103935418D01*
X94636594Y-104027986D01*
X94768524Y-104119874D01*
X94896543Y-104201659D01*
X95007470Y-104263919D01*
X95093218Y-104305374D01*
X95428164Y-104434411D01*
X95767475Y-104513005D01*
X96112010Y-104541245D01*
X96462630Y-104519217D01*
X96820193Y-104447007D01*
X96971676Y-104399460D01*
X97219528Y-104295367D01*
X97460001Y-104164379D01*
X97678671Y-104014704D01*
X97861116Y-103854552D01*
X97906009Y-103809755D01*
X97966531Y-103757794D01*
X98005495Y-103744648D01*
X98027559Y-103773266D01*
X98037382Y-103846599D01*
X98039621Y-103967595D01*
X98039621Y-104195868D01*
X97868513Y-104322544D01*
X97623305Y-104483446D01*
X97305180Y-104644304D01*
X96966065Y-104769908D01*
X96618277Y-104855014D01*
X96617545Y-104855147D01*
X96480632Y-104871832D01*
X96309881Y-104880677D01*
X96121409Y-104881892D01*
X95931330Y-104875687D01*
X95755758Y-104862273D01*
X95610809Y-104841860D01*
X95468036Y-104810933D01*
X95112199Y-104700127D01*
X94773461Y-104543475D01*
X94446771Y-104338792D01*
X94263403Y-104208284D01*
X94262989Y-103973803D01*
X94263509Y-103917216D01*
X94267453Y-103825822D01*
X94274443Y-103762806D01*
X94283505Y-103739322D01*
X94286327Y-103739760D01*
G37*
G36*
X96349868Y-100144367D02*
G01*
X96292272Y-100036020D01*
X96224934Y-99905431D01*
X96151541Y-99759481D01*
X96115129Y-99685954D01*
X96040513Y-99532705D01*
X95986037Y-99415520D01*
X95949187Y-99328152D01*
X95927448Y-99264352D01*
X95920128Y-99227146D01*
X96241096Y-99227146D01*
X96241343Y-99228284D01*
X96255211Y-99259993D01*
X96285952Y-99322847D01*
X96327593Y-99404591D01*
X96327901Y-99405185D01*
X96375292Y-99489091D01*
X96408812Y-99532191D01*
X96426017Y-99531338D01*
X96427086Y-99527986D01*
X96438808Y-99481314D01*
X96457388Y-99398725D01*
X96480625Y-99290903D01*
X96506320Y-99168531D01*
X96532272Y-99042291D01*
X96556283Y-98922867D01*
X96576151Y-98820942D01*
X96589679Y-98747199D01*
X96594665Y-98712320D01*
X96594298Y-98710929D01*
X96577310Y-98725359D01*
X96538699Y-98774310D01*
X96483630Y-98850915D01*
X96417265Y-98948304D01*
X96409268Y-98960320D01*
X96343312Y-99060619D01*
X96289753Y-99144134D01*
X96253909Y-99202448D01*
X96241096Y-99227146D01*
X95920128Y-99227146D01*
X95918304Y-99217875D01*
X95919241Y-99182473D01*
X95919987Y-99178994D01*
X95941136Y-99129878D01*
X95987638Y-99044112D01*
X96056703Y-98926354D01*
X96145540Y-98781265D01*
X96251356Y-98613505D01*
X96371361Y-98427732D01*
X96455716Y-98298754D01*
X96567309Y-98129685D01*
X96657370Y-97996725D01*
X96729473Y-97895875D01*
X96787193Y-97823141D01*
X96834101Y-97774525D01*
X96873771Y-97746031D01*
X96909778Y-97733661D01*
X96945693Y-97733420D01*
X96985091Y-97741311D01*
X96988092Y-97742072D01*
X97017300Y-97751341D01*
X97040486Y-97765399D01*
X97057230Y-97788317D01*
X97067113Y-97824167D01*
X97069717Y-97877020D01*
X97064623Y-97950947D01*
X97051412Y-98050019D01*
X97029666Y-98178307D01*
X96998965Y-98339882D01*
X96958893Y-98538816D01*
X96909028Y-98779180D01*
X96848954Y-99065044D01*
X96801402Y-99289640D01*
X96753776Y-99512376D01*
X96709860Y-99715529D01*
X96670760Y-99894091D01*
X96637581Y-100043054D01*
X96611430Y-100157410D01*
X96593412Y-100232150D01*
X96584632Y-100262266D01*
X96583961Y-100263304D01*
X96543309Y-100286209D01*
X96482032Y-100289803D01*
X96426216Y-100272417D01*
X96421101Y-100266810D01*
X96408812Y-100247183D01*
X96394040Y-100223591D01*
X96349868Y-100144367D01*
G37*
G36*
X91526903Y-94746290D02*
G01*
X91736473Y-94758522D01*
X91927114Y-94780425D01*
X92083315Y-94811504D01*
X92320030Y-94884693D01*
X92573826Y-94984757D01*
X92814249Y-95100931D01*
X93028872Y-95227167D01*
X93205265Y-95357419D01*
X93301349Y-95439138D01*
X93293988Y-95678149D01*
X93286626Y-95917161D01*
X93110484Y-95757432D01*
X92942542Y-95615283D01*
X92681148Y-95434999D01*
X92402973Y-95293230D01*
X92095209Y-95182725D01*
X92052592Y-95170899D01*
X91861023Y-95132536D01*
X91642218Y-95107258D01*
X91413735Y-95096069D01*
X91193134Y-95099975D01*
X90997976Y-95119978D01*
X90895199Y-95139153D01*
X90583171Y-95228684D01*
X90278504Y-95361400D01*
X89992035Y-95532025D01*
X89734602Y-95735280D01*
X89680059Y-95784454D01*
X89608503Y-95847329D01*
X89557114Y-95890406D01*
X89534432Y-95906388D01*
X89531281Y-95898156D01*
X89526638Y-95850194D01*
X89523444Y-95768953D01*
X89522255Y-95665440D01*
X89522255Y-95424492D01*
X89693363Y-95297926D01*
X89916192Y-95150196D01*
X90236505Y-94985621D01*
X90577902Y-94858736D01*
X90928748Y-94774469D01*
X90939722Y-94772605D01*
X91113016Y-94752834D01*
X91313914Y-94744229D01*
X91526903Y-94746290D01*
G37*
G36*
X94032730Y-83525374D02*
G01*
X93935849Y-83509750D01*
X93866289Y-83484784D01*
X93816428Y-83448652D01*
X93778646Y-83399533D01*
X93778038Y-83398532D01*
X93764773Y-83373475D01*
X93754217Y-83343164D01*
X93746061Y-83301920D01*
X93739999Y-83244061D01*
X93735723Y-83163907D01*
X93732926Y-83055777D01*
X93731301Y-82913991D01*
X93731015Y-82845996D01*
X94063406Y-82845996D01*
X94064219Y-82970380D01*
X94066752Y-83060526D01*
X94071275Y-83122038D01*
X94078058Y-83160525D01*
X94087368Y-83181592D01*
X94099475Y-83190847D01*
X94116996Y-83195308D01*
X94182545Y-83202190D01*
X94273403Y-83205413D01*
X94374384Y-83205154D01*
X94470302Y-83201587D01*
X94545969Y-83194887D01*
X94586201Y-83185230D01*
X94592784Y-83176678D01*
X94601203Y-83144389D01*
X94607278Y-83085003D01*
X94611181Y-82993805D01*
X94613080Y-82866078D01*
X94613147Y-82697107D01*
X94611550Y-82482175D01*
X94604790Y-81799501D01*
X94072455Y-81799501D01*
X94065715Y-82487403D01*
X94064045Y-82681765D01*
X94063406Y-82845996D01*
X93731015Y-82845996D01*
X93730539Y-82732868D01*
X93730334Y-82506727D01*
X93730799Y-82318134D01*
X93732956Y-82093285D01*
X93736790Y-81907669D01*
X93742214Y-81764147D01*
X93749142Y-81665583D01*
X93757485Y-81614837D01*
X93758397Y-81612242D01*
X93786488Y-81551759D01*
X93826677Y-81507379D01*
X93886672Y-81476380D01*
X93974182Y-81456041D01*
X94096914Y-81443638D01*
X94262575Y-81436450D01*
X94358162Y-81434365D01*
X94523424Y-81435948D01*
X94649835Y-81446678D01*
X94745059Y-81467952D01*
X94816762Y-81501169D01*
X94872609Y-81547728D01*
X94934331Y-81613391D01*
X94941940Y-82429360D01*
X94942296Y-82468177D01*
X94944049Y-82711558D01*
X94944011Y-82910055D01*
X94941480Y-83068746D01*
X94935753Y-83192707D01*
X94926126Y-83287018D01*
X94911898Y-83356756D01*
X94892366Y-83406998D01*
X94866825Y-83442822D01*
X94834574Y-83469306D01*
X94794910Y-83491528D01*
X94751806Y-83508967D01*
X94693294Y-83522168D01*
X94613037Y-83530417D01*
X94501399Y-83534671D01*
X94348743Y-83535889D01*
X94338937Y-83535886D01*
X94273403Y-83534981D01*
X94164553Y-83533479D01*
X94032730Y-83525374D01*
G37*
G36*
X94059780Y-78317499D02*
G01*
X94116816Y-78309398D01*
X94173852Y-78301298D01*
X94180522Y-77433084D01*
X94187192Y-76564871D01*
X94490053Y-76564871D01*
X94496723Y-77433084D01*
X94503393Y-78301298D01*
X94560429Y-78309398D01*
X94617465Y-78317499D01*
X94617465Y-76564871D01*
X94947006Y-76564871D01*
X94947006Y-78643513D01*
X93730239Y-78643513D01*
X93730239Y-76564871D01*
X94059780Y-76564871D01*
X94059780Y-78317499D01*
G37*
G36*
X94947006Y-79327945D02*
G01*
X94543490Y-79327945D01*
X94460038Y-79328271D01*
X94327796Y-79330203D01*
X94217242Y-79333581D01*
X94138046Y-79338069D01*
X94099877Y-79343331D01*
X94090647Y-79349985D01*
X94081548Y-79368181D01*
X94074403Y-79402214D01*
X94068983Y-79457065D01*
X94065061Y-79537714D01*
X94062408Y-79649140D01*
X94060796Y-79796323D01*
X94059996Y-79984244D01*
X94059780Y-80217882D01*
X94059780Y-81077046D01*
X93728496Y-81077046D01*
X93735705Y-80114324D01*
X93742914Y-79151601D01*
X93813145Y-79081340D01*
X93883377Y-79011078D01*
X94415191Y-79003318D01*
X94947006Y-78995558D01*
X94947006Y-79327945D01*
G37*
G36*
X93527445Y-104880040D02*
G01*
X93457734Y-104879322D01*
X93420110Y-104877657D01*
X93337281Y-104872394D01*
X93221834Y-104864211D01*
X93083432Y-104853798D01*
X92931736Y-104841842D01*
X92799010Y-104831276D01*
X92662819Y-104820724D01*
X92550086Y-104812301D01*
X92469834Y-104806681D01*
X92431088Y-104804536D01*
X92423721Y-104804067D01*
X92400656Y-104790388D01*
X92389580Y-104749225D01*
X92386726Y-104669069D01*
X92386726Y-104534145D01*
X92849351Y-104503156D01*
X92980772Y-104494074D01*
X93129390Y-104483134D01*
X93259135Y-104472872D01*
X93359434Y-104464133D01*
X93419710Y-104457756D01*
X93527445Y-104443346D01*
X93527445Y-104880040D01*
G37*
G36*
X93293988Y-97959776D02*
G01*
X93301349Y-98198787D01*
X93205265Y-98280506D01*
X93042934Y-98401484D01*
X92830637Y-98528209D01*
X92591650Y-98645305D01*
X92338400Y-98746725D01*
X92083315Y-98826421D01*
X92073575Y-98828949D01*
X91914383Y-98859385D01*
X91721865Y-98880611D01*
X91511532Y-98892128D01*
X91298894Y-98893440D01*
X91099463Y-98884048D01*
X90928748Y-98863456D01*
X90660865Y-98803262D01*
X90316169Y-98686058D01*
X89989790Y-98529995D01*
X89693363Y-98339999D01*
X89522255Y-98213433D01*
X89522255Y-97972485D01*
X89522671Y-97910136D01*
X89525095Y-97818252D01*
X89529201Y-97755051D01*
X89534432Y-97731537D01*
X89545892Y-97738783D01*
X89588613Y-97773594D01*
X89654363Y-97830648D01*
X89734602Y-97902645D01*
X89815710Y-97973028D01*
X90083927Y-98166094D01*
X90377601Y-98324788D01*
X90685896Y-98443831D01*
X90997976Y-98517947D01*
X91044632Y-98524668D01*
X91247990Y-98540447D01*
X91472287Y-98540385D01*
X91699962Y-98525487D01*
X91913456Y-98496757D01*
X92095209Y-98455199D01*
X92300411Y-98386127D01*
X92587381Y-98256004D01*
X92853136Y-98089876D01*
X93110484Y-97880493D01*
X93286626Y-97720764D01*
X93293988Y-97959776D01*
G37*
G36*
X93527445Y-96666867D02*
G01*
X93457734Y-96666149D01*
X93420110Y-96664484D01*
X93337281Y-96659220D01*
X93221834Y-96651038D01*
X93083432Y-96640624D01*
X92931736Y-96628668D01*
X92799010Y-96618102D01*
X92662819Y-96607550D01*
X92550086Y-96599127D01*
X92469834Y-96593507D01*
X92431088Y-96591362D01*
X92423721Y-96590894D01*
X92400656Y-96577214D01*
X92389580Y-96536051D01*
X92386726Y-96455895D01*
X92386726Y-96320972D01*
X92849351Y-96289982D01*
X92980772Y-96280901D01*
X93129390Y-96269960D01*
X93259135Y-96259699D01*
X93359434Y-96250959D01*
X93419710Y-96244583D01*
X93527445Y-96230172D01*
X93527445Y-96666867D01*
G37*
G36*
X94947006Y-73751098D02*
G01*
X94617465Y-73751098D01*
X94617465Y-72889222D01*
X93730239Y-72889222D01*
X93730239Y-72534332D01*
X94617465Y-72534332D01*
X94617465Y-71672455D01*
X94947006Y-71672455D01*
X94947006Y-73751098D01*
G37*
G36*
X96321436Y-102617602D02*
G01*
X96217526Y-102456053D01*
X96124321Y-102309070D01*
X96045263Y-102182204D01*
X95983792Y-102081009D01*
X95943350Y-102011035D01*
X95927376Y-101977834D01*
X95921710Y-101946034D01*
X95914298Y-101889209D01*
X96241050Y-101889209D01*
X96244281Y-101899087D01*
X96268462Y-101943351D01*
X96310870Y-102012737D01*
X96365059Y-102097518D01*
X96424586Y-102187962D01*
X96483005Y-102274341D01*
X96533873Y-102346926D01*
X96570745Y-102395985D01*
X96587178Y-102411791D01*
X96587312Y-102411608D01*
X96585404Y-102383199D01*
X96574813Y-102315750D01*
X96557541Y-102219355D01*
X96535591Y-102104111D01*
X96510966Y-101980111D01*
X96485670Y-101857451D01*
X96461706Y-101746225D01*
X96441076Y-101656529D01*
X96425785Y-101598457D01*
X96417821Y-101583293D01*
X96400147Y-101588356D01*
X96371158Y-101629737D01*
X96326418Y-101712529D01*
X96321660Y-101721798D01*
X96281296Y-101801935D01*
X96252434Y-101861861D01*
X96241050Y-101889209D01*
X95914298Y-101889209D01*
X95913731Y-101884862D01*
X95918038Y-101866191D01*
X95941379Y-101806195D01*
X95981349Y-101715148D01*
X96033873Y-101601378D01*
X96094877Y-101473217D01*
X96160287Y-101338995D01*
X96226029Y-101207041D01*
X96288029Y-101085686D01*
X96342212Y-100983260D01*
X96384503Y-100908092D01*
X96410830Y-100868513D01*
X96425281Y-100854310D01*
X96492555Y-100825805D01*
X96565071Y-100846314D01*
X96569995Y-100854182D01*
X96587332Y-100906012D01*
X96613382Y-101003000D01*
X96647415Y-101142027D01*
X96688697Y-101319969D01*
X96736498Y-101533707D01*
X96790085Y-101780119D01*
X96848727Y-102056083D01*
X96904196Y-102319859D01*
X96955840Y-102567211D01*
X96997649Y-102772413D01*
X97029853Y-102939400D01*
X97052681Y-103072106D01*
X97066361Y-103174466D01*
X97071122Y-103250414D01*
X97067192Y-103303883D01*
X97054799Y-103338809D01*
X97034174Y-103359125D01*
X97005543Y-103368766D01*
X96969137Y-103371665D01*
X96925183Y-103371757D01*
X96812725Y-103371757D01*
X96587178Y-103025653D01*
X96375147Y-102700289D01*
X96321436Y-102617602D01*
G37*
G36*
X96566288Y-106267157D02*
G01*
X96577724Y-106379619D01*
X96599334Y-106597974D01*
X96618339Y-106797903D01*
X96634282Y-106974073D01*
X96646702Y-107121154D01*
X96655140Y-107233814D01*
X96659137Y-107306722D01*
X96658234Y-107334547D01*
X96638790Y-107341170D01*
X96579967Y-107348111D01*
X96498911Y-107351031D01*
X96355507Y-107351597D01*
X96249860Y-106350300D01*
X96243039Y-106285617D01*
X96220148Y-106068036D01*
X96199062Y-105866838D01*
X96180370Y-105687695D01*
X96164660Y-105536280D01*
X96152522Y-105418265D01*
X96144545Y-105339322D01*
X96141318Y-105305124D01*
X96141149Y-105299222D01*
X96150327Y-105273299D01*
X96183093Y-105254797D01*
X96248465Y-105240422D01*
X96355459Y-105226881D01*
X96458423Y-105215685D01*
X96566288Y-106267157D01*
G37*
G36*
X96513237Y-93765835D02*
G01*
X96575924Y-93774054D01*
X96638866Y-93784020D01*
X96666612Y-93790861D01*
X96666378Y-93805207D01*
X96661954Y-93863871D01*
X96653390Y-93961833D01*
X96641323Y-94092696D01*
X96626394Y-94250061D01*
X96609242Y-94427528D01*
X96590504Y-94618699D01*
X96570821Y-94817175D01*
X96550831Y-95016557D01*
X96531173Y-95210446D01*
X96512487Y-95392444D01*
X96495411Y-95556151D01*
X96480583Y-95695169D01*
X96468644Y-95803099D01*
X96460232Y-95873541D01*
X96455987Y-95900098D01*
X96434502Y-95901131D01*
X96375288Y-95897567D01*
X96292395Y-95889909D01*
X96133822Y-95873335D01*
X96148083Y-95769452D01*
X96152746Y-95730615D01*
X96162297Y-95643725D01*
X96175596Y-95518518D01*
X96191961Y-95361551D01*
X96210708Y-95179382D01*
X96231155Y-94978569D01*
X96252618Y-94765669D01*
X96271598Y-94577947D01*
X96291975Y-94379768D01*
X96310687Y-94201256D01*
X96327071Y-94048568D01*
X96340466Y-93927861D01*
X96350210Y-93845294D01*
X96355640Y-93807023D01*
X96365348Y-93775957D01*
X96386394Y-93759571D01*
X96431306Y-93757343D01*
X96513237Y-93765835D01*
G37*
%TO.C,J1*%
X115610000Y-67590000D02*
X108490000Y-67590000D01*
X115610000Y-110410000D02*
X115610000Y-67590000D01*
X108490000Y-110410000D02*
X108490000Y-67590000D01*
X109990000Y-110650000D02*
X108250000Y-110650000D01*
X108250000Y-110650000D02*
X108250000Y-109150000D01*
X110050000Y-110410000D02*
X110050000Y-67590000D01*
X115610000Y-110410000D02*
X108490000Y-110410000D01*
X112757742Y-106817891D02*
G75*
G03*
X111542000Y-106818000I-607743J-1432112D01*
G01*
X110594507Y-108222989D02*
G75*
G03*
X110718000Y-108858000I1555481J-27013D01*
G01*
X111542258Y-109682109D02*
G75*
G03*
X112758000Y-109682000I607743J1432112D01*
G01*
X113582109Y-108857742D02*
G75*
G03*
X113582000Y-107642000I-1432112J607743D01*
G01*
X110718615Y-107642413D02*
G75*
G03*
X110595000Y-108250000I1431382J-607586D01*
G01*
X113705000Y-76750000D02*
G75*
G03*
X113705000Y-76750000I-1555000J0D01*
G01*
X113705000Y-101250000D02*
G75*
G03*
X113705000Y-101250000I-1555000J0D01*
G01*
X113705000Y-83750000D02*
G75*
G03*
X113705000Y-83750000I-1555000J0D01*
G01*
X113705000Y-97750000D02*
G75*
G03*
X113705000Y-97750000I-1555000J0D01*
G01*
X113705000Y-104750000D02*
G75*
G03*
X113705000Y-104750000I-1555000J0D01*
G01*
X113705000Y-87250000D02*
G75*
G03*
X113705000Y-87250000I-1555000J0D01*
G01*
X113705000Y-80250000D02*
G75*
G03*
X113705000Y-80250000I-1555000J0D01*
G01*
X113705000Y-94250000D02*
G75*
G03*
X113705000Y-94250000I-1555000J0D01*
G01*
X113705000Y-69750000D02*
G75*
G03*
X113705000Y-69750000I-1555000J0D01*
G01*
X113705000Y-73250000D02*
G75*
G03*
X113705000Y-73250000I-1555000J0D01*
G01*
X113705000Y-90750000D02*
G75*
G03*
X113705000Y-90750000I-1555000J0D01*
G01*
%TD*%
M02*
