M48
; DRILL file {KiCad (6.0.0)} date Tue Apr 26 02:16:37 2022
; FORMAT={-:-/ absolute / inch / decimal}
; #@! TF.CreationDate,2022-04-26T02:16:37+02:00
; #@! TF.GenerationSoftware,Kicad,Pcbnew,(6.0.0)
; #@! TF.FileFunction,Plated,1,2,PTH
FMAT,2
INCH
; #@! TA.AperFunction,Plated,PTH,ComponentDrill
T1C0.0402
; #@! TA.AperFunction,Plated,PTH,ComponentDrill
T2C0.0472
%
G90
G05
T1
X3.0801Y-2.8541
X3.0801Y-2.9722
X3.0801Y-3.0904
X3.0801Y-3.2085
X3.0801Y-3.3266
X3.0801Y-3.4447
X3.0801Y-3.5628
X3.0801Y-3.6809
X3.0801Y-3.799
X3.0801Y-3.9171
X3.0801Y-4.0352
X3.0801Y-4.1533
X3.1982Y-2.8541
X3.1982Y-2.9722
X3.1982Y-3.0904
X3.1982Y-3.2085
X3.1982Y-3.3266
X3.1982Y-3.4447
X3.1982Y-3.5628
X3.1982Y-3.6809
X3.1982Y-3.799
X3.1982Y-3.9171
X3.1982Y-4.0352
X3.1982Y-4.1533
T2
X4.4154Y-2.7461
X4.4154Y-2.8839
X4.4154Y-3.0217
X4.4154Y-3.1594
X4.4154Y-3.2972
X4.4154Y-3.435
X4.4154Y-3.5728
X4.4154Y-3.7106
X4.4154Y-3.8484
X4.4154Y-3.9862
X4.4154Y-4.124
X4.4154Y-4.2618
X4.7244Y-2.7461
X4.7244Y-2.8839
X4.7244Y-3.0217
X4.7244Y-3.1594
X4.7244Y-3.2972
X4.7244Y-3.435
X4.7244Y-3.5728
X4.7244Y-3.7106
X4.7244Y-3.8484
X4.7244Y-3.9862
X4.7244Y-4.124
X4.7244Y-4.2618
T0
M30
