%TF.GenerationSoftware,KiCad,Pcbnew,(6.0.0)*%
%TF.CreationDate,2022-04-26T02:16:27+02:00*%
%TF.ProjectId,Plug_Molex_microfit_3.0_To_Screew_v0.1,506c7567-5f4d-46f6-9c65-785f6d696372,rev?*%
%TF.SameCoordinates,Original*%
%TF.FileFunction,Copper,L2,Bot*%
%TF.FilePolarity,Positive*%
%FSLAX46Y46*%
G04 Gerber Fmt 4.6, Leading zero omitted, Abs format (unit mm)*
G04 Created by KiCad (PCBNEW (6.0.0)) date 2022-04-26 02:16:27*
%MOMM*%
%LPD*%
G01*
G04 APERTURE LIST*
G04 Aperture macros list*
%AMRoundRect*
0 Rectangle with rounded corners*
0 $1 Rounding radius*
0 $2 $3 $4 $5 $6 $7 $8 $9 X,Y pos of 4 corners*
0 Add a 4 corners polygon primitive as box body*
4,1,4,$2,$3,$4,$5,$6,$7,$8,$9,$2,$3,0*
0 Add four circle primitives for the rounded corners*
1,1,$1+$1,$2,$3*
1,1,$1+$1,$4,$5*
1,1,$1+$1,$6,$7*
1,1,$1+$1,$8,$9*
0 Add four rect primitives between the rounded corners*
20,1,$1+$1,$2,$3,$4,$5,0*
20,1,$1+$1,$4,$5,$6,$7,0*
20,1,$1+$1,$6,$7,$8,$9,0*
20,1,$1+$1,$8,$9,$2,$3,0*%
G04 Aperture macros list end*
%TA.AperFunction,ComponentPad*%
%ADD10RoundRect,0.250001X0.499999X-0.499999X0.499999X0.499999X-0.499999X0.499999X-0.499999X-0.499999X0*%
%TD*%
%TA.AperFunction,ComponentPad*%
%ADD11C,1.500000*%
%TD*%
%TA.AperFunction,ComponentPad*%
%ADD12R,2.400000X2.400000*%
%TD*%
%TA.AperFunction,ComponentPad*%
%ADD13C,2.400000*%
%TD*%
%TA.AperFunction,Conductor*%
%ADD14C,1.500000*%
%TD*%
%TA.AperFunction,Conductor*%
%ADD15C,1.000000*%
%TD*%
G04 APERTURE END LIST*
D10*
%TO.P,J2,1,Pin_1*%
%TO.N,+12v*%
X78235000Y-105495000D03*
D11*
%TO.P,J2,2,Pin_2*%
%TO.N,GND*%
X78235000Y-102495000D03*
%TO.P,J2,3,Pin_3*%
X78235000Y-99495000D03*
%TO.P,J2,4,Pin_4*%
X78235000Y-96495000D03*
%TO.P,J2,5,Pin_5*%
%TO.N,VVT*%
X78235000Y-93495000D03*
%TO.P,J2,6,Pin_6*%
%TO.N,IDLE1*%
X78235000Y-90495000D03*
%TO.P,J2,7,Pin_7*%
%TO.N,FP*%
X78235000Y-87495000D03*
%TO.P,J2,8,Pin_8*%
%TO.N,INJ1*%
X78235000Y-84495000D03*
%TO.P,J2,9,Pin_9*%
%TO.N,INJ2*%
X78235000Y-81495000D03*
%TO.P,J2,10,Pin_10*%
%TO.N,IDLE2*%
X78235000Y-78495000D03*
%TO.P,J2,11,Pin_11*%
%TO.N,ING1*%
X78235000Y-75495000D03*
%TO.P,J2,12,Pin_12*%
%TO.N,ING2*%
X78235000Y-72495000D03*
%TO.P,J2,13,Pin_13*%
%TO.N,Flaunch*%
X81235000Y-105495000D03*
%TO.P,J2,14,Pin_14*%
%TO.N,GND*%
X81235000Y-102495000D03*
%TO.P,J2,15,Pin_15*%
%TO.N,+5v*%
X81235000Y-99495000D03*
%TO.P,J2,16,Pin_16*%
%TO.N,O\u00B2*%
X81235000Y-96495000D03*
%TO.P,J2,17,Pin_17*%
%TO.N,TPS*%
X81235000Y-93495000D03*
%TO.P,J2,18,Pin_18*%
%TO.N,CLT*%
X81235000Y-90495000D03*
%TO.P,J2,19,Pin_19*%
%TO.N,IAT*%
X81235000Y-87495000D03*
%TO.P,J2,20,Pin_20*%
%TO.N,VR1+*%
X81235000Y-84495000D03*
%TO.P,J2,21,Pin_21*%
%TO.N,VR1-*%
X81235000Y-81495000D03*
%TO.P,J2,22,Pin_22*%
%TO.N,VR2+*%
X81235000Y-78495000D03*
%TO.P,J2,23,Pin_23*%
%TO.N,VR2-*%
X81235000Y-75495000D03*
%TO.P,J2,24,Pin_24*%
%TO.N,TACHO*%
X81235000Y-72495000D03*
%TD*%
D12*
%TO.P,J3,1,Pin_1*%
%TO.N,TACHO*%
X120000000Y-69750000D03*
D13*
%TO.P,J3,2,Pin_2*%
%TO.N,VR2-*%
X120000000Y-73250000D03*
%TO.P,J3,3,Pin_3*%
%TO.N,VR2+*%
X120000000Y-76750000D03*
%TO.P,J3,4,Pin_4*%
%TO.N,VR1-*%
X120000000Y-80250000D03*
%TO.P,J3,5,Pin_5*%
%TO.N,VR1+*%
X120000000Y-83750000D03*
%TO.P,J3,6,Pin_6*%
%TO.N,IAT*%
X120000000Y-87250000D03*
%TO.P,J3,7,Pin_7*%
%TO.N,CLT*%
X120000000Y-90750000D03*
%TO.P,J3,8,Pin_8*%
%TO.N,TPS*%
X120000000Y-94250000D03*
%TO.P,J3,9,Pin_9*%
%TO.N,O\u00B2*%
X120000000Y-97750000D03*
%TO.P,J3,10,Pin_10*%
%TO.N,+5v*%
X120000000Y-101250000D03*
%TO.P,J3,11,Pin_11*%
%TO.N,GND*%
X120000000Y-104750000D03*
%TO.P,J3,12,Pin_12*%
%TO.N,Flaunch*%
X120000000Y-108250000D03*
%TD*%
D12*
%TO.P,J1,1,Pin_1*%
%TO.N,+12v*%
X112150000Y-108250000D03*
D13*
%TO.P,J1,2,Pin_2*%
%TO.N,GND*%
X112150000Y-104750000D03*
%TO.P,J1,3,Pin_3*%
X112150000Y-101250000D03*
%TO.P,J1,4,Pin_4*%
X112150000Y-97750000D03*
%TO.P,J1,5,Pin_5*%
%TO.N,VVT*%
X112150000Y-94250000D03*
%TO.P,J1,6,Pin_6*%
%TO.N,IDLE1*%
X112150000Y-90750000D03*
%TO.P,J1,7,Pin_7*%
%TO.N,FP*%
X112150000Y-87250000D03*
%TO.P,J1,8,Pin_8*%
%TO.N,INJ1*%
X112150000Y-83750000D03*
%TO.P,J1,9,Pin_9*%
%TO.N,INJ2*%
X112150000Y-80250000D03*
%TO.P,J1,10,Pin_10*%
%TO.N,IDLE2*%
X112150000Y-76750000D03*
%TO.P,J1,11,Pin_11*%
%TO.N,ING1*%
X112150000Y-73250000D03*
%TO.P,J1,12,Pin_12*%
%TO.N,ING2*%
X112150000Y-69750000D03*
%TD*%
D14*
%TO.N,+12v*%
X79362500Y-106622500D02*
X78235000Y-105495000D01*
X111900000Y-108000000D02*
X112150000Y-108250000D01*
X111296446Y-107750000D02*
X82084525Y-107750000D01*
X111296446Y-107750000D02*
G75*
G02*
X111900000Y-108000000I4J-853545D01*
G01*
X82084525Y-107749999D02*
G75*
G02*
X79362501Y-106622499I0J3849523D01*
G01*
D15*
%TO.N,VVT*%
X78959755Y-92770244D02*
X78235000Y-93495000D01*
X80709470Y-92045489D02*
X108386664Y-92045489D01*
X111047744Y-93147744D02*
X112150000Y-94250000D01*
X108386664Y-92045489D02*
G75*
G02*
X111047744Y-93147744I3J-3763328D01*
G01*
X78959755Y-92770244D02*
G75*
G02*
X80709470Y-92045489I1749711J-1749709D01*
G01*
%TO.N,FP*%
X110093771Y-86045489D02*
X80709470Y-86045489D01*
X78959755Y-86770244D02*
X78235000Y-87495000D01*
X111547744Y-86647744D02*
X112150000Y-87250000D01*
X110093771Y-86045490D02*
G75*
G02*
X111547743Y-86647745I4J-2056219D01*
G01*
X78959755Y-86770244D02*
G75*
G02*
X80709470Y-86045489I1749711J-1749709D01*
G01*
%TO.N,INJ1*%
X80709470Y-83045489D02*
X110947324Y-83045489D01*
X111797744Y-83397744D02*
X112150000Y-83750000D01*
X78959755Y-83770244D02*
X78235000Y-84495000D01*
X110947324Y-83045490D02*
G75*
G02*
X111797743Y-83397745I1J-1202674D01*
G01*
X78959755Y-83770244D02*
G75*
G02*
X80709470Y-83045489I1749711J-1749709D01*
G01*
%TO.N,INJ2*%
X112047744Y-80147744D02*
X112150000Y-80250000D01*
X78959755Y-80770244D02*
X78235000Y-81495000D01*
X111800877Y-80045489D02*
X80709470Y-80045489D01*
X111800877Y-80045489D02*
G75*
G02*
X112047744Y-80147744I0J-349124D01*
G01*
X78959755Y-80770244D02*
G75*
G02*
X80709470Y-80045489I1749711J-1749709D01*
G01*
%TO.N,ING1*%
X110955025Y-73950000D02*
X80872479Y-73950000D01*
X79007500Y-74722500D02*
X78235000Y-75495000D01*
X111800000Y-73600000D02*
X112150000Y-73250000D01*
X79007500Y-74722500D02*
G75*
G02*
X80872479Y-73950000I1864977J-1864973D01*
G01*
X110955025Y-73950000D02*
G75*
G03*
X111800000Y-73600000I-5J1194987D01*
G01*
%TO.N,ING2*%
X82408876Y-70050000D02*
X111637867Y-70050000D01*
X112000000Y-69900000D02*
X112150000Y-69750000D01*
X79457500Y-71272500D02*
X78235000Y-72495000D01*
X79457500Y-71272500D02*
G75*
G02*
X82408876Y-70050000I2951373J-2951368D01*
G01*
X111637867Y-70049999D02*
G75*
G03*
X111999999Y-69899999I-1J512136D01*
G01*
%TO.N,IDLE1*%
X78959755Y-89770244D02*
X78235000Y-90495000D01*
X111297744Y-89897744D02*
X112150000Y-90750000D01*
X109240217Y-89045489D02*
X80709470Y-89045489D01*
X78959755Y-89770244D02*
G75*
G02*
X80709470Y-89045489I1749711J-1749709D01*
G01*
X109240217Y-89045490D02*
G75*
G02*
X111297743Y-89897745I3J-2909776D01*
G01*
%TO.N,IDLE2*%
X80709470Y-77045489D02*
X111645568Y-77045489D01*
X78959755Y-77770244D02*
X78235000Y-78495000D01*
X112002255Y-76897744D02*
X112150000Y-76750000D01*
X111645568Y-77045489D02*
G75*
G03*
X112002255Y-76897744I-3J504437D01*
G01*
X78959755Y-77770244D02*
G75*
G02*
X80709470Y-77045489I1749711J-1749709D01*
G01*
%TD*%
%TA.AperFunction,Conductor*%
%TO.N,GND*%
G36*
X127184121Y-67278002D02*
G01*
X127230614Y-67331658D01*
X127242000Y-67384000D01*
X127242000Y-110616000D01*
X127221998Y-110684121D01*
X127168342Y-110730614D01*
X127116000Y-110742000D01*
X107784709Y-110742000D01*
X107716588Y-110721998D01*
X107690535Y-110699710D01*
X106373646Y-109218210D01*
X106343339Y-109154007D01*
X106352554Y-109083611D01*
X106398364Y-109029372D01*
X106467820Y-109008500D01*
X110315500Y-109008500D01*
X110383621Y-109028502D01*
X110430114Y-109082158D01*
X110441500Y-109134500D01*
X110441500Y-109498134D01*
X110448255Y-109560316D01*
X110499385Y-109696705D01*
X110586739Y-109813261D01*
X110703295Y-109900615D01*
X110839684Y-109951745D01*
X110901866Y-109958500D01*
X113398134Y-109958500D01*
X113460316Y-109951745D01*
X113596705Y-109900615D01*
X113713261Y-109813261D01*
X113800615Y-109696705D01*
X113851745Y-109560316D01*
X113858500Y-109498134D01*
X113858500Y-108205151D01*
X118287296Y-108205151D01*
X118287520Y-108209817D01*
X118287520Y-108209822D01*
X118289889Y-108259141D01*
X118299480Y-108458798D01*
X118349021Y-108707857D01*
X118350600Y-108712255D01*
X118350602Y-108712262D01*
X118395022Y-108835980D01*
X118434831Y-108946858D01*
X118437048Y-108950984D01*
X118546136Y-109154007D01*
X118555025Y-109170551D01*
X118557820Y-109174294D01*
X118557822Y-109174297D01*
X118704171Y-109370282D01*
X118704176Y-109370288D01*
X118706963Y-109374020D01*
X118710272Y-109377300D01*
X118710277Y-109377306D01*
X118883990Y-109549509D01*
X118887307Y-109552797D01*
X118891069Y-109555555D01*
X118891072Y-109555558D01*
X118996764Y-109633054D01*
X119092094Y-109702953D01*
X119096229Y-109705129D01*
X119096233Y-109705131D01*
X119214289Y-109767243D01*
X119316827Y-109821191D01*
X119556568Y-109904912D01*
X119806050Y-109952278D01*
X119926532Y-109957011D01*
X120055125Y-109962064D01*
X120055130Y-109962064D01*
X120059793Y-109962247D01*
X120158774Y-109951407D01*
X120307569Y-109935112D01*
X120307575Y-109935111D01*
X120312222Y-109934602D01*
X120421680Y-109905784D01*
X120553273Y-109871138D01*
X120557793Y-109869948D01*
X120706449Y-109806081D01*
X120786807Y-109771557D01*
X120786810Y-109771555D01*
X120791110Y-109769708D01*
X120795090Y-109767245D01*
X120795094Y-109767243D01*
X121003064Y-109638547D01*
X121003066Y-109638545D01*
X121007047Y-109636082D01*
X121105826Y-109552460D01*
X121197289Y-109475031D01*
X121197291Y-109475029D01*
X121200862Y-109472006D01*
X121368295Y-109281084D01*
X121371238Y-109276510D01*
X121503141Y-109071442D01*
X121505669Y-109067512D01*
X121609967Y-108835980D01*
X121678896Y-108591575D01*
X121695788Y-108458798D01*
X121710545Y-108342798D01*
X121710545Y-108342792D01*
X121710943Y-108339667D01*
X121713291Y-108250000D01*
X121697399Y-108036141D01*
X121694818Y-108001411D01*
X121694817Y-108001407D01*
X121694472Y-107996759D01*
X121638428Y-107749082D01*
X121546391Y-107512409D01*
X121524174Y-107473537D01*
X121422702Y-107295997D01*
X121422700Y-107295995D01*
X121420383Y-107291940D01*
X121263171Y-107092517D01*
X121078209Y-106918523D01*
X121015435Y-106874975D01*
X120873393Y-106776437D01*
X120873390Y-106776435D01*
X120869561Y-106773779D01*
X120865384Y-106771719D01*
X120865377Y-106771715D01*
X120645996Y-106663528D01*
X120645992Y-106663527D01*
X120641810Y-106661464D01*
X120515148Y-106620919D01*
X120515014Y-106620876D01*
X120456234Y-106581058D01*
X120428312Y-106515783D01*
X120440113Y-106445774D01*
X120487891Y-106393259D01*
X120521349Y-106379026D01*
X120553101Y-106370667D01*
X120561926Y-106367628D01*
X120786584Y-106271107D01*
X120794856Y-106266800D01*
X121002777Y-106138135D01*
X121004620Y-106136796D01*
X121012038Y-106125541D01*
X121005974Y-106115184D01*
X120012812Y-105122022D01*
X119998868Y-105114408D01*
X119997035Y-105114539D01*
X119990420Y-105118790D01*
X118998044Y-106111166D01*
X118991386Y-106123359D01*
X119000099Y-106134879D01*
X119088586Y-106199760D01*
X119096505Y-106204708D01*
X119312877Y-106318547D01*
X119321451Y-106322275D01*
X119489608Y-106380998D01*
X119547326Y-106422340D01*
X119573529Y-106488324D01*
X119559900Y-106558000D01*
X119510764Y-106609247D01*
X119483324Y-106620919D01*
X119399993Y-106645208D01*
X119169380Y-106751522D01*
X119165471Y-106754085D01*
X118960928Y-106888189D01*
X118960923Y-106888193D01*
X118957015Y-106890755D01*
X118767562Y-107059848D01*
X118605183Y-107255087D01*
X118473447Y-107472182D01*
X118471638Y-107476496D01*
X118471637Y-107476498D01*
X118456926Y-107511581D01*
X118375246Y-107706365D01*
X118312738Y-107952490D01*
X118287296Y-108205151D01*
X113858500Y-108205151D01*
X113858500Y-107001866D01*
X113851745Y-106939684D01*
X113800615Y-106803295D01*
X113713261Y-106686739D01*
X113596705Y-106599385D01*
X113460316Y-106548255D01*
X113398134Y-106541500D01*
X112919696Y-106541500D01*
X112851575Y-106521498D01*
X112805082Y-106467842D01*
X112794978Y-106397568D01*
X112824472Y-106332988D01*
X112869958Y-106299733D01*
X112936573Y-106271113D01*
X112944856Y-106266800D01*
X113152777Y-106138135D01*
X113154620Y-106136796D01*
X113162038Y-106125541D01*
X113155974Y-106115184D01*
X112162812Y-105122022D01*
X112148868Y-105114408D01*
X112147035Y-105114539D01*
X112140420Y-105118790D01*
X111148044Y-106111166D01*
X111141386Y-106123359D01*
X111150099Y-106134879D01*
X111238586Y-106199760D01*
X111246505Y-106204708D01*
X111333688Y-106250577D01*
X111384661Y-106299996D01*
X111400824Y-106369129D01*
X111377045Y-106436025D01*
X111320874Y-106479445D01*
X111286003Y-106487605D01*
X111246972Y-106491020D01*
X111235990Y-106491500D01*
X82315631Y-106491500D01*
X82247510Y-106471498D01*
X82201017Y-106417842D01*
X82190913Y-106347568D01*
X82212418Y-106293229D01*
X82321016Y-106138135D01*
X82329056Y-106126653D01*
X82331379Y-106121671D01*
X82331382Y-106121666D01*
X82419795Y-105932061D01*
X82422120Y-105927076D01*
X82479115Y-105714371D01*
X82498307Y-105495000D01*
X82479115Y-105275629D01*
X82422120Y-105062924D01*
X82361353Y-104932609D01*
X82331382Y-104868334D01*
X82331379Y-104868329D01*
X82329056Y-104863347D01*
X82256398Y-104759580D01*
X82221566Y-104709835D01*
X110438022Y-104709835D01*
X110449754Y-104954064D01*
X110450891Y-104963324D01*
X110498593Y-105203143D01*
X110501082Y-105212118D01*
X110583708Y-105442250D01*
X110587505Y-105450778D01*
X110703234Y-105666160D01*
X110708245Y-105674027D01*
X110765173Y-105750263D01*
X110776431Y-105758712D01*
X110788850Y-105751940D01*
X111777978Y-104762812D01*
X111784356Y-104751132D01*
X112514408Y-104751132D01*
X112514539Y-104752965D01*
X112518790Y-104759580D01*
X113513732Y-105754522D01*
X113526112Y-105761282D01*
X113534453Y-105755038D01*
X113652700Y-105571202D01*
X113657147Y-105563011D01*
X113757572Y-105340076D01*
X113760767Y-105331298D01*
X113827135Y-105095973D01*
X113828993Y-105086844D01*
X113860044Y-104842770D01*
X113860525Y-104836483D01*
X113862706Y-104753160D01*
X113862555Y-104746851D01*
X113859804Y-104709835D01*
X118288022Y-104709835D01*
X118299754Y-104954064D01*
X118300891Y-104963324D01*
X118348593Y-105203143D01*
X118351082Y-105212118D01*
X118433708Y-105442250D01*
X118437505Y-105450778D01*
X118553234Y-105666160D01*
X118558245Y-105674027D01*
X118615173Y-105750263D01*
X118626431Y-105758712D01*
X118638850Y-105751940D01*
X119627978Y-104762812D01*
X119634356Y-104751132D01*
X120364408Y-104751132D01*
X120364539Y-104752965D01*
X120368790Y-104759580D01*
X121363732Y-105754522D01*
X121376112Y-105761282D01*
X121384453Y-105755038D01*
X121502700Y-105571202D01*
X121507147Y-105563011D01*
X121607572Y-105340076D01*
X121610767Y-105331298D01*
X121677135Y-105095973D01*
X121678993Y-105086844D01*
X121710044Y-104842770D01*
X121710525Y-104836483D01*
X121712706Y-104753160D01*
X121712555Y-104746851D01*
X121694321Y-104501486D01*
X121692944Y-104492280D01*
X121638979Y-104253786D01*
X121636255Y-104244875D01*
X121547633Y-104016983D01*
X121543619Y-104008567D01*
X121422284Y-103796276D01*
X121417074Y-103788553D01*
X121385787Y-103748865D01*
X121373863Y-103740395D01*
X121362328Y-103746882D01*
X120372022Y-104737188D01*
X120364408Y-104751132D01*
X119634356Y-104751132D01*
X119635592Y-104748868D01*
X119635461Y-104747035D01*
X119631210Y-104740420D01*
X118636828Y-103746038D01*
X118623520Y-103738771D01*
X118613481Y-103745893D01*
X118608581Y-103751784D01*
X118603168Y-103759373D01*
X118476322Y-103968409D01*
X118472084Y-103976726D01*
X118377529Y-104202214D01*
X118374572Y-104211052D01*
X118314384Y-104448042D01*
X118312763Y-104457232D01*
X118288267Y-104700510D01*
X118288022Y-104709835D01*
X113859804Y-104709835D01*
X113844321Y-104501486D01*
X113842944Y-104492280D01*
X113788979Y-104253786D01*
X113786255Y-104244875D01*
X113697633Y-104016983D01*
X113693619Y-104008567D01*
X113572284Y-103796276D01*
X113567074Y-103788553D01*
X113535787Y-103748865D01*
X113523863Y-103740395D01*
X113512328Y-103746882D01*
X112522022Y-104737188D01*
X112514408Y-104751132D01*
X111784356Y-104751132D01*
X111785592Y-104748868D01*
X111785461Y-104747035D01*
X111781210Y-104740420D01*
X110786828Y-103746038D01*
X110773520Y-103738771D01*
X110763481Y-103745893D01*
X110758581Y-103751784D01*
X110753168Y-103759373D01*
X110626322Y-103968409D01*
X110622084Y-103976726D01*
X110527529Y-104202214D01*
X110524572Y-104211052D01*
X110464384Y-104448042D01*
X110462763Y-104457232D01*
X110438267Y-104700510D01*
X110438022Y-104709835D01*
X82221566Y-104709835D01*
X82205908Y-104687473D01*
X82205906Y-104687470D01*
X82202749Y-104682962D01*
X82047038Y-104527251D01*
X81866654Y-104400944D01*
X81667076Y-104307880D01*
X81454371Y-104250885D01*
X81235000Y-104231693D01*
X81015629Y-104250885D01*
X80802924Y-104307880D01*
X80709562Y-104351415D01*
X80608334Y-104398618D01*
X80608329Y-104398621D01*
X80603347Y-104400944D01*
X80598840Y-104404100D01*
X80598838Y-104404101D01*
X80427473Y-104524092D01*
X80427470Y-104524094D01*
X80422962Y-104527251D01*
X80267251Y-104682962D01*
X80264094Y-104687470D01*
X80264092Y-104687473D01*
X80213602Y-104759580D01*
X80140944Y-104863347D01*
X80138621Y-104868329D01*
X80138618Y-104868334D01*
X80108647Y-104932609D01*
X80047880Y-105062924D01*
X80032045Y-105122022D01*
X80006062Y-105218989D01*
X79969110Y-105279611D01*
X79905249Y-105310633D01*
X79834755Y-105302204D01*
X79795260Y-105275472D01*
X79528488Y-105008700D01*
X79494462Y-104946388D01*
X79492256Y-104932609D01*
X79483238Y-104845693D01*
X79483237Y-104845689D01*
X79482526Y-104838835D01*
X79464006Y-104783322D01*
X79432027Y-104687473D01*
X79426550Y-104671055D01*
X79333478Y-104520652D01*
X79208303Y-104395695D01*
X79191913Y-104385592D01*
X79063968Y-104306725D01*
X79063966Y-104306724D01*
X79057738Y-104302885D01*
X78961927Y-104271106D01*
X78896389Y-104249368D01*
X78896387Y-104249368D01*
X78889861Y-104247203D01*
X78883025Y-104246503D01*
X78883022Y-104246502D01*
X78839969Y-104242091D01*
X78785400Y-104236500D01*
X78348138Y-104236500D01*
X78338711Y-104235733D01*
X78338682Y-104236124D01*
X78333079Y-104235713D01*
X78327543Y-104234806D01*
X78321930Y-104234894D01*
X78321928Y-104234894D01*
X78220736Y-104236484D01*
X78218757Y-104236500D01*
X77684600Y-104236500D01*
X77681354Y-104236837D01*
X77681350Y-104236837D01*
X77658051Y-104239255D01*
X77647004Y-104240401D01*
X77577183Y-104227536D01*
X77525401Y-104178966D01*
X77508000Y-104115074D01*
X77508000Y-103741824D01*
X77528002Y-103673703D01*
X77581658Y-103627210D01*
X77651932Y-103617106D01*
X77687250Y-103627629D01*
X77798113Y-103679326D01*
X77808405Y-103683072D01*
X78010401Y-103737196D01*
X78021196Y-103739099D01*
X78229525Y-103757326D01*
X78240475Y-103757326D01*
X78448804Y-103739099D01*
X78459599Y-103737196D01*
X78661595Y-103683072D01*
X78671887Y-103679326D01*
X78861416Y-103590947D01*
X78870912Y-103585464D01*
X78912148Y-103556590D01*
X78920523Y-103546113D01*
X78920023Y-103545161D01*
X80549393Y-103545161D01*
X80558687Y-103557175D01*
X80599088Y-103585464D01*
X80608584Y-103590947D01*
X80798113Y-103679326D01*
X80808405Y-103683072D01*
X81010401Y-103737196D01*
X81021196Y-103739099D01*
X81229525Y-103757326D01*
X81240475Y-103757326D01*
X81448804Y-103739099D01*
X81459599Y-103737196D01*
X81661595Y-103683072D01*
X81671887Y-103679326D01*
X81861416Y-103590947D01*
X81870912Y-103585464D01*
X81912148Y-103556590D01*
X81920523Y-103546112D01*
X81913457Y-103532668D01*
X81755706Y-103374917D01*
X111139330Y-103374917D01*
X111143903Y-103384693D01*
X112137188Y-104377978D01*
X112151132Y-104385592D01*
X112152965Y-104385461D01*
X112159580Y-104381210D01*
X113152488Y-103388302D01*
X113158872Y-103376612D01*
X113149460Y-103364502D01*
X113023144Y-103276873D01*
X113015116Y-103272145D01*
X112795810Y-103163995D01*
X112787177Y-103160507D01*
X112664113Y-103121114D01*
X112605333Y-103081296D01*
X112577411Y-103016021D01*
X112589212Y-102946012D01*
X112636990Y-102893497D01*
X112670445Y-102879264D01*
X112703110Y-102870664D01*
X112711926Y-102867628D01*
X112936584Y-102771107D01*
X112944856Y-102766800D01*
X113152777Y-102638135D01*
X113154620Y-102636796D01*
X113162038Y-102625541D01*
X113155974Y-102615184D01*
X112162812Y-101622022D01*
X112148868Y-101614408D01*
X112147035Y-101614539D01*
X112140420Y-101618790D01*
X111148044Y-102611166D01*
X111141386Y-102623359D01*
X111150099Y-102634879D01*
X111238586Y-102699760D01*
X111246505Y-102704708D01*
X111462877Y-102818547D01*
X111471451Y-102822275D01*
X111640422Y-102881282D01*
X111698139Y-102922624D01*
X111724343Y-102988608D01*
X111710714Y-103058284D01*
X111661578Y-103109531D01*
X111634139Y-103121203D01*
X111554668Y-103144367D01*
X111545915Y-103147639D01*
X111323869Y-103250004D01*
X111315714Y-103254524D01*
X111148468Y-103364175D01*
X111139330Y-103374917D01*
X81755706Y-103374917D01*
X81247811Y-102867021D01*
X81233868Y-102859408D01*
X81232034Y-102859539D01*
X81225420Y-102863790D01*
X80555820Y-103533391D01*
X80549393Y-103545161D01*
X78920023Y-103545161D01*
X78913455Y-103532667D01*
X77964884Y-102584095D01*
X77930859Y-102521783D01*
X77932694Y-102496132D01*
X78599408Y-102496132D01*
X78599539Y-102497966D01*
X78603790Y-102504580D01*
X79273391Y-103174180D01*
X79285161Y-103180607D01*
X79297176Y-103171311D01*
X79325466Y-103130907D01*
X79330946Y-103121417D01*
X79419326Y-102931887D01*
X79423072Y-102921595D01*
X79477196Y-102719599D01*
X79479099Y-102708804D01*
X79497326Y-102500475D01*
X79972674Y-102500475D01*
X79990901Y-102708804D01*
X79992804Y-102719599D01*
X80046928Y-102921595D01*
X80050674Y-102931887D01*
X80139054Y-103121417D01*
X80144534Y-103130907D01*
X80173411Y-103172149D01*
X80183887Y-103180523D01*
X80197334Y-103173455D01*
X80862979Y-102507811D01*
X80869356Y-102496132D01*
X81599408Y-102496132D01*
X81599539Y-102497966D01*
X81603790Y-102504580D01*
X82273391Y-103174180D01*
X82285161Y-103180607D01*
X82297176Y-103171311D01*
X82325466Y-103130907D01*
X82330946Y-103121417D01*
X82419326Y-102931887D01*
X82423072Y-102921595D01*
X82477196Y-102719599D01*
X82479099Y-102708804D01*
X82497326Y-102500475D01*
X82497326Y-102489525D01*
X82479099Y-102281196D01*
X82477196Y-102270401D01*
X82423072Y-102068405D01*
X82419326Y-102058113D01*
X82330946Y-101868583D01*
X82325466Y-101859093D01*
X82296589Y-101817851D01*
X82286113Y-101809477D01*
X82272666Y-101816545D01*
X81607021Y-102482189D01*
X81599408Y-102496132D01*
X80869356Y-102496132D01*
X80870592Y-102493868D01*
X80870461Y-102492034D01*
X80866210Y-102485420D01*
X80196609Y-101815820D01*
X80184839Y-101809393D01*
X80172824Y-101818689D01*
X80144534Y-101859093D01*
X80139054Y-101868583D01*
X80050674Y-102058113D01*
X80046928Y-102068405D01*
X79992804Y-102270401D01*
X79990901Y-102281196D01*
X79972674Y-102489525D01*
X79972674Y-102500475D01*
X79497326Y-102500475D01*
X79497326Y-102489525D01*
X79479099Y-102281196D01*
X79477196Y-102270401D01*
X79423072Y-102068405D01*
X79419326Y-102058113D01*
X79330946Y-101868583D01*
X79325466Y-101859093D01*
X79296589Y-101817851D01*
X79286113Y-101809477D01*
X79272666Y-101816545D01*
X78607021Y-102482189D01*
X78599408Y-102496132D01*
X77932694Y-102496132D01*
X77935924Y-102450967D01*
X77964885Y-102405905D01*
X78235000Y-102135790D01*
X78914176Y-101456613D01*
X78920606Y-101444838D01*
X78919870Y-101443887D01*
X80549477Y-101443887D01*
X80556545Y-101457334D01*
X81222189Y-102122979D01*
X81236132Y-102130592D01*
X81237966Y-102130461D01*
X81244580Y-102126210D01*
X81914180Y-101456609D01*
X81920607Y-101444839D01*
X81911313Y-101432825D01*
X81870912Y-101404536D01*
X81861416Y-101399053D01*
X81671887Y-101310674D01*
X81661595Y-101306928D01*
X81459599Y-101252804D01*
X81448804Y-101250901D01*
X81240475Y-101232674D01*
X81229525Y-101232674D01*
X81021196Y-101250901D01*
X81010401Y-101252804D01*
X80808405Y-101306928D01*
X80798113Y-101310674D01*
X80608583Y-101399054D01*
X80599093Y-101404534D01*
X80557851Y-101433411D01*
X80549477Y-101443887D01*
X78919870Y-101443887D01*
X78911310Y-101432824D01*
X78870912Y-101404536D01*
X78861416Y-101399053D01*
X78671887Y-101310674D01*
X78661595Y-101306928D01*
X78459599Y-101252804D01*
X78448804Y-101250901D01*
X78240475Y-101232674D01*
X78229525Y-101232674D01*
X78021196Y-101250901D01*
X78010401Y-101252804D01*
X77808405Y-101306928D01*
X77798113Y-101310674D01*
X77687250Y-101362371D01*
X77617059Y-101373032D01*
X77552246Y-101344052D01*
X77513389Y-101284633D01*
X77508000Y-101248176D01*
X77508000Y-101209835D01*
X110438022Y-101209835D01*
X110449754Y-101454064D01*
X110450891Y-101463324D01*
X110498593Y-101703143D01*
X110501082Y-101712118D01*
X110583708Y-101942250D01*
X110587505Y-101950778D01*
X110703234Y-102166160D01*
X110708245Y-102174027D01*
X110765173Y-102250263D01*
X110776431Y-102258712D01*
X110788850Y-102251940D01*
X111777978Y-101262812D01*
X111784356Y-101251132D01*
X112514408Y-101251132D01*
X112514539Y-101252965D01*
X112518790Y-101259580D01*
X113513732Y-102254522D01*
X113526112Y-102261282D01*
X113534453Y-102255038D01*
X113652700Y-102071202D01*
X113657147Y-102063011D01*
X113757572Y-101840076D01*
X113760767Y-101831298D01*
X113827135Y-101595973D01*
X113828993Y-101586844D01*
X113860044Y-101342770D01*
X113860525Y-101336483D01*
X113862706Y-101253160D01*
X113862555Y-101246851D01*
X113859456Y-101205151D01*
X118287296Y-101205151D01*
X118287520Y-101209817D01*
X118287520Y-101209822D01*
X118290066Y-101262812D01*
X118299480Y-101458798D01*
X118349021Y-101707857D01*
X118350600Y-101712255D01*
X118350602Y-101712262D01*
X118395022Y-101835980D01*
X118434831Y-101946858D01*
X118437048Y-101950984D01*
X118552666Y-102166160D01*
X118555025Y-102170551D01*
X118557820Y-102174294D01*
X118557822Y-102174297D01*
X118704171Y-102370282D01*
X118704176Y-102370288D01*
X118706963Y-102374020D01*
X118710272Y-102377300D01*
X118710277Y-102377306D01*
X118856021Y-102521783D01*
X118887307Y-102552797D01*
X118891069Y-102555555D01*
X118891072Y-102555558D01*
X118929992Y-102584095D01*
X119092094Y-102702953D01*
X119096229Y-102705129D01*
X119096233Y-102705131D01*
X119213447Y-102766800D01*
X119316827Y-102821191D01*
X119426264Y-102859408D01*
X119489594Y-102881524D01*
X119547312Y-102922866D01*
X119573515Y-102988850D01*
X119559886Y-103058526D01*
X119510750Y-103109773D01*
X119483311Y-103121446D01*
X119404655Y-103144371D01*
X119395915Y-103147639D01*
X119173869Y-103250004D01*
X119165714Y-103254524D01*
X118998468Y-103364175D01*
X118989330Y-103374917D01*
X118993903Y-103384693D01*
X119987188Y-104377978D01*
X120001132Y-104385592D01*
X120002965Y-104385461D01*
X120009580Y-104381210D01*
X121002488Y-103388302D01*
X121008872Y-103376612D01*
X120999460Y-103364502D01*
X120873144Y-103276873D01*
X120865116Y-103272145D01*
X120645810Y-103163995D01*
X120637180Y-103160508D01*
X120514999Y-103121397D01*
X120456220Y-103081579D01*
X120428298Y-103016303D01*
X120440100Y-102946294D01*
X120487877Y-102893779D01*
X120521334Y-102879547D01*
X120553270Y-102871139D01*
X120553272Y-102871138D01*
X120557793Y-102869948D01*
X120677433Y-102818547D01*
X120786807Y-102771557D01*
X120786810Y-102771555D01*
X120791110Y-102769708D01*
X120795090Y-102767245D01*
X120795094Y-102767243D01*
X121003064Y-102638547D01*
X121003066Y-102638545D01*
X121007047Y-102636082D01*
X121105428Y-102552797D01*
X121197289Y-102475031D01*
X121197291Y-102475029D01*
X121200862Y-102472006D01*
X121368295Y-102281084D01*
X121382686Y-102258712D01*
X121503141Y-102071442D01*
X121505669Y-102067512D01*
X121609967Y-101835980D01*
X121611288Y-101831298D01*
X121618594Y-101805389D01*
X121678896Y-101591575D01*
X121695974Y-101457334D01*
X121710545Y-101342798D01*
X121710545Y-101342792D01*
X121710943Y-101339667D01*
X121711027Y-101336483D01*
X121712384Y-101284633D01*
X121713291Y-101250000D01*
X121709612Y-101200497D01*
X121694818Y-101001411D01*
X121694817Y-101001407D01*
X121694472Y-100996759D01*
X121683449Y-100948042D01*
X121639459Y-100753639D01*
X121638428Y-100749082D01*
X121611484Y-100679795D01*
X121548084Y-100516762D01*
X121548083Y-100516760D01*
X121546391Y-100512409D01*
X121525866Y-100476498D01*
X121422702Y-100295997D01*
X121422700Y-100295995D01*
X121420383Y-100291940D01*
X121263171Y-100092517D01*
X121179625Y-100013925D01*
X121081610Y-99921722D01*
X121081608Y-99921720D01*
X121078209Y-99918523D01*
X121029443Y-99884693D01*
X120873393Y-99776437D01*
X120873390Y-99776435D01*
X120869561Y-99773779D01*
X120865384Y-99771719D01*
X120865377Y-99771715D01*
X120645996Y-99663528D01*
X120645992Y-99663527D01*
X120641810Y-99661464D01*
X120515901Y-99621160D01*
X120457121Y-99581342D01*
X120429199Y-99516067D01*
X120441000Y-99446058D01*
X120488778Y-99393543D01*
X120522234Y-99379310D01*
X120523929Y-99378864D01*
X120557793Y-99369948D01*
X120764371Y-99281196D01*
X120786807Y-99271557D01*
X120786810Y-99271555D01*
X120791110Y-99269708D01*
X120795090Y-99267245D01*
X120795094Y-99267243D01*
X121003064Y-99138547D01*
X121003066Y-99138545D01*
X121007047Y-99136082D01*
X121086991Y-99068405D01*
X121197289Y-98975031D01*
X121197291Y-98975029D01*
X121200862Y-98972006D01*
X121368295Y-98781084D01*
X121382686Y-98758712D01*
X121503141Y-98571442D01*
X121505669Y-98567512D01*
X121609967Y-98335980D01*
X121611288Y-98331298D01*
X121644859Y-98212262D01*
X121678896Y-98091575D01*
X121710943Y-97839667D01*
X121711027Y-97836483D01*
X121712264Y-97789233D01*
X121713291Y-97750000D01*
X121701504Y-97591381D01*
X121694818Y-97501411D01*
X121694817Y-97501407D01*
X121694472Y-97496759D01*
X121686777Y-97462749D01*
X121639459Y-97253639D01*
X121638428Y-97249082D01*
X121608185Y-97171311D01*
X121548084Y-97016762D01*
X121548083Y-97016760D01*
X121546391Y-97012409D01*
X121525866Y-96976498D01*
X121422702Y-96795997D01*
X121422700Y-96795995D01*
X121420383Y-96791940D01*
X121263171Y-96592517D01*
X121078209Y-96418523D01*
X121029443Y-96384693D01*
X120873393Y-96276437D01*
X120873390Y-96276435D01*
X120869561Y-96273779D01*
X120865384Y-96271719D01*
X120865377Y-96271715D01*
X120645996Y-96163528D01*
X120645992Y-96163527D01*
X120641810Y-96161464D01*
X120515901Y-96121160D01*
X120457121Y-96081342D01*
X120429199Y-96016067D01*
X120441000Y-95946058D01*
X120488778Y-95893543D01*
X120522234Y-95879310D01*
X120523929Y-95878864D01*
X120557793Y-95869948D01*
X120698544Y-95809477D01*
X120786807Y-95771557D01*
X120786810Y-95771555D01*
X120791110Y-95769708D01*
X120795090Y-95767245D01*
X120795094Y-95767243D01*
X121003064Y-95638547D01*
X121003066Y-95638545D01*
X121007047Y-95636082D01*
X121105428Y-95552797D01*
X121197289Y-95475031D01*
X121197291Y-95475029D01*
X121200862Y-95472006D01*
X121368295Y-95281084D01*
X121386486Y-95252804D01*
X121503141Y-95071442D01*
X121505669Y-95067512D01*
X121609967Y-94835980D01*
X121678896Y-94591575D01*
X121710943Y-94339667D01*
X121711696Y-94310935D01*
X121713208Y-94253160D01*
X121713291Y-94250000D01*
X121694472Y-93996759D01*
X121679833Y-93932061D01*
X121639459Y-93753639D01*
X121638428Y-93749082D01*
X121546391Y-93512409D01*
X121539570Y-93500475D01*
X121422702Y-93295997D01*
X121422700Y-93295995D01*
X121420383Y-93291940D01*
X121263171Y-93092517D01*
X121078209Y-92918523D01*
X121034483Y-92888189D01*
X120873393Y-92776437D01*
X120873390Y-92776435D01*
X120869561Y-92773779D01*
X120865384Y-92771719D01*
X120865377Y-92771715D01*
X120645996Y-92663528D01*
X120645992Y-92663527D01*
X120641810Y-92661464D01*
X120515901Y-92621160D01*
X120457121Y-92581342D01*
X120429199Y-92516067D01*
X120441000Y-92446058D01*
X120488778Y-92393543D01*
X120522234Y-92379310D01*
X120523929Y-92378864D01*
X120557793Y-92369948D01*
X120696852Y-92310204D01*
X120786807Y-92271557D01*
X120786810Y-92271555D01*
X120791110Y-92269708D01*
X120795090Y-92267245D01*
X120795094Y-92267243D01*
X121003064Y-92138547D01*
X121003066Y-92138545D01*
X121007047Y-92136082D01*
X121064359Y-92087564D01*
X121197289Y-91975031D01*
X121197291Y-91975029D01*
X121200862Y-91972006D01*
X121368295Y-91781084D01*
X121394983Y-91739594D01*
X121503141Y-91571442D01*
X121505669Y-91567512D01*
X121609967Y-91335980D01*
X121678896Y-91091575D01*
X121699823Y-90927076D01*
X121710545Y-90842798D01*
X121710545Y-90842792D01*
X121710943Y-90839667D01*
X121713291Y-90750000D01*
X121699496Y-90564360D01*
X121694818Y-90501411D01*
X121694817Y-90501407D01*
X121694472Y-90496759D01*
X121693404Y-90492036D01*
X121639459Y-90253639D01*
X121638428Y-90249082D01*
X121636735Y-90244728D01*
X121548084Y-90016762D01*
X121548083Y-90016760D01*
X121546391Y-90012409D01*
X121525866Y-89976498D01*
X121422702Y-89795997D01*
X121422700Y-89795995D01*
X121420383Y-89791940D01*
X121263171Y-89592517D01*
X121179625Y-89513925D01*
X121081610Y-89421722D01*
X121081608Y-89421720D01*
X121078209Y-89418523D01*
X120922068Y-89310204D01*
X120873393Y-89276437D01*
X120873390Y-89276435D01*
X120869561Y-89273779D01*
X120865384Y-89271719D01*
X120865377Y-89271715D01*
X120645996Y-89163528D01*
X120645992Y-89163527D01*
X120641810Y-89161464D01*
X120515901Y-89121160D01*
X120457121Y-89081342D01*
X120429199Y-89016067D01*
X120441000Y-88946058D01*
X120488778Y-88893543D01*
X120522234Y-88879310D01*
X120523929Y-88878864D01*
X120557793Y-88869948D01*
X120676353Y-88819011D01*
X120786807Y-88771557D01*
X120786810Y-88771555D01*
X120791110Y-88769708D01*
X120795090Y-88767245D01*
X120795094Y-88767243D01*
X121003064Y-88638547D01*
X121003066Y-88638545D01*
X121007047Y-88636082D01*
X121016875Y-88627762D01*
X121197289Y-88475031D01*
X121197291Y-88475029D01*
X121200862Y-88472006D01*
X121368295Y-88281084D01*
X121390577Y-88246444D01*
X121503141Y-88071442D01*
X121505669Y-88067512D01*
X121609967Y-87835980D01*
X121678896Y-87591575D01*
X121696382Y-87454126D01*
X121710545Y-87342798D01*
X121710545Y-87342792D01*
X121710943Y-87339667D01*
X121713291Y-87250000D01*
X121708479Y-87185250D01*
X121694818Y-87001411D01*
X121694817Y-87001407D01*
X121694472Y-86996759D01*
X121638428Y-86749082D01*
X121546391Y-86512409D01*
X121525866Y-86476498D01*
X121422702Y-86295997D01*
X121422700Y-86295995D01*
X121420383Y-86291940D01*
X121263171Y-86092517D01*
X121078209Y-85918523D01*
X121034483Y-85888189D01*
X120873393Y-85776437D01*
X120873390Y-85776435D01*
X120869561Y-85773779D01*
X120865384Y-85771719D01*
X120865377Y-85771715D01*
X120645996Y-85663528D01*
X120645992Y-85663527D01*
X120641810Y-85661464D01*
X120515901Y-85621160D01*
X120457121Y-85581342D01*
X120429199Y-85516067D01*
X120441000Y-85446058D01*
X120488778Y-85393543D01*
X120522234Y-85379310D01*
X120523929Y-85378864D01*
X120557793Y-85369948D01*
X120724716Y-85298233D01*
X120786807Y-85271557D01*
X120786810Y-85271555D01*
X120791110Y-85269708D01*
X120795090Y-85267245D01*
X120795094Y-85267243D01*
X121003064Y-85138547D01*
X121003066Y-85138545D01*
X121007047Y-85136082D01*
X121038298Y-85109626D01*
X121197289Y-84975031D01*
X121197291Y-84975029D01*
X121200862Y-84972006D01*
X121368295Y-84781084D01*
X121505669Y-84567512D01*
X121609967Y-84335980D01*
X121678896Y-84091575D01*
X121710943Y-83839667D01*
X121713291Y-83750000D01*
X121694472Y-83496759D01*
X121687899Y-83467707D01*
X121639459Y-83253639D01*
X121638428Y-83249082D01*
X121620138Y-83202050D01*
X121548084Y-83016762D01*
X121548083Y-83016760D01*
X121546391Y-83012409D01*
X121525866Y-82976498D01*
X121422702Y-82795997D01*
X121422700Y-82795995D01*
X121420383Y-82791940D01*
X121263171Y-82592517D01*
X121179625Y-82513925D01*
X121081610Y-82421722D01*
X121081608Y-82421720D01*
X121078209Y-82418523D01*
X120917504Y-82307038D01*
X120873393Y-82276437D01*
X120873390Y-82276435D01*
X120869561Y-82273779D01*
X120865384Y-82271719D01*
X120865377Y-82271715D01*
X120645996Y-82163528D01*
X120645992Y-82163527D01*
X120641810Y-82161464D01*
X120515901Y-82121160D01*
X120457121Y-82081342D01*
X120429199Y-82016067D01*
X120441000Y-81946058D01*
X120488778Y-81893543D01*
X120522234Y-81879310D01*
X120525778Y-81878377D01*
X120557793Y-81869948D01*
X120676353Y-81819011D01*
X120786807Y-81771557D01*
X120786810Y-81771555D01*
X120791110Y-81769708D01*
X120795090Y-81767245D01*
X120795094Y-81767243D01*
X121003064Y-81638547D01*
X121003066Y-81638545D01*
X121007047Y-81636082D01*
X121105428Y-81552797D01*
X121197289Y-81475031D01*
X121197291Y-81475029D01*
X121200862Y-81472006D01*
X121368295Y-81281084D01*
X121388038Y-81250391D01*
X121495817Y-81082829D01*
X121505669Y-81067512D01*
X121609967Y-80835980D01*
X121678896Y-80591575D01*
X121703148Y-80400944D01*
X121710545Y-80342798D01*
X121710545Y-80342792D01*
X121710943Y-80339667D01*
X121713291Y-80250000D01*
X121698702Y-80053677D01*
X121694818Y-80001411D01*
X121694817Y-80001407D01*
X121694472Y-79996759D01*
X121690044Y-79977187D01*
X121639459Y-79753639D01*
X121638428Y-79749082D01*
X121612388Y-79682120D01*
X121548084Y-79516762D01*
X121548083Y-79516760D01*
X121546391Y-79512409D01*
X121525866Y-79476498D01*
X121422702Y-79295997D01*
X121422700Y-79295995D01*
X121420383Y-79291940D01*
X121263171Y-79092517D01*
X121125842Y-78963331D01*
X121081610Y-78921722D01*
X121081608Y-78921720D01*
X121078209Y-78918523D01*
X121020339Y-78878377D01*
X120873393Y-78776437D01*
X120873390Y-78776435D01*
X120869561Y-78773779D01*
X120865384Y-78771719D01*
X120865377Y-78771715D01*
X120645996Y-78663528D01*
X120645992Y-78663527D01*
X120641810Y-78661464D01*
X120515901Y-78621160D01*
X120457121Y-78581342D01*
X120429199Y-78516067D01*
X120441000Y-78446058D01*
X120488778Y-78393543D01*
X120522234Y-78379310D01*
X120541031Y-78374361D01*
X120557793Y-78369948D01*
X120676353Y-78319011D01*
X120786807Y-78271557D01*
X120786810Y-78271555D01*
X120791110Y-78269708D01*
X120795090Y-78267245D01*
X120795094Y-78267243D01*
X121003064Y-78138547D01*
X121003066Y-78138545D01*
X121007047Y-78136082D01*
X121102967Y-78054880D01*
X121197289Y-77975031D01*
X121197291Y-77975029D01*
X121200862Y-77972006D01*
X121368295Y-77781084D01*
X121505669Y-77567512D01*
X121609967Y-77335980D01*
X121678896Y-77091575D01*
X121710943Y-76839667D01*
X121711158Y-76831486D01*
X121713208Y-76753160D01*
X121713291Y-76750000D01*
X121694472Y-76496759D01*
X121689399Y-76474337D01*
X121639459Y-76253639D01*
X121638428Y-76249082D01*
X121613115Y-76183990D01*
X121548084Y-76016762D01*
X121548083Y-76016760D01*
X121546391Y-76012409D01*
X121525866Y-75976498D01*
X121422702Y-75795997D01*
X121422700Y-75795995D01*
X121420383Y-75791940D01*
X121263171Y-75592517D01*
X121153687Y-75489525D01*
X121081610Y-75421722D01*
X121081608Y-75421720D01*
X121078209Y-75418523D01*
X121006082Y-75368487D01*
X120873393Y-75276437D01*
X120873390Y-75276435D01*
X120869561Y-75273779D01*
X120865384Y-75271719D01*
X120865377Y-75271715D01*
X120645996Y-75163528D01*
X120645992Y-75163527D01*
X120641810Y-75161464D01*
X120515901Y-75121160D01*
X120457121Y-75081342D01*
X120429199Y-75016067D01*
X120441000Y-74946058D01*
X120488778Y-74893543D01*
X120522234Y-74879310D01*
X120535383Y-74875848D01*
X120557793Y-74869948D01*
X120676353Y-74819011D01*
X120786807Y-74771557D01*
X120786810Y-74771555D01*
X120791110Y-74769708D01*
X120795090Y-74767245D01*
X120795094Y-74767243D01*
X121003064Y-74638547D01*
X121003066Y-74638545D01*
X121007047Y-74636082D01*
X121105428Y-74552797D01*
X121197289Y-74475031D01*
X121197291Y-74475029D01*
X121200862Y-74472006D01*
X121368295Y-74281084D01*
X121505669Y-74067512D01*
X121609967Y-73835980D01*
X121678896Y-73591575D01*
X121703850Y-73395424D01*
X121710545Y-73342798D01*
X121710545Y-73342792D01*
X121710943Y-73339667D01*
X121711798Y-73307038D01*
X121713208Y-73253160D01*
X121713291Y-73250000D01*
X121701664Y-73093537D01*
X121694818Y-73001411D01*
X121694817Y-73001407D01*
X121694472Y-72996759D01*
X121679833Y-72932061D01*
X121639459Y-72753639D01*
X121638428Y-72749082D01*
X121619182Y-72699591D01*
X121548084Y-72516762D01*
X121548083Y-72516760D01*
X121546391Y-72512409D01*
X121525866Y-72476498D01*
X121422702Y-72295997D01*
X121422700Y-72295995D01*
X121420383Y-72291940D01*
X121263171Y-72092517D01*
X121078209Y-71918523D01*
X120992173Y-71858838D01*
X120873393Y-71776437D01*
X120873390Y-71776435D01*
X120869561Y-71773779D01*
X120824429Y-71751522D01*
X120714896Y-71697506D01*
X120662647Y-71649437D01*
X120644681Y-71580752D01*
X120666700Y-71513256D01*
X120721716Y-71468380D01*
X120770625Y-71458500D01*
X121248134Y-71458500D01*
X121310316Y-71451745D01*
X121446705Y-71400615D01*
X121563261Y-71313261D01*
X121650615Y-71196705D01*
X121701745Y-71060316D01*
X121708500Y-70998134D01*
X121708500Y-68501866D01*
X121701745Y-68439684D01*
X121650615Y-68303295D01*
X121563261Y-68186739D01*
X121446705Y-68099385D01*
X121310316Y-68048255D01*
X121248134Y-68041500D01*
X118751866Y-68041500D01*
X118689684Y-68048255D01*
X118553295Y-68099385D01*
X118436739Y-68186739D01*
X118349385Y-68303295D01*
X118298255Y-68439684D01*
X118291500Y-68501866D01*
X118291500Y-70998134D01*
X118298255Y-71060316D01*
X118349385Y-71196705D01*
X118436739Y-71313261D01*
X118553295Y-71400615D01*
X118689684Y-71451745D01*
X118751866Y-71458500D01*
X119230719Y-71458500D01*
X119298840Y-71478502D01*
X119345333Y-71532158D01*
X119355437Y-71602432D01*
X119325943Y-71667012D01*
X119283471Y-71698926D01*
X119169380Y-71751522D01*
X119165471Y-71754085D01*
X118960928Y-71888189D01*
X118960923Y-71888193D01*
X118957015Y-71890755D01*
X118767562Y-72059848D01*
X118605183Y-72255087D01*
X118473447Y-72472182D01*
X118471638Y-72476496D01*
X118471637Y-72476498D01*
X118378087Y-72699591D01*
X118375246Y-72706365D01*
X118374095Y-72710897D01*
X118374094Y-72710900D01*
X118371865Y-72719676D01*
X118312738Y-72952490D01*
X118287296Y-73205151D01*
X118287520Y-73209817D01*
X118287520Y-73209822D01*
X118292190Y-73307038D01*
X118299480Y-73458798D01*
X118312110Y-73522294D01*
X118344185Y-73683543D01*
X118349021Y-73707857D01*
X118350600Y-73712255D01*
X118350602Y-73712262D01*
X118393408Y-73831486D01*
X118434831Y-73946858D01*
X118555025Y-74170551D01*
X118557820Y-74174294D01*
X118557822Y-74174297D01*
X118704171Y-74370282D01*
X118704176Y-74370288D01*
X118706963Y-74374020D01*
X118710272Y-74377300D01*
X118710277Y-74377306D01*
X118808859Y-74475031D01*
X118887307Y-74552797D01*
X118891069Y-74555555D01*
X118891072Y-74555558D01*
X118996764Y-74633054D01*
X119092094Y-74702953D01*
X119096229Y-74705129D01*
X119096233Y-74705131D01*
X119214289Y-74767243D01*
X119316827Y-74821191D01*
X119488781Y-74881240D01*
X119546497Y-74922581D01*
X119572701Y-74988565D01*
X119559072Y-75058241D01*
X119509936Y-75109487D01*
X119482497Y-75121160D01*
X119399993Y-75145208D01*
X119169380Y-75251522D01*
X119165471Y-75254085D01*
X118960928Y-75388189D01*
X118960923Y-75388193D01*
X118957015Y-75390755D01*
X118767562Y-75559848D01*
X118605183Y-75755087D01*
X118473447Y-75972182D01*
X118471638Y-75976496D01*
X118471637Y-75976498D01*
X118384629Y-76183990D01*
X118375246Y-76206365D01*
X118312738Y-76452490D01*
X118287296Y-76705151D01*
X118299480Y-76958798D01*
X118349021Y-77207857D01*
X118350600Y-77212255D01*
X118350602Y-77212262D01*
X118395022Y-77335980D01*
X118434831Y-77446858D01*
X118555025Y-77670551D01*
X118557820Y-77674294D01*
X118557822Y-77674297D01*
X118704171Y-77870282D01*
X118704176Y-77870288D01*
X118706963Y-77874020D01*
X118710272Y-77877300D01*
X118710277Y-77877306D01*
X118808859Y-77975031D01*
X118887307Y-78052797D01*
X118891069Y-78055555D01*
X118891072Y-78055558D01*
X118928265Y-78082829D01*
X119092094Y-78202953D01*
X119096229Y-78205129D01*
X119096233Y-78205131D01*
X119214289Y-78267243D01*
X119316827Y-78321191D01*
X119488781Y-78381240D01*
X119546497Y-78422581D01*
X119572701Y-78488565D01*
X119559072Y-78558241D01*
X119509936Y-78609487D01*
X119482497Y-78621160D01*
X119399993Y-78645208D01*
X119169380Y-78751522D01*
X119165471Y-78754085D01*
X118960928Y-78888189D01*
X118960923Y-78888193D01*
X118957015Y-78890755D01*
X118767562Y-79059848D01*
X118605183Y-79255087D01*
X118473447Y-79472182D01*
X118471638Y-79476496D01*
X118471637Y-79476498D01*
X118385413Y-79682120D01*
X118375246Y-79706365D01*
X118374095Y-79710897D01*
X118374094Y-79710900D01*
X118366807Y-79739594D01*
X118312738Y-79952490D01*
X118287296Y-80205151D01*
X118287520Y-80209817D01*
X118287520Y-80209822D01*
X118289493Y-80250885D01*
X118299480Y-80458798D01*
X118349021Y-80707857D01*
X118350600Y-80712255D01*
X118350602Y-80712262D01*
X118395022Y-80835980D01*
X118434831Y-80946858D01*
X118437048Y-80950984D01*
X118539483Y-81141625D01*
X118555025Y-81170551D01*
X118557820Y-81174294D01*
X118557822Y-81174297D01*
X118704171Y-81370282D01*
X118704176Y-81370288D01*
X118706963Y-81374020D01*
X118710272Y-81377300D01*
X118710277Y-81377306D01*
X118857753Y-81523500D01*
X118887307Y-81552797D01*
X118891069Y-81555555D01*
X118891072Y-81555558D01*
X119051989Y-81673547D01*
X119092094Y-81702953D01*
X119096229Y-81705129D01*
X119096233Y-81705131D01*
X119214289Y-81767243D01*
X119316827Y-81821191D01*
X119488781Y-81881240D01*
X119546497Y-81922581D01*
X119572701Y-81988565D01*
X119559072Y-82058241D01*
X119509936Y-82109487D01*
X119482498Y-82121160D01*
X119463685Y-82126644D01*
X119399993Y-82145208D01*
X119169380Y-82251522D01*
X119165471Y-82254085D01*
X118960928Y-82388189D01*
X118960923Y-82388193D01*
X118957015Y-82390755D01*
X118767562Y-82559848D01*
X118605183Y-82755087D01*
X118473447Y-82972182D01*
X118471638Y-82976496D01*
X118471637Y-82976498D01*
X118438134Y-83056395D01*
X118375246Y-83206365D01*
X118312738Y-83452490D01*
X118287296Y-83705151D01*
X118299480Y-83958798D01*
X118300393Y-83963386D01*
X118335847Y-84141625D01*
X118349021Y-84207857D01*
X118350600Y-84212255D01*
X118350602Y-84212262D01*
X118395022Y-84335980D01*
X118434831Y-84446858D01*
X118437048Y-84450984D01*
X118460699Y-84495000D01*
X118555025Y-84670551D01*
X118557820Y-84674294D01*
X118557822Y-84674297D01*
X118704171Y-84870282D01*
X118704176Y-84870288D01*
X118706963Y-84874020D01*
X118710272Y-84877300D01*
X118710277Y-84877306D01*
X118883990Y-85049509D01*
X118887307Y-85052797D01*
X118891069Y-85055555D01*
X118891072Y-85055558D01*
X119064805Y-85182944D01*
X119092094Y-85202953D01*
X119096229Y-85205129D01*
X119096233Y-85205131D01*
X119124278Y-85219886D01*
X119316827Y-85321191D01*
X119488781Y-85381240D01*
X119546497Y-85422581D01*
X119572701Y-85488565D01*
X119559072Y-85558241D01*
X119509936Y-85609487D01*
X119482497Y-85621160D01*
X119399993Y-85645208D01*
X119169380Y-85751522D01*
X119165471Y-85754085D01*
X118960928Y-85888189D01*
X118960923Y-85888193D01*
X118957015Y-85890755D01*
X118872329Y-85966340D01*
X118771431Y-86056395D01*
X118767562Y-86059848D01*
X118605183Y-86255087D01*
X118473447Y-86472182D01*
X118375246Y-86706365D01*
X118312738Y-86952490D01*
X118287296Y-87205151D01*
X118287520Y-87209817D01*
X118287520Y-87209822D01*
X118293033Y-87324579D01*
X118299480Y-87458798D01*
X118349021Y-87707857D01*
X118350600Y-87712255D01*
X118350602Y-87712262D01*
X118395022Y-87835980D01*
X118434831Y-87946858D01*
X118437048Y-87950984D01*
X118535033Y-88133343D01*
X118555025Y-88170551D01*
X118557820Y-88174294D01*
X118557822Y-88174297D01*
X118704171Y-88370282D01*
X118704176Y-88370288D01*
X118706963Y-88374020D01*
X118710272Y-88377300D01*
X118710277Y-88377306D01*
X118883990Y-88549509D01*
X118887307Y-88552797D01*
X118891069Y-88555555D01*
X118891072Y-88555558D01*
X119052955Y-88674255D01*
X119092094Y-88702953D01*
X119096229Y-88705129D01*
X119096233Y-88705131D01*
X119196394Y-88757828D01*
X119316827Y-88821191D01*
X119488781Y-88881240D01*
X119546497Y-88922581D01*
X119572701Y-88988565D01*
X119559072Y-89058241D01*
X119509936Y-89109487D01*
X119482497Y-89121160D01*
X119399993Y-89145208D01*
X119169380Y-89251522D01*
X119165471Y-89254085D01*
X118960928Y-89388189D01*
X118960923Y-89388193D01*
X118957015Y-89390755D01*
X118767562Y-89559848D01*
X118605183Y-89755087D01*
X118473447Y-89972182D01*
X118471638Y-89976496D01*
X118471637Y-89976498D01*
X118379567Y-90196061D01*
X118375246Y-90206365D01*
X118312738Y-90452490D01*
X118287296Y-90705151D01*
X118287520Y-90709817D01*
X118287520Y-90709822D01*
X118287994Y-90719681D01*
X118299480Y-90958798D01*
X118314914Y-91036388D01*
X118344274Y-91183990D01*
X118349021Y-91207857D01*
X118350600Y-91212255D01*
X118350602Y-91212262D01*
X118395022Y-91335980D01*
X118434831Y-91446858D01*
X118555025Y-91670551D01*
X118557820Y-91674294D01*
X118557822Y-91674297D01*
X118704171Y-91870282D01*
X118704176Y-91870288D01*
X118706963Y-91874020D01*
X118710272Y-91877300D01*
X118710277Y-91877306D01*
X118808859Y-91975031D01*
X118887307Y-92052797D01*
X118891069Y-92055555D01*
X118891072Y-92055558D01*
X118947160Y-92096683D01*
X119092094Y-92202953D01*
X119096229Y-92205129D01*
X119096233Y-92205131D01*
X119185900Y-92252307D01*
X119316827Y-92321191D01*
X119488781Y-92381240D01*
X119546497Y-92422581D01*
X119572701Y-92488565D01*
X119559072Y-92558241D01*
X119509936Y-92609487D01*
X119482497Y-92621160D01*
X119399993Y-92645208D01*
X119169380Y-92751522D01*
X119165471Y-92754085D01*
X118960928Y-92888189D01*
X118960923Y-92888193D01*
X118957015Y-92890755D01*
X118767562Y-93059848D01*
X118605183Y-93255087D01*
X118473447Y-93472182D01*
X118471638Y-93476496D01*
X118471637Y-93476498D01*
X118384851Y-93683460D01*
X118375246Y-93706365D01*
X118374095Y-93710897D01*
X118374094Y-93710900D01*
X118371865Y-93719676D01*
X118312738Y-93952490D01*
X118287296Y-94205151D01*
X118299480Y-94458798D01*
X118312110Y-94522294D01*
X118344185Y-94683543D01*
X118349021Y-94707857D01*
X118350600Y-94712255D01*
X118350602Y-94712262D01*
X118395022Y-94835980D01*
X118434831Y-94946858D01*
X118555025Y-95170551D01*
X118557820Y-95174294D01*
X118557822Y-95174297D01*
X118704171Y-95370282D01*
X118704176Y-95370288D01*
X118706963Y-95374020D01*
X118710272Y-95377300D01*
X118710277Y-95377306D01*
X118808859Y-95475031D01*
X118887307Y-95552797D01*
X118891069Y-95555555D01*
X118891072Y-95555558D01*
X118996764Y-95633054D01*
X119092094Y-95702953D01*
X119096229Y-95705129D01*
X119096233Y-95705131D01*
X119214289Y-95767243D01*
X119316827Y-95821191D01*
X119488781Y-95881240D01*
X119546497Y-95922581D01*
X119572701Y-95988565D01*
X119559072Y-96058241D01*
X119509936Y-96109487D01*
X119482497Y-96121160D01*
X119399993Y-96145208D01*
X119395740Y-96147168D01*
X119395739Y-96147169D01*
X119367818Y-96160041D01*
X119169380Y-96251522D01*
X119165471Y-96254085D01*
X118960928Y-96388189D01*
X118960923Y-96388193D01*
X118957015Y-96390755D01*
X118767562Y-96559848D01*
X118605183Y-96755087D01*
X118473447Y-96972182D01*
X118471638Y-96976496D01*
X118471637Y-96976498D01*
X118410868Y-97121417D01*
X118375246Y-97206365D01*
X118374095Y-97210897D01*
X118374094Y-97210900D01*
X118343017Y-97333267D01*
X118312738Y-97452490D01*
X118287296Y-97705151D01*
X118287520Y-97709817D01*
X118287520Y-97709822D01*
X118290066Y-97762812D01*
X118299480Y-97958798D01*
X118349021Y-98207857D01*
X118350600Y-98212255D01*
X118350602Y-98212262D01*
X118395022Y-98335980D01*
X118434831Y-98446858D01*
X118437048Y-98450984D01*
X118552666Y-98666160D01*
X118555025Y-98670551D01*
X118557820Y-98674294D01*
X118557822Y-98674297D01*
X118704171Y-98870282D01*
X118704176Y-98870288D01*
X118706963Y-98874020D01*
X118710272Y-98877300D01*
X118710277Y-98877306D01*
X118808859Y-98975031D01*
X118887307Y-99052797D01*
X118891069Y-99055555D01*
X118891072Y-99055558D01*
X118966912Y-99111166D01*
X119092094Y-99202953D01*
X119096229Y-99205129D01*
X119096233Y-99205131D01*
X119213447Y-99266800D01*
X119316827Y-99321191D01*
X119488781Y-99381240D01*
X119546497Y-99422581D01*
X119572701Y-99488565D01*
X119559072Y-99558241D01*
X119509936Y-99609487D01*
X119482498Y-99621160D01*
X119463685Y-99626644D01*
X119399993Y-99645208D01*
X119395740Y-99647168D01*
X119395739Y-99647169D01*
X119367818Y-99660041D01*
X119169380Y-99751522D01*
X119165471Y-99754085D01*
X118960928Y-99888189D01*
X118960923Y-99888193D01*
X118957015Y-99890755D01*
X118767562Y-100059848D01*
X118605183Y-100255087D01*
X118473447Y-100472182D01*
X118471638Y-100476496D01*
X118471637Y-100476498D01*
X118385014Y-100683072D01*
X118375246Y-100706365D01*
X118374095Y-100710897D01*
X118374094Y-100710900D01*
X118362176Y-100757828D01*
X118312738Y-100952490D01*
X118287296Y-101205151D01*
X113859456Y-101205151D01*
X113844321Y-101001486D01*
X113842944Y-100992280D01*
X113788979Y-100753786D01*
X113786255Y-100744875D01*
X113697633Y-100516983D01*
X113693619Y-100508567D01*
X113572284Y-100296276D01*
X113567074Y-100288553D01*
X113535787Y-100248865D01*
X113523863Y-100240395D01*
X113512328Y-100246882D01*
X112522022Y-101237188D01*
X112514408Y-101251132D01*
X111784356Y-101251132D01*
X111785592Y-101248868D01*
X111785461Y-101247035D01*
X111781210Y-101240420D01*
X110786828Y-100246038D01*
X110773520Y-100238771D01*
X110763481Y-100245893D01*
X110758581Y-100251784D01*
X110753168Y-100259373D01*
X110626322Y-100468409D01*
X110622084Y-100476726D01*
X110527529Y-100702214D01*
X110524572Y-100711052D01*
X110464384Y-100948042D01*
X110462763Y-100957232D01*
X110438267Y-101200510D01*
X110438022Y-101209835D01*
X77508000Y-101209835D01*
X77508000Y-100741824D01*
X77528002Y-100673703D01*
X77581658Y-100627210D01*
X77651932Y-100617106D01*
X77687250Y-100627629D01*
X77798113Y-100679326D01*
X77808405Y-100683072D01*
X78010401Y-100737196D01*
X78021196Y-100739099D01*
X78229525Y-100757326D01*
X78240475Y-100757326D01*
X78448804Y-100739099D01*
X78459599Y-100737196D01*
X78661595Y-100683072D01*
X78671887Y-100679326D01*
X78861416Y-100590947D01*
X78870912Y-100585464D01*
X78912148Y-100556590D01*
X78920523Y-100546113D01*
X78913455Y-100532667D01*
X77964884Y-99584095D01*
X77930859Y-99521783D01*
X77932694Y-99496132D01*
X78599408Y-99496132D01*
X78599539Y-99497966D01*
X78603790Y-99504580D01*
X79273391Y-100174180D01*
X79285161Y-100180607D01*
X79297176Y-100171311D01*
X79325466Y-100130907D01*
X79330946Y-100121417D01*
X79419326Y-99931887D01*
X79423072Y-99921595D01*
X79477196Y-99719599D01*
X79479099Y-99708804D01*
X79497326Y-99500475D01*
X79497326Y-99495000D01*
X79971693Y-99495000D01*
X79990885Y-99714371D01*
X80047880Y-99927076D01*
X80050205Y-99932061D01*
X80138618Y-100121666D01*
X80138621Y-100121671D01*
X80140944Y-100126653D01*
X80144100Y-100131160D01*
X80144101Y-100131162D01*
X80254308Y-100288553D01*
X80267251Y-100307038D01*
X80422962Y-100462749D01*
X80427471Y-100465906D01*
X80427473Y-100465908D01*
X80442597Y-100476498D01*
X80603346Y-100589056D01*
X80802924Y-100682120D01*
X81015629Y-100739115D01*
X81235000Y-100758307D01*
X81454371Y-100739115D01*
X81667076Y-100682120D01*
X81866654Y-100589056D01*
X82027403Y-100476498D01*
X82042527Y-100465908D01*
X82042529Y-100465906D01*
X82047038Y-100462749D01*
X82202749Y-100307038D01*
X82215693Y-100288553D01*
X82325899Y-100131162D01*
X82325900Y-100131160D01*
X82329056Y-100126653D01*
X82331379Y-100121671D01*
X82331382Y-100121666D01*
X82419795Y-99932061D01*
X82422120Y-99927076D01*
X82436096Y-99874917D01*
X111139330Y-99874917D01*
X111143903Y-99884693D01*
X112137188Y-100877978D01*
X112151132Y-100885592D01*
X112152965Y-100885461D01*
X112159580Y-100881210D01*
X113152488Y-99888302D01*
X113158872Y-99876612D01*
X113149460Y-99864502D01*
X113023144Y-99776873D01*
X113015116Y-99772145D01*
X112795810Y-99663995D01*
X112787177Y-99660507D01*
X112664113Y-99621114D01*
X112605333Y-99581296D01*
X112577411Y-99516021D01*
X112589212Y-99446012D01*
X112636990Y-99393497D01*
X112670445Y-99379264D01*
X112703110Y-99370664D01*
X112711926Y-99367628D01*
X112936584Y-99271107D01*
X112944856Y-99266800D01*
X113152777Y-99138135D01*
X113154620Y-99136796D01*
X113162038Y-99125541D01*
X113155974Y-99115184D01*
X112162812Y-98122022D01*
X112148868Y-98114408D01*
X112147035Y-98114539D01*
X112140420Y-98118790D01*
X111148044Y-99111166D01*
X111141386Y-99123359D01*
X111150099Y-99134879D01*
X111238586Y-99199760D01*
X111246505Y-99204708D01*
X111462877Y-99318547D01*
X111471451Y-99322275D01*
X111640422Y-99381282D01*
X111698139Y-99422624D01*
X111724343Y-99488608D01*
X111710714Y-99558284D01*
X111661578Y-99609531D01*
X111634139Y-99621203D01*
X111554668Y-99644367D01*
X111545915Y-99647639D01*
X111323869Y-99750004D01*
X111315714Y-99754524D01*
X111148468Y-99864175D01*
X111139330Y-99874917D01*
X82436096Y-99874917D01*
X82479115Y-99714371D01*
X82498307Y-99495000D01*
X82479115Y-99275629D01*
X82422120Y-99062924D01*
X82378084Y-98968488D01*
X82331382Y-98868334D01*
X82331379Y-98868329D01*
X82329056Y-98863347D01*
X82325899Y-98858838D01*
X82205908Y-98687473D01*
X82205906Y-98687470D01*
X82202749Y-98682962D01*
X82047038Y-98527251D01*
X81866654Y-98400944D01*
X81667076Y-98307880D01*
X81454371Y-98250885D01*
X81235000Y-98231693D01*
X81015629Y-98250885D01*
X80802924Y-98307880D01*
X80725353Y-98344052D01*
X80608334Y-98398618D01*
X80608329Y-98398621D01*
X80603347Y-98400944D01*
X80598840Y-98404100D01*
X80598838Y-98404101D01*
X80427473Y-98524092D01*
X80427470Y-98524094D01*
X80422962Y-98527251D01*
X80267251Y-98682962D01*
X80264094Y-98687470D01*
X80264092Y-98687473D01*
X80144101Y-98858838D01*
X80140944Y-98863347D01*
X80138621Y-98868329D01*
X80138618Y-98868334D01*
X80091916Y-98968488D01*
X80047880Y-99062924D01*
X79990885Y-99275629D01*
X79971693Y-99495000D01*
X79497326Y-99495000D01*
X79497326Y-99489525D01*
X79479099Y-99281196D01*
X79477196Y-99270401D01*
X79423072Y-99068405D01*
X79419326Y-99058113D01*
X79330946Y-98868583D01*
X79325466Y-98859093D01*
X79296589Y-98817851D01*
X79286113Y-98809477D01*
X79272666Y-98816545D01*
X78607021Y-99482189D01*
X78599408Y-99496132D01*
X77932694Y-99496132D01*
X77935924Y-99450967D01*
X77964885Y-99405905D01*
X78235000Y-99135790D01*
X78914176Y-98456613D01*
X78920606Y-98444838D01*
X78911310Y-98432824D01*
X78870912Y-98404536D01*
X78861416Y-98399053D01*
X78671887Y-98310674D01*
X78661595Y-98306928D01*
X78459599Y-98252804D01*
X78448804Y-98250901D01*
X78240475Y-98232674D01*
X78229525Y-98232674D01*
X78021196Y-98250901D01*
X78010401Y-98252804D01*
X77808405Y-98306928D01*
X77798113Y-98310674D01*
X77687250Y-98362371D01*
X77617059Y-98373032D01*
X77552246Y-98344052D01*
X77513389Y-98284633D01*
X77508000Y-98248176D01*
X77508000Y-97741824D01*
X77528002Y-97673703D01*
X77581658Y-97627210D01*
X77651932Y-97617106D01*
X77687250Y-97627629D01*
X77798113Y-97679326D01*
X77808405Y-97683072D01*
X78010401Y-97737196D01*
X78021196Y-97739099D01*
X78229525Y-97757326D01*
X78240475Y-97757326D01*
X78448804Y-97739099D01*
X78459599Y-97737196D01*
X78661595Y-97683072D01*
X78671887Y-97679326D01*
X78861416Y-97590947D01*
X78870912Y-97585464D01*
X78912148Y-97556590D01*
X78920523Y-97546113D01*
X78913455Y-97532667D01*
X77964884Y-96584095D01*
X77930859Y-96521783D01*
X77932694Y-96496132D01*
X78599408Y-96496132D01*
X78599539Y-96497966D01*
X78603790Y-96504580D01*
X79273391Y-97174180D01*
X79285161Y-97180607D01*
X79297176Y-97171311D01*
X79325466Y-97130907D01*
X79330946Y-97121417D01*
X79419326Y-96931887D01*
X79423072Y-96921595D01*
X79477196Y-96719599D01*
X79479099Y-96708804D01*
X79497326Y-96500475D01*
X79497326Y-96495000D01*
X79971693Y-96495000D01*
X79990885Y-96714371D01*
X80047880Y-96927076D01*
X80050205Y-96932061D01*
X80138618Y-97121666D01*
X80138621Y-97121671D01*
X80140944Y-97126653D01*
X80144100Y-97131160D01*
X80144101Y-97131162D01*
X80229964Y-97253786D01*
X80267251Y-97307038D01*
X80422962Y-97462749D01*
X80603346Y-97589056D01*
X80802924Y-97682120D01*
X81015629Y-97739115D01*
X81235000Y-97758307D01*
X81454371Y-97739115D01*
X81563644Y-97709835D01*
X110438022Y-97709835D01*
X110449754Y-97954064D01*
X110450891Y-97963324D01*
X110498593Y-98203143D01*
X110501082Y-98212118D01*
X110583708Y-98442250D01*
X110587505Y-98450778D01*
X110703234Y-98666160D01*
X110708245Y-98674027D01*
X110765173Y-98750263D01*
X110776431Y-98758712D01*
X110788850Y-98751940D01*
X111777978Y-97762812D01*
X111784356Y-97751132D01*
X112514408Y-97751132D01*
X112514539Y-97752965D01*
X112518790Y-97759580D01*
X113513732Y-98754522D01*
X113526112Y-98761282D01*
X113534453Y-98755038D01*
X113652700Y-98571202D01*
X113657147Y-98563011D01*
X113757572Y-98340076D01*
X113760767Y-98331298D01*
X113827135Y-98095973D01*
X113828993Y-98086844D01*
X113860044Y-97842770D01*
X113860525Y-97836483D01*
X113862706Y-97753160D01*
X113862555Y-97746851D01*
X113844321Y-97501486D01*
X113842944Y-97492280D01*
X113788979Y-97253786D01*
X113786255Y-97244875D01*
X113697633Y-97016983D01*
X113693619Y-97008567D01*
X113572284Y-96796276D01*
X113567074Y-96788553D01*
X113535787Y-96748865D01*
X113523863Y-96740395D01*
X113512328Y-96746882D01*
X112522022Y-97737188D01*
X112514408Y-97751132D01*
X111784356Y-97751132D01*
X111785592Y-97748868D01*
X111785461Y-97747035D01*
X111781210Y-97740420D01*
X110786828Y-96746038D01*
X110773520Y-96738771D01*
X110763481Y-96745893D01*
X110758581Y-96751784D01*
X110753168Y-96759373D01*
X110626322Y-96968409D01*
X110622084Y-96976726D01*
X110527529Y-97202214D01*
X110524572Y-97211052D01*
X110464384Y-97448042D01*
X110462763Y-97457232D01*
X110438267Y-97700510D01*
X110438022Y-97709835D01*
X81563644Y-97709835D01*
X81667076Y-97682120D01*
X81866654Y-97589056D01*
X82047038Y-97462749D01*
X82202749Y-97307038D01*
X82240037Y-97253786D01*
X82325899Y-97131162D01*
X82325900Y-97131160D01*
X82329056Y-97126653D01*
X82331379Y-97121671D01*
X82331382Y-97121666D01*
X82419795Y-96932061D01*
X82422120Y-96927076D01*
X82479115Y-96714371D01*
X82498307Y-96495000D01*
X82479115Y-96275629D01*
X82422120Y-96062924D01*
X82343137Y-95893543D01*
X82331382Y-95868334D01*
X82331379Y-95868329D01*
X82329056Y-95863347D01*
X82325899Y-95858838D01*
X82205908Y-95687473D01*
X82205906Y-95687470D01*
X82202749Y-95682962D01*
X82047038Y-95527251D01*
X81866654Y-95400944D01*
X81667076Y-95307880D01*
X81454371Y-95250885D01*
X81235000Y-95231693D01*
X81015629Y-95250885D01*
X80802924Y-95307880D01*
X80725353Y-95344052D01*
X80608334Y-95398618D01*
X80608329Y-95398621D01*
X80603347Y-95400944D01*
X80598840Y-95404100D01*
X80598838Y-95404101D01*
X80427473Y-95524092D01*
X80427470Y-95524094D01*
X80422962Y-95527251D01*
X80267251Y-95682962D01*
X80264094Y-95687470D01*
X80264092Y-95687473D01*
X80144101Y-95858838D01*
X80140944Y-95863347D01*
X80138621Y-95868329D01*
X80138618Y-95868334D01*
X80126863Y-95893543D01*
X80047880Y-96062924D01*
X79990885Y-96275629D01*
X79971693Y-96495000D01*
X79497326Y-96495000D01*
X79497326Y-96489525D01*
X79479099Y-96281196D01*
X79477196Y-96270401D01*
X79423072Y-96068405D01*
X79419326Y-96058113D01*
X79330946Y-95868583D01*
X79325466Y-95859093D01*
X79296589Y-95817851D01*
X79286113Y-95809477D01*
X79272666Y-95816545D01*
X78607021Y-96482189D01*
X78599408Y-96496132D01*
X77932694Y-96496132D01*
X77935924Y-96450967D01*
X77964885Y-96405905D01*
X78235000Y-96135790D01*
X78914176Y-95456613D01*
X78920606Y-95444838D01*
X78911310Y-95432824D01*
X78870912Y-95404536D01*
X78861416Y-95399053D01*
X78671887Y-95310674D01*
X78661595Y-95306928D01*
X78459599Y-95252804D01*
X78448804Y-95250901D01*
X78240475Y-95232674D01*
X78229525Y-95232674D01*
X78021196Y-95250901D01*
X78010401Y-95252804D01*
X77808405Y-95306928D01*
X77798113Y-95310674D01*
X77687250Y-95362371D01*
X77617059Y-95373032D01*
X77552246Y-95344052D01*
X77513389Y-95284633D01*
X77508000Y-95248176D01*
X77508000Y-94742376D01*
X77528002Y-94674255D01*
X77581658Y-94627762D01*
X77651932Y-94617658D01*
X77687249Y-94628181D01*
X77797934Y-94679794D01*
X77797942Y-94679797D01*
X77802924Y-94682120D01*
X78015629Y-94739115D01*
X78235000Y-94758307D01*
X78454371Y-94739115D01*
X78667076Y-94682120D01*
X78866654Y-94589056D01*
X79047038Y-94462749D01*
X79202749Y-94307038D01*
X79242688Y-94250000D01*
X79325899Y-94131162D01*
X79325900Y-94131160D01*
X79329056Y-94126653D01*
X79331379Y-94121671D01*
X79331382Y-94121666D01*
X79391750Y-93992205D01*
X79422120Y-93927076D01*
X79479115Y-93714371D01*
X79479594Y-93708894D01*
X79479600Y-93708862D01*
X79514591Y-93641643D01*
X79627751Y-93528483D01*
X79638237Y-93519107D01*
X79639295Y-93518262D01*
X79666248Y-93496746D01*
X79670226Y-93492039D01*
X79670229Y-93492036D01*
X79684900Y-93474675D01*
X79698059Y-93461273D01*
X79763094Y-93404238D01*
X79827498Y-93374361D01*
X79897831Y-93384046D01*
X79951762Y-93430218D01*
X79971011Y-93495060D01*
X79971693Y-93495000D01*
X79990885Y-93714371D01*
X80047880Y-93927076D01*
X80078250Y-93992205D01*
X80138618Y-94121666D01*
X80138621Y-94121671D01*
X80140944Y-94126653D01*
X80144100Y-94131160D01*
X80144101Y-94131162D01*
X80227313Y-94250000D01*
X80267251Y-94307038D01*
X80422962Y-94462749D01*
X80603346Y-94589056D01*
X80802924Y-94682120D01*
X81015629Y-94739115D01*
X81235000Y-94758307D01*
X81454371Y-94739115D01*
X81667076Y-94682120D01*
X81866654Y-94589056D01*
X82047038Y-94462749D01*
X82202749Y-94307038D01*
X82242688Y-94250000D01*
X82325899Y-94131162D01*
X82325900Y-94131160D01*
X82329056Y-94126653D01*
X82331379Y-94121671D01*
X82331382Y-94121666D01*
X82391750Y-93992205D01*
X82422120Y-93927076D01*
X82479115Y-93714371D01*
X82498307Y-93495000D01*
X82479115Y-93275629D01*
X82477691Y-93270315D01*
X82477690Y-93270309D01*
X82462227Y-93212601D01*
X82463916Y-93141625D01*
X82503709Y-93082829D01*
X82568973Y-93054880D01*
X82583933Y-93053989D01*
X108322846Y-93053989D01*
X108336890Y-93054774D01*
X108372516Y-93058770D01*
X108405313Y-93056016D01*
X108422028Y-93055726D01*
X108650510Y-93066951D01*
X108662804Y-93068161D01*
X108917982Y-93106014D01*
X108930104Y-93108424D01*
X109002505Y-93126560D01*
X109180345Y-93171107D01*
X109192177Y-93174696D01*
X109435066Y-93261603D01*
X109446490Y-93266335D01*
X109575265Y-93327241D01*
X109674893Y-93374361D01*
X109679690Y-93376630D01*
X109690590Y-93382457D01*
X109726931Y-93404238D01*
X109911862Y-93515082D01*
X109922143Y-93521952D01*
X110129336Y-93675616D01*
X110138894Y-93683460D01*
X110297821Y-93827503D01*
X110311676Y-93842254D01*
X110321241Y-93854236D01*
X110325951Y-93858216D01*
X110360847Y-93887706D01*
X110368614Y-93894849D01*
X110417142Y-93943377D01*
X110451168Y-94005689D01*
X110453413Y-94045094D01*
X110437296Y-94205151D01*
X110449480Y-94458798D01*
X110462110Y-94522294D01*
X110494185Y-94683543D01*
X110499021Y-94707857D01*
X110500600Y-94712255D01*
X110500602Y-94712262D01*
X110545022Y-94835980D01*
X110584831Y-94946858D01*
X110705025Y-95170551D01*
X110707820Y-95174294D01*
X110707822Y-95174297D01*
X110854171Y-95370282D01*
X110854176Y-95370288D01*
X110856963Y-95374020D01*
X110860272Y-95377300D01*
X110860277Y-95377306D01*
X110958859Y-95475031D01*
X111037307Y-95552797D01*
X111041069Y-95555555D01*
X111041072Y-95555558D01*
X111146764Y-95633054D01*
X111242094Y-95702953D01*
X111246229Y-95705129D01*
X111246233Y-95705131D01*
X111364289Y-95767243D01*
X111466827Y-95821191D01*
X111574632Y-95858838D01*
X111639594Y-95881524D01*
X111697312Y-95922866D01*
X111723515Y-95988850D01*
X111709886Y-96058526D01*
X111660750Y-96109773D01*
X111633311Y-96121446D01*
X111554655Y-96144371D01*
X111545915Y-96147639D01*
X111323869Y-96250004D01*
X111315714Y-96254524D01*
X111148468Y-96364175D01*
X111139330Y-96374917D01*
X111143903Y-96384693D01*
X112137188Y-97377978D01*
X112151132Y-97385592D01*
X112152965Y-97385461D01*
X112159580Y-97381210D01*
X113152488Y-96388302D01*
X113158872Y-96376612D01*
X113149460Y-96364502D01*
X113023144Y-96276873D01*
X113015116Y-96272145D01*
X112795810Y-96163995D01*
X112787180Y-96160508D01*
X112664999Y-96121397D01*
X112606220Y-96081579D01*
X112578298Y-96016303D01*
X112590100Y-95946294D01*
X112637877Y-95893779D01*
X112671334Y-95879547D01*
X112703270Y-95871139D01*
X112703272Y-95871138D01*
X112707793Y-95869948D01*
X112848544Y-95809477D01*
X112936807Y-95771557D01*
X112936810Y-95771555D01*
X112941110Y-95769708D01*
X112945090Y-95767245D01*
X112945094Y-95767243D01*
X113153064Y-95638547D01*
X113153066Y-95638545D01*
X113157047Y-95636082D01*
X113255428Y-95552797D01*
X113347289Y-95475031D01*
X113347291Y-95475029D01*
X113350862Y-95472006D01*
X113518295Y-95281084D01*
X113536486Y-95252804D01*
X113653141Y-95071442D01*
X113655669Y-95067512D01*
X113759967Y-94835980D01*
X113828896Y-94591575D01*
X113860943Y-94339667D01*
X113861696Y-94310935D01*
X113863208Y-94253160D01*
X113863291Y-94250000D01*
X113844472Y-93996759D01*
X113829833Y-93932061D01*
X113789459Y-93753639D01*
X113788428Y-93749082D01*
X113696391Y-93512409D01*
X113689570Y-93500475D01*
X113572702Y-93295997D01*
X113572700Y-93295995D01*
X113570383Y-93291940D01*
X113413171Y-93092517D01*
X113228209Y-92918523D01*
X113184483Y-92888189D01*
X113023393Y-92776437D01*
X113023390Y-92776435D01*
X113019561Y-92773779D01*
X113015384Y-92771719D01*
X113015377Y-92771715D01*
X112795996Y-92663528D01*
X112795992Y-92663527D01*
X112791810Y-92661464D01*
X112665901Y-92621160D01*
X112607121Y-92581342D01*
X112579199Y-92516067D01*
X112591000Y-92446058D01*
X112638778Y-92393543D01*
X112672234Y-92379310D01*
X112673929Y-92378864D01*
X112707793Y-92369948D01*
X112846852Y-92310204D01*
X112936807Y-92271557D01*
X112936810Y-92271555D01*
X112941110Y-92269708D01*
X112945090Y-92267245D01*
X112945094Y-92267243D01*
X113153064Y-92138547D01*
X113153066Y-92138545D01*
X113157047Y-92136082D01*
X113214359Y-92087564D01*
X113347289Y-91975031D01*
X113347291Y-91975029D01*
X113350862Y-91972006D01*
X113518295Y-91781084D01*
X113544983Y-91739594D01*
X113653141Y-91571442D01*
X113655669Y-91567512D01*
X113759967Y-91335980D01*
X113828896Y-91091575D01*
X113849823Y-90927076D01*
X113860545Y-90842798D01*
X113860545Y-90842792D01*
X113860943Y-90839667D01*
X113863291Y-90750000D01*
X113849496Y-90564360D01*
X113844818Y-90501411D01*
X113844817Y-90501407D01*
X113844472Y-90496759D01*
X113843404Y-90492036D01*
X113789459Y-90253639D01*
X113788428Y-90249082D01*
X113786735Y-90244728D01*
X113698084Y-90016762D01*
X113698083Y-90016760D01*
X113696391Y-90012409D01*
X113675866Y-89976498D01*
X113572702Y-89795997D01*
X113572700Y-89795995D01*
X113570383Y-89791940D01*
X113413171Y-89592517D01*
X113329625Y-89513925D01*
X113231610Y-89421722D01*
X113231608Y-89421720D01*
X113228209Y-89418523D01*
X113072068Y-89310204D01*
X113023393Y-89276437D01*
X113023390Y-89276435D01*
X113019561Y-89273779D01*
X113015384Y-89271719D01*
X113015377Y-89271715D01*
X112795996Y-89163528D01*
X112795992Y-89163527D01*
X112791810Y-89161464D01*
X112665901Y-89121160D01*
X112607121Y-89081342D01*
X112579199Y-89016067D01*
X112591000Y-88946058D01*
X112638778Y-88893543D01*
X112672234Y-88879310D01*
X112673929Y-88878864D01*
X112707793Y-88869948D01*
X112826353Y-88819011D01*
X112936807Y-88771557D01*
X112936810Y-88771555D01*
X112941110Y-88769708D01*
X112945090Y-88767245D01*
X112945094Y-88767243D01*
X113153064Y-88638547D01*
X113153066Y-88638545D01*
X113157047Y-88636082D01*
X113166875Y-88627762D01*
X113347289Y-88475031D01*
X113347291Y-88475029D01*
X113350862Y-88472006D01*
X113518295Y-88281084D01*
X113540577Y-88246444D01*
X113653141Y-88071442D01*
X113655669Y-88067512D01*
X113759967Y-87835980D01*
X113828896Y-87591575D01*
X113846382Y-87454126D01*
X113860545Y-87342798D01*
X113860545Y-87342792D01*
X113860943Y-87339667D01*
X113863291Y-87250000D01*
X113858479Y-87185250D01*
X113844818Y-87001411D01*
X113844817Y-87001407D01*
X113844472Y-86996759D01*
X113788428Y-86749082D01*
X113696391Y-86512409D01*
X113675866Y-86476498D01*
X113572702Y-86295997D01*
X113572700Y-86295995D01*
X113570383Y-86291940D01*
X113413171Y-86092517D01*
X113228209Y-85918523D01*
X113184483Y-85888189D01*
X113023393Y-85776437D01*
X113023390Y-85776435D01*
X113019561Y-85773779D01*
X113015384Y-85771719D01*
X113015377Y-85771715D01*
X112795996Y-85663528D01*
X112795992Y-85663527D01*
X112791810Y-85661464D01*
X112665901Y-85621160D01*
X112607121Y-85581342D01*
X112579199Y-85516067D01*
X112591000Y-85446058D01*
X112638778Y-85393543D01*
X112672234Y-85379310D01*
X112673929Y-85378864D01*
X112707793Y-85369948D01*
X112874716Y-85298233D01*
X112936807Y-85271557D01*
X112936810Y-85271555D01*
X112941110Y-85269708D01*
X112945090Y-85267245D01*
X112945094Y-85267243D01*
X113153064Y-85138547D01*
X113153066Y-85138545D01*
X113157047Y-85136082D01*
X113188298Y-85109626D01*
X113347289Y-84975031D01*
X113347291Y-84975029D01*
X113350862Y-84972006D01*
X113518295Y-84781084D01*
X113655669Y-84567512D01*
X113759967Y-84335980D01*
X113828896Y-84091575D01*
X113860943Y-83839667D01*
X113863291Y-83750000D01*
X113844472Y-83496759D01*
X113837899Y-83467707D01*
X113789459Y-83253639D01*
X113788428Y-83249082D01*
X113770138Y-83202050D01*
X113698084Y-83016762D01*
X113698083Y-83016760D01*
X113696391Y-83012409D01*
X113675866Y-82976498D01*
X113572702Y-82795997D01*
X113572700Y-82795995D01*
X113570383Y-82791940D01*
X113413171Y-82592517D01*
X113329625Y-82513925D01*
X113231610Y-82421722D01*
X113231608Y-82421720D01*
X113228209Y-82418523D01*
X113067504Y-82307038D01*
X113023393Y-82276437D01*
X113023390Y-82276435D01*
X113019561Y-82273779D01*
X113015384Y-82271719D01*
X113015377Y-82271715D01*
X112795996Y-82163528D01*
X112795992Y-82163527D01*
X112791810Y-82161464D01*
X112665901Y-82121160D01*
X112607121Y-82081342D01*
X112579199Y-82016067D01*
X112591000Y-81946058D01*
X112638778Y-81893543D01*
X112672234Y-81879310D01*
X112675778Y-81878377D01*
X112707793Y-81869948D01*
X112826353Y-81819011D01*
X112936807Y-81771557D01*
X112936810Y-81771555D01*
X112941110Y-81769708D01*
X112945090Y-81767245D01*
X112945094Y-81767243D01*
X113153064Y-81638547D01*
X113153066Y-81638545D01*
X113157047Y-81636082D01*
X113255428Y-81552797D01*
X113347289Y-81475031D01*
X113347291Y-81475029D01*
X113350862Y-81472006D01*
X113518295Y-81281084D01*
X113538038Y-81250391D01*
X113645817Y-81082829D01*
X113655669Y-81067512D01*
X113759967Y-80835980D01*
X113828896Y-80591575D01*
X113853148Y-80400944D01*
X113860545Y-80342798D01*
X113860545Y-80342792D01*
X113860943Y-80339667D01*
X113863291Y-80250000D01*
X113848702Y-80053677D01*
X113844818Y-80001411D01*
X113844817Y-80001407D01*
X113844472Y-79996759D01*
X113840044Y-79977187D01*
X113789459Y-79753639D01*
X113788428Y-79749082D01*
X113762388Y-79682120D01*
X113698084Y-79516762D01*
X113698083Y-79516760D01*
X113696391Y-79512409D01*
X113675866Y-79476498D01*
X113572702Y-79295997D01*
X113572700Y-79295995D01*
X113570383Y-79291940D01*
X113413171Y-79092517D01*
X113275842Y-78963331D01*
X113231610Y-78921722D01*
X113231608Y-78921720D01*
X113228209Y-78918523D01*
X113170339Y-78878377D01*
X113023393Y-78776437D01*
X113023390Y-78776435D01*
X113019561Y-78773779D01*
X113015384Y-78771719D01*
X113015377Y-78771715D01*
X112795996Y-78663528D01*
X112795992Y-78663527D01*
X112791810Y-78661464D01*
X112665901Y-78621160D01*
X112607121Y-78581342D01*
X112579199Y-78516067D01*
X112591000Y-78446058D01*
X112638778Y-78393543D01*
X112672234Y-78379310D01*
X112691031Y-78374361D01*
X112707793Y-78369948D01*
X112826353Y-78319011D01*
X112936807Y-78271557D01*
X112936810Y-78271555D01*
X112941110Y-78269708D01*
X112945090Y-78267245D01*
X112945094Y-78267243D01*
X113153064Y-78138547D01*
X113153066Y-78138545D01*
X113157047Y-78136082D01*
X113252967Y-78054880D01*
X113347289Y-77975031D01*
X113347291Y-77975029D01*
X113350862Y-77972006D01*
X113518295Y-77781084D01*
X113655669Y-77567512D01*
X113759967Y-77335980D01*
X113828896Y-77091575D01*
X113860943Y-76839667D01*
X113861158Y-76831486D01*
X113863208Y-76753160D01*
X113863291Y-76750000D01*
X113844472Y-76496759D01*
X113839399Y-76474337D01*
X113789459Y-76253639D01*
X113788428Y-76249082D01*
X113763115Y-76183990D01*
X113698084Y-76016762D01*
X113698083Y-76016760D01*
X113696391Y-76012409D01*
X113675866Y-75976498D01*
X113572702Y-75795997D01*
X113572700Y-75795995D01*
X113570383Y-75791940D01*
X113413171Y-75592517D01*
X113303687Y-75489525D01*
X113231610Y-75421722D01*
X113231608Y-75421720D01*
X113228209Y-75418523D01*
X113156082Y-75368487D01*
X113023393Y-75276437D01*
X113023390Y-75276435D01*
X113019561Y-75273779D01*
X113015384Y-75271719D01*
X113015377Y-75271715D01*
X112795996Y-75163528D01*
X112795992Y-75163527D01*
X112791810Y-75161464D01*
X112665901Y-75121160D01*
X112607121Y-75081342D01*
X112579199Y-75016067D01*
X112591000Y-74946058D01*
X112638778Y-74893543D01*
X112672234Y-74879310D01*
X112685383Y-74875848D01*
X112707793Y-74869948D01*
X112826353Y-74819011D01*
X112936807Y-74771557D01*
X112936810Y-74771555D01*
X112941110Y-74769708D01*
X112945090Y-74767245D01*
X112945094Y-74767243D01*
X113153064Y-74638547D01*
X113153066Y-74638545D01*
X113157047Y-74636082D01*
X113255428Y-74552797D01*
X113347289Y-74475031D01*
X113347291Y-74475029D01*
X113350862Y-74472006D01*
X113518295Y-74281084D01*
X113655669Y-74067512D01*
X113759967Y-73835980D01*
X113828896Y-73591575D01*
X113853850Y-73395424D01*
X113860545Y-73342798D01*
X113860545Y-73342792D01*
X113860943Y-73339667D01*
X113861798Y-73307038D01*
X113863208Y-73253160D01*
X113863291Y-73250000D01*
X113851664Y-73093537D01*
X113844818Y-73001411D01*
X113844817Y-73001407D01*
X113844472Y-72996759D01*
X113829833Y-72932061D01*
X113789459Y-72753639D01*
X113788428Y-72749082D01*
X113769182Y-72699591D01*
X113698084Y-72516762D01*
X113698083Y-72516760D01*
X113696391Y-72512409D01*
X113675866Y-72476498D01*
X113572702Y-72295997D01*
X113572700Y-72295995D01*
X113570383Y-72291940D01*
X113413171Y-72092517D01*
X113228209Y-71918523D01*
X113142173Y-71858838D01*
X113023393Y-71776437D01*
X113023390Y-71776435D01*
X113019561Y-71773779D01*
X113015384Y-71771719D01*
X113015377Y-71771715D01*
X112795996Y-71663528D01*
X112795992Y-71663527D01*
X112791810Y-71661464D01*
X112665901Y-71621160D01*
X112607121Y-71581342D01*
X112579199Y-71516067D01*
X112591000Y-71446058D01*
X112638778Y-71393543D01*
X112672234Y-71379310D01*
X112673929Y-71378864D01*
X112707793Y-71369948D01*
X112849247Y-71309175D01*
X112936807Y-71271557D01*
X112936810Y-71271555D01*
X112941110Y-71269708D01*
X112945090Y-71267245D01*
X112945094Y-71267243D01*
X113153064Y-71138547D01*
X113153066Y-71138545D01*
X113157047Y-71136082D01*
X113160624Y-71133054D01*
X113347289Y-70975031D01*
X113347291Y-70975029D01*
X113350862Y-70972006D01*
X113518295Y-70781084D01*
X113655669Y-70567512D01*
X113759967Y-70335980D01*
X113828896Y-70091575D01*
X113860943Y-69839667D01*
X113863291Y-69750000D01*
X113850781Y-69581658D01*
X113844818Y-69501411D01*
X113844817Y-69501407D01*
X113844472Y-69496759D01*
X113788428Y-69249082D01*
X113696391Y-69012409D01*
X113673696Y-68972701D01*
X113572702Y-68795997D01*
X113572700Y-68795995D01*
X113570383Y-68791940D01*
X113413171Y-68592517D01*
X113228209Y-68418523D01*
X113184483Y-68388189D01*
X113023393Y-68276437D01*
X113023390Y-68276435D01*
X113019561Y-68273779D01*
X113015384Y-68271719D01*
X113015377Y-68271715D01*
X112795996Y-68163528D01*
X112795992Y-68163527D01*
X112791810Y-68161464D01*
X112549960Y-68084047D01*
X112545355Y-68083297D01*
X112303935Y-68043980D01*
X112303934Y-68043980D01*
X112299323Y-68043229D01*
X112172364Y-68041567D01*
X112050083Y-68039966D01*
X112050080Y-68039966D01*
X112045406Y-68039905D01*
X111793787Y-68074149D01*
X111549993Y-68145208D01*
X111319380Y-68251522D01*
X111315471Y-68254085D01*
X111110928Y-68388189D01*
X111110923Y-68388193D01*
X111107015Y-68390755D01*
X111052195Y-68439684D01*
X110926520Y-68551853D01*
X110917562Y-68559848D01*
X110755183Y-68755087D01*
X110716848Y-68818261D01*
X110626081Y-68967842D01*
X110623447Y-68972182D01*
X110622956Y-68973354D01*
X110574825Y-69024317D01*
X110511304Y-69041500D01*
X106423375Y-69041500D01*
X106355254Y-69021498D01*
X106308761Y-68967842D01*
X106298657Y-68897568D01*
X106329201Y-68831790D01*
X107690534Y-67300290D01*
X107750741Y-67262665D01*
X107784708Y-67258000D01*
X127116000Y-67258000D01*
X127184121Y-67278002D01*
G37*
%TD.AperFunction*%
%TD*%
%TA.AperFunction,NonConductor*%
G36*
X79808818Y-69528002D02*
G01*
X79855311Y-69581658D01*
X79865415Y-69651932D01*
X79835921Y-69716512D01*
X79802263Y-69743934D01*
X79701174Y-69800547D01*
X79701162Y-69800554D01*
X79699002Y-69801764D01*
X79696949Y-69803136D01*
X79696947Y-69803137D01*
X79637591Y-69842798D01*
X79360401Y-70028011D01*
X79040594Y-70280126D01*
X79038780Y-70281803D01*
X79038774Y-70281808D01*
X78779846Y-70521159D01*
X78771548Y-70528190D01*
X78763995Y-70534049D01*
X78763986Y-70534057D01*
X78761218Y-70536204D01*
X78740932Y-70555933D01*
X78738704Y-70558645D01*
X78738697Y-70558653D01*
X78713110Y-70589804D01*
X78704842Y-70598923D01*
X78088357Y-71215409D01*
X78021139Y-71250400D01*
X78021105Y-71250406D01*
X78015629Y-71250885D01*
X78010324Y-71252306D01*
X78010321Y-71252307D01*
X77938481Y-71271557D01*
X77802924Y-71307880D01*
X77797944Y-71310202D01*
X77797939Y-71310204D01*
X77779053Y-71319011D01*
X77687248Y-71361820D01*
X77617059Y-71372481D01*
X77552246Y-71343501D01*
X77513389Y-71284082D01*
X77508000Y-71247625D01*
X77508000Y-69634000D01*
X77528002Y-69565879D01*
X77581658Y-69519386D01*
X77634000Y-69508000D01*
X79740697Y-69508000D01*
X79808818Y-69528002D01*
G37*
%TD.AperFunction*%
%TA.AperFunction,NonConductor*%
G36*
X111071962Y-71078502D02*
G01*
X111078346Y-71082888D01*
X111242094Y-71202953D01*
X111246229Y-71205129D01*
X111246233Y-71205131D01*
X111335900Y-71252307D01*
X111466827Y-71321191D01*
X111638781Y-71381240D01*
X111696497Y-71422581D01*
X111722701Y-71488565D01*
X111709072Y-71558241D01*
X111659936Y-71609487D01*
X111632497Y-71621160D01*
X111549993Y-71645208D01*
X111545740Y-71647168D01*
X111545739Y-71647169D01*
X111517818Y-71660041D01*
X111319380Y-71751522D01*
X111315471Y-71754085D01*
X111110928Y-71888189D01*
X111110923Y-71888193D01*
X111107015Y-71890755D01*
X110917562Y-72059848D01*
X110755183Y-72255087D01*
X110623447Y-72472182D01*
X110621638Y-72476496D01*
X110621637Y-72476498D01*
X110528087Y-72699591D01*
X110525246Y-72706365D01*
X110524095Y-72710897D01*
X110489652Y-72846516D01*
X110453497Y-72907617D01*
X110390048Y-72939471D01*
X110367529Y-72941500D01*
X82582463Y-72941500D01*
X82514342Y-72921498D01*
X82467849Y-72867842D01*
X82457745Y-72797568D01*
X82460756Y-72782889D01*
X82477692Y-72719684D01*
X82477693Y-72719677D01*
X82479115Y-72714371D01*
X82498307Y-72495000D01*
X82479115Y-72275629D01*
X82422120Y-72062924D01*
X82340640Y-71888189D01*
X82331382Y-71868334D01*
X82331379Y-71868329D01*
X82329056Y-71863347D01*
X82252550Y-71754085D01*
X82205908Y-71687473D01*
X82205906Y-71687470D01*
X82202749Y-71682962D01*
X82047038Y-71527251D01*
X82027052Y-71513256D01*
X81914722Y-71434602D01*
X81866654Y-71400944D01*
X81861672Y-71398621D01*
X81861667Y-71398618D01*
X81770468Y-71356092D01*
X81717183Y-71309175D01*
X81697722Y-71240898D01*
X81718264Y-71172938D01*
X81772286Y-71126872D01*
X81805230Y-71117261D01*
X81936628Y-71097770D01*
X82092496Y-71074650D01*
X82104792Y-71073439D01*
X82359256Y-71060938D01*
X82379478Y-71061571D01*
X82394726Y-71063281D01*
X82446399Y-71058942D01*
X82456942Y-71058500D01*
X111003841Y-71058500D01*
X111071962Y-71078502D01*
G37*
%TD.AperFunction*%
%TA.AperFunction,NonConductor*%
G36*
X79890204Y-72370196D02*
G01*
X79947040Y-72412743D01*
X79971851Y-72479263D01*
X79972172Y-72488252D01*
X79972172Y-72489525D01*
X79971693Y-72495000D01*
X79990885Y-72714371D01*
X79992309Y-72719683D01*
X79992310Y-72719692D01*
X80041932Y-72904881D01*
X80040243Y-72975858D01*
X80000449Y-73034654D01*
X79950842Y-73059717D01*
X79915688Y-73068523D01*
X79812831Y-73094287D01*
X79809932Y-73095324D01*
X79809923Y-73095327D01*
X79534505Y-73193873D01*
X79463628Y-73197989D01*
X79401777Y-73163133D01*
X79368589Y-73100370D01*
X79374601Y-73029629D01*
X79377862Y-73021988D01*
X79391750Y-72992205D01*
X79422120Y-72927076D01*
X79479115Y-72714371D01*
X79479594Y-72708894D01*
X79479600Y-72708862D01*
X79514591Y-72641643D01*
X79757077Y-72399157D01*
X79819389Y-72365131D01*
X79890204Y-72370196D01*
G37*
%TD.AperFunction*%
%TA.AperFunction,NonConductor*%
G36*
X77687249Y-73628181D02*
G01*
X77797934Y-73679794D01*
X77797942Y-73679797D01*
X77802924Y-73682120D01*
X78015629Y-73739115D01*
X78167264Y-73752381D01*
X78229525Y-73757828D01*
X78235000Y-73758307D01*
X78238278Y-73758020D01*
X78305745Y-73777830D01*
X78352238Y-73831486D01*
X78362342Y-73901760D01*
X78332848Y-73966340D01*
X78316626Y-73981706D01*
X78316655Y-73981739D01*
X78315873Y-73982418D01*
X78314853Y-73983385D01*
X78311218Y-73986205D01*
X78300896Y-73996243D01*
X78293456Y-74003477D01*
X78293451Y-74003482D01*
X78290931Y-74005933D01*
X78288701Y-74008648D01*
X78288700Y-74008649D01*
X78263101Y-74039814D01*
X78254832Y-74048933D01*
X78088357Y-74215409D01*
X78021139Y-74250400D01*
X78021105Y-74250406D01*
X78015629Y-74250885D01*
X78010324Y-74252306D01*
X78010321Y-74252307D01*
X77891738Y-74284082D01*
X77802924Y-74307880D01*
X77797944Y-74310202D01*
X77797939Y-74310204D01*
X77740210Y-74337124D01*
X77687248Y-74361820D01*
X77617059Y-74372481D01*
X77552246Y-74343501D01*
X77513389Y-74284082D01*
X77508000Y-74247625D01*
X77508000Y-73742376D01*
X77528002Y-73674255D01*
X77581658Y-73627762D01*
X77651932Y-73617658D01*
X77687249Y-73628181D01*
G37*
%TD.AperFunction*%
%TA.AperFunction,NonConductor*%
G36*
X111629410Y-74877967D02*
G01*
X111638780Y-74881239D01*
X111696497Y-74922580D01*
X111722701Y-74988564D01*
X111709072Y-75058240D01*
X111659937Y-75109487D01*
X111632497Y-75121160D01*
X111549993Y-75145208D01*
X111319380Y-75251522D01*
X111315471Y-75254085D01*
X111110928Y-75388189D01*
X111110923Y-75388193D01*
X111107015Y-75390755D01*
X110917562Y-75559848D01*
X110755183Y-75755087D01*
X110700266Y-75845587D01*
X110625870Y-75968188D01*
X110625868Y-75968192D01*
X110623447Y-75972182D01*
X110622592Y-75971663D01*
X110577115Y-76019810D01*
X110513602Y-76036989D01*
X82556876Y-76036989D01*
X82488755Y-76016987D01*
X82442262Y-75963331D01*
X82432158Y-75893057D01*
X82435169Y-75878377D01*
X82479115Y-75714371D01*
X82498307Y-75495000D01*
X82479115Y-75275629D01*
X82436640Y-75117112D01*
X82438330Y-75046135D01*
X82478124Y-74987339D01*
X82543388Y-74959391D01*
X82558347Y-74958500D01*
X110883300Y-74958500D01*
X110899091Y-74959493D01*
X110926734Y-74962985D01*
X110930243Y-74963034D01*
X110951514Y-74963331D01*
X110951515Y-74963331D01*
X110955029Y-74963380D01*
X110986033Y-74960339D01*
X110991244Y-74959938D01*
X111127629Y-74952278D01*
X111202128Y-74948094D01*
X111446118Y-74906638D01*
X111449521Y-74905658D01*
X111449528Y-74905656D01*
X111515897Y-74886535D01*
X111552991Y-74875848D01*
X111629410Y-74877967D01*
G37*
%TD.AperFunction*%
%TA.AperFunction,NonConductor*%
G36*
X79897832Y-75378173D02*
G01*
X79951763Y-75424346D01*
X79971931Y-75492283D01*
X79971693Y-75495000D01*
X79990885Y-75714371D01*
X79992308Y-75719681D01*
X80046457Y-75921765D01*
X80047880Y-75927076D01*
X80053511Y-75939153D01*
X80064174Y-76009342D01*
X80035197Y-76074155D01*
X79969933Y-76114628D01*
X79700198Y-76182192D01*
X79700188Y-76182195D01*
X79697198Y-76182944D01*
X79694289Y-76183985D01*
X79694272Y-76183990D01*
X79508041Y-76250625D01*
X79437164Y-76254742D01*
X79375313Y-76219886D01*
X79342125Y-76157124D01*
X79348137Y-76086382D01*
X79351398Y-76078741D01*
X79401329Y-75971663D01*
X79422120Y-75927076D01*
X79479115Y-75714371D01*
X79479594Y-75708894D01*
X79479600Y-75708862D01*
X79514591Y-75641643D01*
X79675487Y-75480747D01*
X79685973Y-75471371D01*
X79709178Y-75452847D01*
X79709180Y-75452845D01*
X79713994Y-75449002D01*
X79732651Y-75426924D01*
X79745806Y-75413526D01*
X79763095Y-75398364D01*
X79827499Y-75368487D01*
X79897832Y-75378173D01*
G37*
%TD.AperFunction*%
%TA.AperFunction,NonConductor*%
G36*
X77687249Y-76628181D02*
G01*
X77797934Y-76679794D01*
X77797942Y-76679797D01*
X77802924Y-76682120D01*
X78015629Y-76739115D01*
X78229525Y-76757828D01*
X78235000Y-76758307D01*
X78240475Y-76757828D01*
X78243972Y-76757828D01*
X78312093Y-76777830D01*
X78358586Y-76831486D01*
X78368690Y-76901760D01*
X78339196Y-76966340D01*
X78328589Y-76977187D01*
X78284315Y-77017315D01*
X78276934Y-77023507D01*
X78263474Y-77033948D01*
X78243187Y-77053677D01*
X78240958Y-77056391D01*
X78240954Y-77056395D01*
X78215352Y-77087564D01*
X78207082Y-77096683D01*
X78088356Y-77215409D01*
X78021139Y-77250400D01*
X78021105Y-77250406D01*
X78015629Y-77250885D01*
X78010324Y-77252306D01*
X78010321Y-77252307D01*
X77891738Y-77284082D01*
X77802924Y-77307880D01*
X77797944Y-77310202D01*
X77797939Y-77310204D01*
X77752335Y-77331470D01*
X77687248Y-77361820D01*
X77617059Y-77372481D01*
X77552246Y-77343501D01*
X77513389Y-77284082D01*
X77508000Y-77247625D01*
X77508000Y-76742376D01*
X77528002Y-76674255D01*
X77581658Y-76627762D01*
X77651932Y-76617658D01*
X77687249Y-76628181D01*
G37*
%TD.AperFunction*%
%TA.AperFunction,NonConductor*%
G36*
X111065810Y-78073991D02*
G01*
X111072194Y-78078377D01*
X111242094Y-78202953D01*
X111246229Y-78205129D01*
X111246233Y-78205131D01*
X111364289Y-78267243D01*
X111466827Y-78321191D01*
X111638781Y-78381240D01*
X111696497Y-78422581D01*
X111722701Y-78488565D01*
X111709072Y-78558241D01*
X111659936Y-78609487D01*
X111632497Y-78621160D01*
X111549993Y-78645208D01*
X111319380Y-78751522D01*
X111315471Y-78754085D01*
X111110928Y-78888189D01*
X111110923Y-78888193D01*
X111107015Y-78890755D01*
X111052793Y-78939150D01*
X110979023Y-79004992D01*
X110914882Y-79035430D01*
X110895122Y-79036989D01*
X82556876Y-79036989D01*
X82488755Y-79016987D01*
X82442262Y-78963331D01*
X82432158Y-78893057D01*
X82435169Y-78878377D01*
X82463749Y-78771715D01*
X82479115Y-78714371D01*
X82498307Y-78495000D01*
X82479115Y-78275629D01*
X82477691Y-78270315D01*
X82477690Y-78270309D01*
X82462227Y-78212601D01*
X82463916Y-78141625D01*
X82503709Y-78082829D01*
X82568973Y-78054880D01*
X82583933Y-78053989D01*
X110997689Y-78053989D01*
X111065810Y-78073991D01*
G37*
%TD.AperFunction*%
%TA.AperFunction,NonConductor*%
G36*
X79897831Y-78384046D02*
G01*
X79951762Y-78430218D01*
X79971011Y-78495060D01*
X79971693Y-78495000D01*
X79990885Y-78714371D01*
X80006251Y-78771715D01*
X80046457Y-78921765D01*
X80047880Y-78927076D01*
X80053511Y-78939153D01*
X80064174Y-79009342D01*
X80035197Y-79074155D01*
X79969933Y-79114628D01*
X79700198Y-79182192D01*
X79700188Y-79182195D01*
X79697198Y-79182944D01*
X79694289Y-79183985D01*
X79694272Y-79183990D01*
X79508041Y-79250625D01*
X79437164Y-79254742D01*
X79375313Y-79219886D01*
X79342125Y-79157124D01*
X79348137Y-79086382D01*
X79351398Y-79078741D01*
X79405214Y-78963331D01*
X79422120Y-78927076D01*
X79479115Y-78714371D01*
X79479594Y-78708894D01*
X79479600Y-78708862D01*
X79514591Y-78641643D01*
X79627751Y-78528483D01*
X79638237Y-78519107D01*
X79642045Y-78516067D01*
X79666248Y-78496746D01*
X79670226Y-78492039D01*
X79670229Y-78492036D01*
X79684900Y-78474675D01*
X79698059Y-78461273D01*
X79742178Y-78422581D01*
X79763095Y-78404238D01*
X79827498Y-78374361D01*
X79897831Y-78384046D01*
G37*
%TD.AperFunction*%
%TA.AperFunction,NonConductor*%
G36*
X77687249Y-79628181D02*
G01*
X77797934Y-79679794D01*
X77797942Y-79679797D01*
X77802924Y-79682120D01*
X78015629Y-79739115D01*
X78229525Y-79757828D01*
X78235000Y-79758307D01*
X78240475Y-79757828D01*
X78243972Y-79757828D01*
X78312093Y-79777830D01*
X78358586Y-79831486D01*
X78368690Y-79901760D01*
X78339196Y-79966340D01*
X78328589Y-79977187D01*
X78284315Y-80017315D01*
X78276934Y-80023507D01*
X78263474Y-80033948D01*
X78243187Y-80053677D01*
X78240958Y-80056391D01*
X78240954Y-80056395D01*
X78215352Y-80087564D01*
X78207082Y-80096683D01*
X78088356Y-80215409D01*
X78021139Y-80250400D01*
X78021105Y-80250406D01*
X78015629Y-80250885D01*
X78010324Y-80252306D01*
X78010321Y-80252307D01*
X77891738Y-80284082D01*
X77802924Y-80307880D01*
X77797944Y-80310202D01*
X77797939Y-80310204D01*
X77741527Y-80336510D01*
X77687248Y-80361820D01*
X77617059Y-80372481D01*
X77552246Y-80343501D01*
X77513389Y-80284082D01*
X77508000Y-80247625D01*
X77508000Y-79742376D01*
X77528002Y-79674255D01*
X77581658Y-79627762D01*
X77651932Y-79617658D01*
X77687249Y-79628181D01*
G37*
%TD.AperFunction*%
%TA.AperFunction,NonConductor*%
G36*
X110635181Y-81073991D02*
G01*
X110678050Y-81120347D01*
X110705025Y-81170551D01*
X110707820Y-81174294D01*
X110707822Y-81174297D01*
X110854171Y-81370282D01*
X110854176Y-81370288D01*
X110856963Y-81374020D01*
X110860272Y-81377300D01*
X110860277Y-81377306D01*
X111007753Y-81523500D01*
X111037307Y-81552797D01*
X111041069Y-81555555D01*
X111041072Y-81555558D01*
X111201989Y-81673547D01*
X111242094Y-81702953D01*
X111246229Y-81705129D01*
X111246233Y-81705131D01*
X111364289Y-81767243D01*
X111466827Y-81821191D01*
X111553793Y-81851561D01*
X111638780Y-81881240D01*
X111696498Y-81922582D01*
X111722701Y-81988566D01*
X111709071Y-82058242D01*
X111659936Y-82109489D01*
X111632488Y-82121163D01*
X111627346Y-82122662D01*
X111557226Y-82122766D01*
X111443522Y-82090009D01*
X111443523Y-82090009D01*
X111440131Y-82089032D01*
X111195286Y-82047431D01*
X111171673Y-82046105D01*
X111016913Y-82037414D01*
X111008193Y-82036620D01*
X110975618Y-82032504D01*
X110961470Y-82032306D01*
X110950846Y-82032158D01*
X110950843Y-82032158D01*
X110947323Y-82032109D01*
X110907404Y-82036023D01*
X110903683Y-82036388D01*
X110891387Y-82036989D01*
X82556876Y-82036989D01*
X82488755Y-82016987D01*
X82442262Y-81963331D01*
X82432158Y-81893057D01*
X82435169Y-81878377D01*
X82477692Y-81719681D01*
X82479115Y-81714371D01*
X82498307Y-81495000D01*
X82479115Y-81275629D01*
X82477691Y-81270315D01*
X82477690Y-81270309D01*
X82462227Y-81212601D01*
X82463916Y-81141625D01*
X82503709Y-81082829D01*
X82568973Y-81054880D01*
X82583933Y-81053989D01*
X110567060Y-81053989D01*
X110635181Y-81073991D01*
G37*
%TD.AperFunction*%
%TA.AperFunction,NonConductor*%
G36*
X79897831Y-81384046D02*
G01*
X79951762Y-81430218D01*
X79971011Y-81495060D01*
X79971693Y-81495000D01*
X79990885Y-81714371D01*
X79992308Y-81719681D01*
X80046457Y-81921765D01*
X80047880Y-81927076D01*
X80053511Y-81939153D01*
X80064174Y-82009342D01*
X80035197Y-82074155D01*
X79969933Y-82114628D01*
X79700198Y-82182192D01*
X79700188Y-82182195D01*
X79697198Y-82182944D01*
X79694289Y-82183985D01*
X79694272Y-82183990D01*
X79508041Y-82250625D01*
X79437164Y-82254742D01*
X79375313Y-82219886D01*
X79342125Y-82157124D01*
X79348137Y-82086382D01*
X79351398Y-82078741D01*
X79405214Y-81963331D01*
X79422120Y-81927076D01*
X79479115Y-81714371D01*
X79479594Y-81708894D01*
X79479600Y-81708862D01*
X79514591Y-81641643D01*
X79627751Y-81528483D01*
X79638237Y-81519107D01*
X79638547Y-81518859D01*
X79666248Y-81496746D01*
X79670226Y-81492039D01*
X79670229Y-81492036D01*
X79684900Y-81474675D01*
X79698059Y-81461273D01*
X79763094Y-81404238D01*
X79827498Y-81374361D01*
X79897831Y-81384046D01*
G37*
%TD.AperFunction*%
%TA.AperFunction,NonConductor*%
G36*
X77687249Y-82628181D02*
G01*
X77797934Y-82679794D01*
X77797942Y-82679797D01*
X77802924Y-82682120D01*
X78015629Y-82739115D01*
X78229525Y-82757828D01*
X78235000Y-82758307D01*
X78240475Y-82757828D01*
X78243972Y-82757828D01*
X78312093Y-82777830D01*
X78358586Y-82831486D01*
X78368690Y-82901760D01*
X78339196Y-82966340D01*
X78328589Y-82977187D01*
X78284315Y-83017315D01*
X78276934Y-83023507D01*
X78263474Y-83033948D01*
X78243187Y-83053677D01*
X78240958Y-83056391D01*
X78240954Y-83056395D01*
X78215352Y-83087564D01*
X78207082Y-83096683D01*
X78088356Y-83215409D01*
X78021139Y-83250400D01*
X78021105Y-83250406D01*
X78015629Y-83250885D01*
X78010324Y-83252306D01*
X78010321Y-83252307D01*
X77891738Y-83284082D01*
X77802924Y-83307880D01*
X77797944Y-83310202D01*
X77797939Y-83310204D01*
X77740210Y-83337124D01*
X77687248Y-83361820D01*
X77617059Y-83372481D01*
X77552246Y-83343501D01*
X77513389Y-83284082D01*
X77508000Y-83247625D01*
X77508000Y-82742376D01*
X77528002Y-82674255D01*
X77581658Y-82627762D01*
X77651932Y-82617658D01*
X77687249Y-82628181D01*
G37*
%TD.AperFunction*%
%TA.AperFunction,NonConductor*%
G36*
X110433130Y-84073991D02*
G01*
X110479623Y-84127647D01*
X110488588Y-84155407D01*
X110499021Y-84207857D01*
X110500600Y-84212255D01*
X110500602Y-84212262D01*
X110545022Y-84335980D01*
X110584831Y-84446858D01*
X110587048Y-84450984D01*
X110610699Y-84495000D01*
X110705025Y-84670551D01*
X110707820Y-84674294D01*
X110707822Y-84674297D01*
X110854171Y-84870282D01*
X110854176Y-84870288D01*
X110856963Y-84874020D01*
X110860278Y-84877306D01*
X110881072Y-84897920D01*
X110915368Y-84960083D01*
X110910611Y-85030920D01*
X110868312Y-85087941D01*
X110801901Y-85113041D01*
X110761753Y-85109626D01*
X110692390Y-85092252D01*
X110394528Y-85048069D01*
X110391446Y-85047918D01*
X110391440Y-85047917D01*
X110155130Y-85036308D01*
X110145523Y-85035467D01*
X110125547Y-85032944D01*
X110122064Y-85032504D01*
X110118555Y-85032455D01*
X110097292Y-85032158D01*
X110097289Y-85032158D01*
X110093769Y-85032109D01*
X110053850Y-85036023D01*
X110050129Y-85036388D01*
X110037833Y-85036989D01*
X82556876Y-85036989D01*
X82488755Y-85016987D01*
X82442262Y-84963331D01*
X82432158Y-84893057D01*
X82435169Y-84878377D01*
X82435456Y-84877306D01*
X82479115Y-84714371D01*
X82498307Y-84495000D01*
X82479115Y-84275629D01*
X82477691Y-84270315D01*
X82477690Y-84270309D01*
X82462227Y-84212601D01*
X82463916Y-84141625D01*
X82503709Y-84082829D01*
X82568973Y-84054880D01*
X82583933Y-84053989D01*
X110365009Y-84053989D01*
X110433130Y-84073991D01*
G37*
%TD.AperFunction*%
%TA.AperFunction,NonConductor*%
G36*
X79897831Y-84384046D02*
G01*
X79951762Y-84430218D01*
X79971011Y-84495060D01*
X79971693Y-84495000D01*
X79990885Y-84714371D01*
X79992308Y-84719681D01*
X80046457Y-84921765D01*
X80047880Y-84927076D01*
X80053511Y-84939153D01*
X80064174Y-85009342D01*
X80035197Y-85074155D01*
X79969933Y-85114628D01*
X79700198Y-85182192D01*
X79700188Y-85182195D01*
X79697198Y-85182944D01*
X79694289Y-85183985D01*
X79694272Y-85183990D01*
X79508041Y-85250625D01*
X79437164Y-85254742D01*
X79375313Y-85219886D01*
X79342125Y-85157124D01*
X79348137Y-85086382D01*
X79351398Y-85078741D01*
X79405214Y-84963331D01*
X79422120Y-84927076D01*
X79479115Y-84714371D01*
X79479594Y-84708894D01*
X79479600Y-84708862D01*
X79514591Y-84641643D01*
X79627751Y-84528483D01*
X79638237Y-84519107D01*
X79638547Y-84518859D01*
X79666248Y-84496746D01*
X79670226Y-84492039D01*
X79670229Y-84492036D01*
X79684900Y-84474675D01*
X79698059Y-84461273D01*
X79714496Y-84446858D01*
X79763095Y-84404238D01*
X79827498Y-84374361D01*
X79897831Y-84384046D01*
G37*
%TD.AperFunction*%
%TA.AperFunction,NonConductor*%
G36*
X77687249Y-85628181D02*
G01*
X77797934Y-85679794D01*
X77797942Y-85679797D01*
X77802924Y-85682120D01*
X78015629Y-85739115D01*
X78229525Y-85757828D01*
X78235000Y-85758307D01*
X78240475Y-85757828D01*
X78243972Y-85757828D01*
X78312093Y-85777830D01*
X78358586Y-85831486D01*
X78368690Y-85901760D01*
X78339196Y-85966340D01*
X78328589Y-85977187D01*
X78284315Y-86017315D01*
X78276934Y-86023507D01*
X78263474Y-86033948D01*
X78243187Y-86053677D01*
X78240958Y-86056391D01*
X78240954Y-86056395D01*
X78215352Y-86087564D01*
X78207082Y-86096683D01*
X78088356Y-86215409D01*
X78021139Y-86250400D01*
X78021105Y-86250406D01*
X78015629Y-86250885D01*
X78010324Y-86252306D01*
X78010321Y-86252307D01*
X77891738Y-86284082D01*
X77802924Y-86307880D01*
X77797944Y-86310202D01*
X77797939Y-86310204D01*
X77740210Y-86337124D01*
X77687248Y-86361820D01*
X77617059Y-86372481D01*
X77552246Y-86343501D01*
X77513389Y-86284082D01*
X77508000Y-86247625D01*
X77508000Y-85742376D01*
X77528002Y-85674255D01*
X77581658Y-85627762D01*
X77651932Y-85617658D01*
X77687249Y-85628181D01*
G37*
%TD.AperFunction*%
%TA.AperFunction,NonConductor*%
G36*
X110043998Y-87054774D02*
G01*
X110079624Y-87058770D01*
X110085770Y-87058254D01*
X110105640Y-87056586D01*
X110126066Y-87056532D01*
X110247786Y-87066111D01*
X110267316Y-87069205D01*
X110340903Y-87086872D01*
X110402472Y-87122224D01*
X110435154Y-87185250D01*
X110436819Y-87205174D01*
X110437296Y-87205151D01*
X110449480Y-87458798D01*
X110499021Y-87707857D01*
X110500600Y-87712255D01*
X110500602Y-87712262D01*
X110545022Y-87835980D01*
X110584831Y-87946858D01*
X110630638Y-88032109D01*
X110647703Y-88063869D01*
X110662326Y-88133343D01*
X110637068Y-88199695D01*
X110579946Y-88241857D01*
X110509098Y-88246444D01*
X110498822Y-88243675D01*
X110257939Y-88167725D01*
X110257934Y-88167724D01*
X110255309Y-88166896D01*
X109921267Y-88092841D01*
X109918547Y-88092483D01*
X109918542Y-88092482D01*
X109758726Y-88071442D01*
X109582042Y-88048181D01*
X109297724Y-88035767D01*
X109287436Y-88034894D01*
X109272007Y-88032945D01*
X109271997Y-88032944D01*
X109268511Y-88032504D01*
X109263498Y-88032434D01*
X109243739Y-88032158D01*
X109243736Y-88032158D01*
X109240216Y-88032109D01*
X109200297Y-88036023D01*
X109196576Y-88036388D01*
X109184280Y-88036989D01*
X82556876Y-88036989D01*
X82488755Y-88016987D01*
X82442262Y-87963331D01*
X82432158Y-87893057D01*
X82435169Y-87878377D01*
X82477692Y-87719681D01*
X82479115Y-87714371D01*
X82498307Y-87495000D01*
X82479115Y-87275629D01*
X82477691Y-87270315D01*
X82477690Y-87270309D01*
X82462227Y-87212601D01*
X82463916Y-87141625D01*
X82503709Y-87082829D01*
X82568973Y-87054880D01*
X82583933Y-87053989D01*
X110029954Y-87053989D01*
X110043998Y-87054774D01*
G37*
%TD.AperFunction*%
%TA.AperFunction,NonConductor*%
G36*
X79897831Y-87384046D02*
G01*
X79951762Y-87430218D01*
X79971011Y-87495060D01*
X79971693Y-87495000D01*
X79990885Y-87714371D01*
X79992308Y-87719681D01*
X80046457Y-87921765D01*
X80047880Y-87927076D01*
X80053511Y-87939153D01*
X80064174Y-88009342D01*
X80035197Y-88074155D01*
X79969933Y-88114628D01*
X79700198Y-88182192D01*
X79700188Y-88182195D01*
X79697198Y-88182944D01*
X79694289Y-88183985D01*
X79694272Y-88183990D01*
X79508041Y-88250625D01*
X79437164Y-88254742D01*
X79375313Y-88219886D01*
X79342125Y-88157124D01*
X79348137Y-88086382D01*
X79351398Y-88078741D01*
X79405214Y-87963331D01*
X79422120Y-87927076D01*
X79479115Y-87714371D01*
X79479594Y-87708894D01*
X79479600Y-87708862D01*
X79514591Y-87641643D01*
X79627751Y-87528483D01*
X79638237Y-87519107D01*
X79638547Y-87518859D01*
X79666248Y-87496746D01*
X79670226Y-87492039D01*
X79670229Y-87492036D01*
X79684900Y-87474675D01*
X79698059Y-87461273D01*
X79700881Y-87458798D01*
X79763095Y-87404238D01*
X79827498Y-87374361D01*
X79897831Y-87384046D01*
G37*
%TD.AperFunction*%
%TA.AperFunction,NonConductor*%
G36*
X77687249Y-88628181D02*
G01*
X77797934Y-88679794D01*
X77797942Y-88679797D01*
X77802924Y-88682120D01*
X78015629Y-88739115D01*
X78229525Y-88757828D01*
X78235000Y-88758307D01*
X78240475Y-88757828D01*
X78243972Y-88757828D01*
X78312093Y-88777830D01*
X78358586Y-88831486D01*
X78368690Y-88901760D01*
X78339196Y-88966340D01*
X78328589Y-88977187D01*
X78284315Y-89017315D01*
X78276934Y-89023507D01*
X78263474Y-89033948D01*
X78243187Y-89053677D01*
X78240958Y-89056391D01*
X78240954Y-89056395D01*
X78215352Y-89087564D01*
X78207082Y-89096683D01*
X78088356Y-89215409D01*
X78021139Y-89250400D01*
X78021105Y-89250406D01*
X78015629Y-89250885D01*
X78010324Y-89252306D01*
X78010321Y-89252307D01*
X77920269Y-89276437D01*
X77802924Y-89307880D01*
X77797944Y-89310202D01*
X77797939Y-89310204D01*
X77740210Y-89337124D01*
X77687248Y-89361820D01*
X77617059Y-89372481D01*
X77552246Y-89343501D01*
X77513389Y-89284082D01*
X77508000Y-89247625D01*
X77508000Y-88742376D01*
X77528002Y-88674255D01*
X77581658Y-88627762D01*
X77651932Y-88617658D01*
X77687249Y-88628181D01*
G37*
%TD.AperFunction*%
%TA.AperFunction,NonConductor*%
G36*
X79897831Y-90384046D02*
G01*
X79951762Y-90430218D01*
X79971011Y-90495060D01*
X79971693Y-90495000D01*
X79990885Y-90714371D01*
X79992308Y-90719681D01*
X80046457Y-90921765D01*
X80047880Y-90927076D01*
X80053511Y-90939153D01*
X80064174Y-91009342D01*
X80035197Y-91074155D01*
X79969933Y-91114628D01*
X79700198Y-91182192D01*
X79700188Y-91182195D01*
X79697198Y-91182944D01*
X79694289Y-91183985D01*
X79694272Y-91183990D01*
X79508041Y-91250625D01*
X79437164Y-91254742D01*
X79375313Y-91219886D01*
X79342125Y-91157124D01*
X79348137Y-91086382D01*
X79351398Y-91078741D01*
X79409506Y-90954126D01*
X79422120Y-90927076D01*
X79479115Y-90714371D01*
X79479594Y-90708894D01*
X79479600Y-90708862D01*
X79514591Y-90641643D01*
X79627751Y-90528483D01*
X79638237Y-90519107D01*
X79660404Y-90501411D01*
X79666248Y-90496746D01*
X79670226Y-90492039D01*
X79670229Y-90492036D01*
X79684900Y-90474675D01*
X79698059Y-90461273D01*
X79713250Y-90447951D01*
X79763095Y-90404238D01*
X79827498Y-90374361D01*
X79897831Y-90384046D01*
G37*
%TD.AperFunction*%
%TA.AperFunction,NonConductor*%
G36*
X109190443Y-90054774D02*
G01*
X109226069Y-90058770D01*
X109240411Y-90057566D01*
X109254859Y-90056353D01*
X109273640Y-90056181D01*
X109480140Y-90069715D01*
X109496482Y-90071866D01*
X109724209Y-90117164D01*
X109740128Y-90121430D01*
X109959984Y-90196061D01*
X109975211Y-90202368D01*
X110183450Y-90305060D01*
X110197724Y-90313301D01*
X110390774Y-90442293D01*
X110403843Y-90452320D01*
X110409178Y-90456998D01*
X110447210Y-90516949D01*
X110451473Y-90564360D01*
X110437296Y-90705151D01*
X110437520Y-90709817D01*
X110437520Y-90709822D01*
X110437994Y-90719681D01*
X110449480Y-90958798D01*
X110464914Y-91036388D01*
X110494274Y-91183990D01*
X110499021Y-91207857D01*
X110500600Y-91212255D01*
X110500602Y-91212262D01*
X110535286Y-91308864D01*
X110539480Y-91379736D01*
X110504691Y-91441625D01*
X110441965Y-91474882D01*
X110371217Y-91468946D01*
X110363947Y-91465867D01*
X110331664Y-91450984D01*
X110214175Y-91396821D01*
X109862380Y-91267037D01*
X109859996Y-91266365D01*
X109859991Y-91266363D01*
X109503874Y-91165927D01*
X109503862Y-91165924D01*
X109501486Y-91165254D01*
X109499066Y-91164773D01*
X109499055Y-91164770D01*
X109263787Y-91117973D01*
X109133719Y-91092101D01*
X109013422Y-91077863D01*
X108763800Y-91048318D01*
X108763789Y-91048317D01*
X108761346Y-91048028D01*
X108442382Y-91035496D01*
X108431562Y-91034602D01*
X108414958Y-91032504D01*
X108400416Y-91032301D01*
X108390186Y-91032158D01*
X108390183Y-91032158D01*
X108386663Y-91032109D01*
X108346744Y-91036023D01*
X108343023Y-91036388D01*
X108330727Y-91036989D01*
X82556876Y-91036989D01*
X82488755Y-91016987D01*
X82442262Y-90963331D01*
X82432158Y-90893057D01*
X82435169Y-90878377D01*
X82479115Y-90714371D01*
X82498307Y-90495000D01*
X82479115Y-90275629D01*
X82477691Y-90270315D01*
X82477690Y-90270309D01*
X82462227Y-90212601D01*
X82463916Y-90141625D01*
X82503709Y-90082829D01*
X82568973Y-90054880D01*
X82583933Y-90053989D01*
X109176399Y-90053989D01*
X109190443Y-90054774D01*
G37*
%TD.AperFunction*%
%TA.AperFunction,NonConductor*%
G36*
X77687249Y-91628181D02*
G01*
X77797934Y-91679794D01*
X77797942Y-91679797D01*
X77802924Y-91682120D01*
X78015629Y-91739115D01*
X78229525Y-91757828D01*
X78235000Y-91758307D01*
X78240475Y-91757828D01*
X78243972Y-91757828D01*
X78312093Y-91777830D01*
X78358586Y-91831486D01*
X78368690Y-91901760D01*
X78339196Y-91966340D01*
X78328589Y-91977187D01*
X78284315Y-92017315D01*
X78276934Y-92023507D01*
X78263474Y-92033948D01*
X78243187Y-92053677D01*
X78240958Y-92056391D01*
X78240954Y-92056395D01*
X78215352Y-92087564D01*
X78207082Y-92096683D01*
X78088356Y-92215409D01*
X78021139Y-92250400D01*
X78021105Y-92250406D01*
X78015629Y-92250885D01*
X78010324Y-92252306D01*
X78010321Y-92252307D01*
X77938481Y-92271557D01*
X77802924Y-92307880D01*
X77797944Y-92310202D01*
X77797939Y-92310204D01*
X77779053Y-92319011D01*
X77687248Y-92361820D01*
X77617059Y-92372481D01*
X77552246Y-92343501D01*
X77513389Y-92284082D01*
X77508000Y-92247625D01*
X77508000Y-91742376D01*
X77528002Y-91674255D01*
X77581658Y-91627762D01*
X77651932Y-91617658D01*
X77687249Y-91628181D01*
G37*
%TD.AperFunction*%
%TA.AperFunction,NonConductor*%
G36*
X77672469Y-106752257D02*
G01*
X77738196Y-106779100D01*
X77748719Y-106788506D01*
X78429854Y-107469641D01*
X78437280Y-107477744D01*
X78469207Y-107515793D01*
X78473422Y-107519330D01*
X78473424Y-107519332D01*
X78480727Y-107525461D01*
X78485262Y-107529455D01*
X78727784Y-107753639D01*
X78764569Y-107787643D01*
X79079787Y-108036141D01*
X79413531Y-108259141D01*
X79413433Y-108259288D01*
X79460413Y-108311216D01*
X79472019Y-108381258D01*
X79443915Y-108446455D01*
X79385024Y-108486109D01*
X79346946Y-108492000D01*
X77634000Y-108492000D01*
X77565879Y-108471998D01*
X77519386Y-108418342D01*
X77508000Y-108366000D01*
X77508000Y-106874975D01*
X77528002Y-106806854D01*
X77581658Y-106760361D01*
X77646843Y-106749631D01*
X77672469Y-106752257D01*
G37*
%TD.AperFunction*%
M02*
