%TF.GenerationSoftware,KiCad,Pcbnew,(6.0.0)*%
%TF.CreationDate,2022-04-26T02:16:27+02:00*%
%TF.ProjectId,Plug_Molex_microfit_3.0_To_Screew_v0.1,506c7567-5f4d-46f6-9c65-785f6d696372,rev?*%
%TF.SameCoordinates,Original*%
%TF.FileFunction,Legend,Top*%
%TF.FilePolarity,Positive*%
%FSLAX46Y46*%
G04 Gerber Fmt 4.6, Leading zero omitted, Abs format (unit mm)*
G04 Created by KiCad (PCBNEW (6.0.0)) date 2022-04-26 02:16:27*
%MOMM*%
%LPD*%
G01*
G04 APERTURE LIST*
%ADD10C,0.200000*%
%ADD11C,0.150000*%
%ADD12C,0.120000*%
G04 APERTURE END LIST*
D10*
X104857142Y-93452380D02*
X105190476Y-94452380D01*
X105523809Y-93452380D01*
X105714285Y-93452380D02*
X106047619Y-94452380D01*
X106380952Y-93452380D01*
X106571428Y-93452380D02*
X107142857Y-93452380D01*
X106857142Y-94452380D02*
X106857142Y-93452380D01*
D11*
X82850000Y-69916666D02*
X83850000Y-69916666D01*
X83083333Y-70950000D02*
X83783333Y-70950000D01*
X83083333Y-71283333D02*
X83783333Y-71283333D01*
X83083333Y-71683333D01*
X83783333Y-71683333D01*
X83750000Y-72383333D02*
X83783333Y-72316666D01*
X83783333Y-72216666D01*
X83750000Y-72116666D01*
X83683333Y-72050000D01*
X83616666Y-72016666D01*
X83483333Y-71983333D01*
X83383333Y-71983333D01*
X83250000Y-72016666D01*
X83183333Y-72050000D01*
X83116666Y-72116666D01*
X83083333Y-72216666D01*
X83083333Y-72283333D01*
X83116666Y-72383333D01*
X83150000Y-72416666D01*
X83383333Y-72416666D01*
X83383333Y-72283333D01*
X83716666Y-72683333D02*
X83750000Y-72716666D01*
X83783333Y-72783333D01*
X83783333Y-72950000D01*
X83750000Y-73016666D01*
X83716666Y-73050000D01*
X83650000Y-73083333D01*
X83583333Y-73083333D01*
X83483333Y-73050000D01*
X83083333Y-72650000D01*
X83083333Y-73083333D01*
X82850000Y-73550000D02*
X83850000Y-73550000D01*
X83083333Y-74583333D02*
X83783333Y-74583333D01*
X83083333Y-74916666D02*
X83783333Y-74916666D01*
X83083333Y-75316666D01*
X83783333Y-75316666D01*
X83750000Y-76016666D02*
X83783333Y-75950000D01*
X83783333Y-75850000D01*
X83750000Y-75750000D01*
X83683333Y-75683333D01*
X83616666Y-75650000D01*
X83483333Y-75616666D01*
X83383333Y-75616666D01*
X83250000Y-75650000D01*
X83183333Y-75683333D01*
X83116666Y-75750000D01*
X83083333Y-75850000D01*
X83083333Y-75916666D01*
X83116666Y-76016666D01*
X83150000Y-76050000D01*
X83383333Y-76050000D01*
X83383333Y-75916666D01*
X83083333Y-76716666D02*
X83083333Y-76316666D01*
X83083333Y-76516666D02*
X83783333Y-76516666D01*
X83683333Y-76450000D01*
X83616666Y-76383333D01*
X83583333Y-76316666D01*
X82850000Y-77183333D02*
X83850000Y-77183333D01*
X83083333Y-78216666D02*
X83783333Y-78216666D01*
X83783333Y-78383333D01*
X83750000Y-78483333D01*
X83683333Y-78550000D01*
X83616666Y-78583333D01*
X83483333Y-78616666D01*
X83383333Y-78616666D01*
X83250000Y-78583333D01*
X83183333Y-78550000D01*
X83116666Y-78483333D01*
X83083333Y-78383333D01*
X83083333Y-78216666D01*
X83083333Y-79250000D02*
X83083333Y-78916666D01*
X83783333Y-78916666D01*
X83083333Y-79483333D02*
X83783333Y-79483333D01*
X83450000Y-79816666D02*
X83450000Y-80050000D01*
X83083333Y-80150000D02*
X83083333Y-79816666D01*
X83783333Y-79816666D01*
X83783333Y-80150000D01*
X83716666Y-80416666D02*
X83750000Y-80450000D01*
X83783333Y-80516666D01*
X83783333Y-80683333D01*
X83750000Y-80750000D01*
X83716666Y-80783333D01*
X83650000Y-80816666D01*
X83583333Y-80816666D01*
X83483333Y-80783333D01*
X83083333Y-80383333D01*
X83083333Y-80816666D01*
X82850000Y-81283333D02*
X83850000Y-81283333D01*
X83083333Y-82316666D02*
X83783333Y-82316666D01*
X83083333Y-82650000D02*
X83783333Y-82650000D01*
X83083333Y-83050000D01*
X83783333Y-83050000D01*
X83783333Y-83583333D02*
X83283333Y-83583333D01*
X83183333Y-83550000D01*
X83116666Y-83483333D01*
X83083333Y-83383333D01*
X83083333Y-83316666D01*
X83716666Y-83883333D02*
X83750000Y-83916666D01*
X83783333Y-83983333D01*
X83783333Y-84150000D01*
X83750000Y-84216666D01*
X83716666Y-84250000D01*
X83650000Y-84283333D01*
X83583333Y-84283333D01*
X83483333Y-84250000D01*
X83083333Y-83850000D01*
X83083333Y-84283333D01*
X82850000Y-84750000D02*
X83850000Y-84750000D01*
X83083333Y-85783333D02*
X83783333Y-85783333D01*
X83083333Y-86116666D02*
X83783333Y-86116666D01*
X83083333Y-86516666D01*
X83783333Y-86516666D01*
X83783333Y-87050000D02*
X83283333Y-87050000D01*
X83183333Y-87016666D01*
X83116666Y-86950000D01*
X83083333Y-86850000D01*
X83083333Y-86783333D01*
X83083333Y-87750000D02*
X83083333Y-87350000D01*
X83083333Y-87550000D02*
X83783333Y-87550000D01*
X83683333Y-87483333D01*
X83616666Y-87416666D01*
X83583333Y-87350000D01*
X82850000Y-88216666D02*
X83850000Y-88216666D01*
X83450000Y-89483333D02*
X83450000Y-89250000D01*
X83083333Y-89250000D02*
X83783333Y-89250000D01*
X83783333Y-89583333D01*
X83083333Y-89850000D02*
X83783333Y-89850000D01*
X83783333Y-90116666D01*
X83750000Y-90183333D01*
X83716666Y-90216666D01*
X83650000Y-90250000D01*
X83550000Y-90250000D01*
X83483333Y-90216666D01*
X83450000Y-90183333D01*
X83416666Y-90116666D01*
X83416666Y-89850000D01*
X82850000Y-90716666D02*
X83850000Y-90716666D01*
X83083333Y-91750000D02*
X83783333Y-91750000D01*
X83083333Y-92083333D02*
X83783333Y-92083333D01*
X83783333Y-92250000D01*
X83750000Y-92350000D01*
X83683333Y-92416666D01*
X83616666Y-92450000D01*
X83483333Y-92483333D01*
X83383333Y-92483333D01*
X83250000Y-92450000D01*
X83183333Y-92416666D01*
X83116666Y-92350000D01*
X83083333Y-92250000D01*
X83083333Y-92083333D01*
X83083333Y-93116666D02*
X83083333Y-92783333D01*
X83783333Y-92783333D01*
X83450000Y-93350000D02*
X83450000Y-93583333D01*
X83083333Y-93683333D02*
X83083333Y-93350000D01*
X83783333Y-93350000D01*
X83783333Y-93683333D01*
X83083333Y-94350000D02*
X83083333Y-93950000D01*
X83083333Y-94150000D02*
X83783333Y-94150000D01*
X83683333Y-94083333D01*
X83616666Y-94016666D01*
X83583333Y-93950000D01*
X82850000Y-94816666D02*
X83850000Y-94816666D01*
X83750000Y-96216666D02*
X83783333Y-96150000D01*
X83783333Y-96050000D01*
X83750000Y-95950000D01*
X83683333Y-95883333D01*
X83616666Y-95850000D01*
X83483333Y-95816666D01*
X83383333Y-95816666D01*
X83250000Y-95850000D01*
X83183333Y-95883333D01*
X83116666Y-95950000D01*
X83083333Y-96050000D01*
X83083333Y-96116666D01*
X83116666Y-96216666D01*
X83150000Y-96250000D01*
X83383333Y-96250000D01*
X83383333Y-96116666D01*
X83083333Y-96550000D02*
X83783333Y-96550000D01*
X83083333Y-96950000D01*
X83783333Y-96950000D01*
X83083333Y-97283333D02*
X83783333Y-97283333D01*
X83783333Y-97450000D01*
X83750000Y-97550000D01*
X83683333Y-97616666D01*
X83616666Y-97650000D01*
X83483333Y-97683333D01*
X83383333Y-97683333D01*
X83250000Y-97650000D01*
X83183333Y-97616666D01*
X83116666Y-97550000D01*
X83083333Y-97450000D01*
X83083333Y-97283333D01*
X82850000Y-98150000D02*
X83850000Y-98150000D01*
X83750000Y-99550000D02*
X83783333Y-99483333D01*
X83783333Y-99383333D01*
X83750000Y-99283333D01*
X83683333Y-99216666D01*
X83616666Y-99183333D01*
X83483333Y-99150000D01*
X83383333Y-99150000D01*
X83250000Y-99183333D01*
X83183333Y-99216666D01*
X83116666Y-99283333D01*
X83083333Y-99383333D01*
X83083333Y-99450000D01*
X83116666Y-99550000D01*
X83150000Y-99583333D01*
X83383333Y-99583333D01*
X83383333Y-99450000D01*
X83083333Y-99883333D02*
X83783333Y-99883333D01*
X83083333Y-100283333D01*
X83783333Y-100283333D01*
X83083333Y-100616666D02*
X83783333Y-100616666D01*
X83783333Y-100783333D01*
X83750000Y-100883333D01*
X83683333Y-100950000D01*
X83616666Y-100983333D01*
X83483333Y-101016666D01*
X83383333Y-101016666D01*
X83250000Y-100983333D01*
X83183333Y-100950000D01*
X83116666Y-100883333D01*
X83083333Y-100783333D01*
X83083333Y-100616666D01*
X82850000Y-101483333D02*
X83850000Y-101483333D01*
X83750000Y-102883333D02*
X83783333Y-102816666D01*
X83783333Y-102716666D01*
X83750000Y-102616666D01*
X83683333Y-102550000D01*
X83616666Y-102516666D01*
X83483333Y-102483333D01*
X83383333Y-102483333D01*
X83250000Y-102516666D01*
X83183333Y-102550000D01*
X83116666Y-102616666D01*
X83083333Y-102716666D01*
X83083333Y-102783333D01*
X83116666Y-102883333D01*
X83150000Y-102916666D01*
X83383333Y-102916666D01*
X83383333Y-102783333D01*
X83083333Y-103216666D02*
X83783333Y-103216666D01*
X83083333Y-103616666D01*
X83783333Y-103616666D01*
X83083333Y-103950000D02*
X83783333Y-103950000D01*
X83783333Y-104116666D01*
X83750000Y-104216666D01*
X83683333Y-104283333D01*
X83616666Y-104316666D01*
X83483333Y-104350000D01*
X83383333Y-104350000D01*
X83250000Y-104316666D01*
X83183333Y-104283333D01*
X83116666Y-104216666D01*
X83083333Y-104116666D01*
X83083333Y-103950000D01*
X82850000Y-104816666D02*
X83850000Y-104816666D01*
X83083333Y-106216666D02*
X83083333Y-105816666D01*
X83083333Y-106016666D02*
X83783333Y-106016666D01*
X83683333Y-105950000D01*
X83616666Y-105883333D01*
X83583333Y-105816666D01*
X83716666Y-106483333D02*
X83750000Y-106516666D01*
X83783333Y-106583333D01*
X83783333Y-106750000D01*
X83750000Y-106816666D01*
X83716666Y-106850000D01*
X83650000Y-106883333D01*
X83583333Y-106883333D01*
X83483333Y-106850000D01*
X83083333Y-106450000D01*
X83083333Y-106883333D01*
X83550000Y-107116666D02*
X83083333Y-107283333D01*
X83550000Y-107450000D01*
X82850000Y-107883333D02*
X83850000Y-107883333D01*
D10*
X104500000Y-70452380D02*
X104500000Y-69452380D01*
X104976190Y-70452380D02*
X104976190Y-69452380D01*
X105547619Y-70452380D01*
X105547619Y-69452380D01*
X106547619Y-69500000D02*
X106452380Y-69452380D01*
X106309523Y-69452380D01*
X106166666Y-69500000D01*
X106071428Y-69595238D01*
X106023809Y-69690476D01*
X105976190Y-69880952D01*
X105976190Y-70023809D01*
X106023809Y-70214285D01*
X106071428Y-70309523D01*
X106166666Y-70404761D01*
X106309523Y-70452380D01*
X106404761Y-70452380D01*
X106547619Y-70404761D01*
X106595238Y-70357142D01*
X106595238Y-70023809D01*
X106404761Y-70023809D01*
X106976190Y-69547619D02*
X107023809Y-69500000D01*
X107119047Y-69452380D01*
X107357142Y-69452380D01*
X107452380Y-69500000D01*
X107500000Y-69547619D01*
X107547619Y-69642857D01*
X107547619Y-69738095D01*
X107500000Y-69880952D01*
X106928571Y-70452380D01*
X107547619Y-70452380D01*
X124988095Y-104500000D02*
X124892857Y-104452380D01*
X124750000Y-104452380D01*
X124607142Y-104500000D01*
X124511904Y-104595238D01*
X124464285Y-104690476D01*
X124416666Y-104880952D01*
X124416666Y-105023809D01*
X124464285Y-105214285D01*
X124511904Y-105309523D01*
X124607142Y-105404761D01*
X124750000Y-105452380D01*
X124845238Y-105452380D01*
X124988095Y-105404761D01*
X125035714Y-105357142D01*
X125035714Y-105023809D01*
X124845238Y-105023809D01*
X125464285Y-105452380D02*
X125464285Y-104452380D01*
X126035714Y-105452380D01*
X126035714Y-104452380D01*
X126511904Y-105452380D02*
X126511904Y-104452380D01*
X126750000Y-104452380D01*
X126892857Y-104500000D01*
X126988095Y-104595238D01*
X127035714Y-104690476D01*
X127083333Y-104880952D01*
X127083333Y-105023809D01*
X127035714Y-105214285D01*
X126988095Y-105309523D01*
X126892857Y-105404761D01*
X126750000Y-105452380D01*
X126511904Y-105452380D01*
D11*
X124400000Y-80116666D02*
X124633333Y-80816666D01*
X124866666Y-80116666D01*
X125500000Y-80816666D02*
X125266666Y-80483333D01*
X125100000Y-80816666D02*
X125100000Y-80116666D01*
X125366666Y-80116666D01*
X125433333Y-80150000D01*
X125466666Y-80183333D01*
X125500000Y-80250000D01*
X125500000Y-80350000D01*
X125466666Y-80416666D01*
X125433333Y-80450000D01*
X125366666Y-80483333D01*
X125100000Y-80483333D01*
X126166666Y-80816666D02*
X125766666Y-80816666D01*
X125966666Y-80816666D02*
X125966666Y-80116666D01*
X125900000Y-80216666D01*
X125833333Y-80283333D01*
X125766666Y-80316666D01*
X126466666Y-80550000D02*
X127000000Y-80550000D01*
D10*
X105238095Y-104000000D02*
X105142857Y-103952380D01*
X105000000Y-103952380D01*
X104857142Y-104000000D01*
X104761904Y-104095238D01*
X104714285Y-104190476D01*
X104666666Y-104380952D01*
X104666666Y-104523809D01*
X104714285Y-104714285D01*
X104761904Y-104809523D01*
X104857142Y-104904761D01*
X105000000Y-104952380D01*
X105095238Y-104952380D01*
X105238095Y-104904761D01*
X105285714Y-104857142D01*
X105285714Y-104523809D01*
X105095238Y-104523809D01*
X105714285Y-104952380D02*
X105714285Y-103952380D01*
X106285714Y-104952380D01*
X106285714Y-103952380D01*
X106761904Y-104952380D02*
X106761904Y-103952380D01*
X107000000Y-103952380D01*
X107142857Y-104000000D01*
X107238095Y-104095238D01*
X107285714Y-104190476D01*
X107333333Y-104380952D01*
X107333333Y-104523809D01*
X107285714Y-104714285D01*
X107238095Y-104809523D01*
X107142857Y-104904761D01*
X107000000Y-104952380D01*
X106761904Y-104952380D01*
X104166666Y-76952380D02*
X104166666Y-75952380D01*
X104642857Y-76952380D02*
X104642857Y-75952380D01*
X104880952Y-75952380D01*
X105023809Y-76000000D01*
X105119047Y-76095238D01*
X105166666Y-76190476D01*
X105214285Y-76380952D01*
X105214285Y-76523809D01*
X105166666Y-76714285D01*
X105119047Y-76809523D01*
X105023809Y-76904761D01*
X104880952Y-76952380D01*
X104642857Y-76952380D01*
X106119047Y-76952380D02*
X105642857Y-76952380D01*
X105642857Y-75952380D01*
X106452380Y-76428571D02*
X106785714Y-76428571D01*
X106928571Y-76952380D02*
X106452380Y-76952380D01*
X106452380Y-75952380D01*
X106928571Y-75952380D01*
X107309523Y-76047619D02*
X107357142Y-76000000D01*
X107452380Y-75952380D01*
X107690476Y-75952380D01*
X107785714Y-76000000D01*
X107833333Y-76047619D01*
X107880952Y-76142857D01*
X107880952Y-76238095D01*
X107833333Y-76380952D01*
X107261904Y-76952380D01*
X107880952Y-76952380D01*
D11*
X124400000Y-72866666D02*
X124633333Y-73566666D01*
X124866666Y-72866666D01*
X125500000Y-73566666D02*
X125266666Y-73233333D01*
X125100000Y-73566666D02*
X125100000Y-72866666D01*
X125366666Y-72866666D01*
X125433333Y-72900000D01*
X125466666Y-72933333D01*
X125500000Y-73000000D01*
X125500000Y-73100000D01*
X125466666Y-73166666D01*
X125433333Y-73200000D01*
X125366666Y-73233333D01*
X125100000Y-73233333D01*
X125766666Y-72933333D02*
X125800000Y-72900000D01*
X125866666Y-72866666D01*
X126033333Y-72866666D01*
X126100000Y-72900000D01*
X126133333Y-72933333D01*
X126166666Y-73000000D01*
X126166666Y-73066666D01*
X126133333Y-73166666D01*
X125733333Y-73566666D01*
X126166666Y-73566666D01*
X126466666Y-73300000D02*
X127000000Y-73300000D01*
D10*
X124940476Y-87702380D02*
X124940476Y-86702380D01*
X125369047Y-87416666D02*
X125845238Y-87416666D01*
X125273809Y-87702380D02*
X125607142Y-86702380D01*
X125940476Y-87702380D01*
X126130952Y-86702380D02*
X126702380Y-86702380D01*
X126416666Y-87702380D02*
X126416666Y-86702380D01*
X124535714Y-69202380D02*
X125107142Y-69202380D01*
X124821428Y-70202380D02*
X124821428Y-69202380D01*
X125392857Y-69916666D02*
X125869047Y-69916666D01*
X125297619Y-70202380D02*
X125630952Y-69202380D01*
X125964285Y-70202380D01*
X126869047Y-70107142D02*
X126821428Y-70154761D01*
X126678571Y-70202380D01*
X126583333Y-70202380D01*
X126440476Y-70154761D01*
X126345238Y-70059523D01*
X126297619Y-69964285D01*
X126250000Y-69773809D01*
X126250000Y-69630952D01*
X126297619Y-69440476D01*
X126345238Y-69345238D01*
X126440476Y-69250000D01*
X126583333Y-69202380D01*
X126678571Y-69202380D01*
X126821428Y-69250000D01*
X126869047Y-69297619D01*
X125309523Y-100702380D02*
X124833333Y-100702380D01*
X124785714Y-101178571D01*
X124833333Y-101130952D01*
X124928571Y-101083333D01*
X125166666Y-101083333D01*
X125261904Y-101130952D01*
X125309523Y-101178571D01*
X125357142Y-101273809D01*
X125357142Y-101511904D01*
X125309523Y-101607142D01*
X125261904Y-101654761D01*
X125166666Y-101702380D01*
X124928571Y-101702380D01*
X124833333Y-101654761D01*
X124785714Y-101607142D01*
X125642857Y-100702380D02*
X125976190Y-101702380D01*
X126309523Y-100702380D01*
D11*
X124400000Y-83616666D02*
X124633333Y-84316666D01*
X124866666Y-83616666D01*
X125500000Y-84316666D02*
X125266666Y-83983333D01*
X125100000Y-84316666D02*
X125100000Y-83616666D01*
X125366666Y-83616666D01*
X125433333Y-83650000D01*
X125466666Y-83683333D01*
X125500000Y-83750000D01*
X125500000Y-83850000D01*
X125466666Y-83916666D01*
X125433333Y-83950000D01*
X125366666Y-83983333D01*
X125100000Y-83983333D01*
X126166666Y-84316666D02*
X125766666Y-84316666D01*
X125966666Y-84316666D02*
X125966666Y-83616666D01*
X125900000Y-83716666D01*
X125833333Y-83783333D01*
X125766666Y-83816666D01*
X126466666Y-84050000D02*
X127000000Y-84050000D01*
X126733333Y-84316666D02*
X126733333Y-83783333D01*
D10*
X105238095Y-100500000D02*
X105142857Y-100452380D01*
X105000000Y-100452380D01*
X104857142Y-100500000D01*
X104761904Y-100595238D01*
X104714285Y-100690476D01*
X104666666Y-100880952D01*
X104666666Y-101023809D01*
X104714285Y-101214285D01*
X104761904Y-101309523D01*
X104857142Y-101404761D01*
X105000000Y-101452380D01*
X105095238Y-101452380D01*
X105238095Y-101404761D01*
X105285714Y-101357142D01*
X105285714Y-101023809D01*
X105095238Y-101023809D01*
X105714285Y-101452380D02*
X105714285Y-100452380D01*
X106285714Y-101452380D01*
X106285714Y-100452380D01*
X106761904Y-101452380D02*
X106761904Y-100452380D01*
X107000000Y-100452380D01*
X107142857Y-100500000D01*
X107238095Y-100595238D01*
X107285714Y-100690476D01*
X107333333Y-100880952D01*
X107333333Y-101023809D01*
X107285714Y-101214285D01*
X107238095Y-101309523D01*
X107142857Y-101404761D01*
X107000000Y-101452380D01*
X106761904Y-101452380D01*
D11*
X124400000Y-76616666D02*
X124633333Y-77316666D01*
X124866666Y-76616666D01*
X125500000Y-77316666D02*
X125266666Y-76983333D01*
X125100000Y-77316666D02*
X125100000Y-76616666D01*
X125366666Y-76616666D01*
X125433333Y-76650000D01*
X125466666Y-76683333D01*
X125500000Y-76750000D01*
X125500000Y-76850000D01*
X125466666Y-76916666D01*
X125433333Y-76950000D01*
X125366666Y-76983333D01*
X125100000Y-76983333D01*
X125766666Y-76683333D02*
X125800000Y-76650000D01*
X125866666Y-76616666D01*
X126033333Y-76616666D01*
X126100000Y-76650000D01*
X126133333Y-76683333D01*
X126166666Y-76750000D01*
X126166666Y-76816666D01*
X126133333Y-76916666D01*
X125733333Y-77316666D01*
X126166666Y-77316666D01*
X126466666Y-77050000D02*
X127000000Y-77050000D01*
X126733333Y-77316666D02*
X126733333Y-76783333D01*
D10*
X125273809Y-97202380D02*
X125464285Y-97202380D01*
X125559523Y-97250000D01*
X125654761Y-97345238D01*
X125702380Y-97535714D01*
X125702380Y-97869047D01*
X125654761Y-98059523D01*
X125559523Y-98154761D01*
X125464285Y-98202380D01*
X125273809Y-98202380D01*
X125178571Y-98154761D01*
X125083333Y-98059523D01*
X125035714Y-97869047D01*
X125035714Y-97535714D01*
X125083333Y-97345238D01*
X125178571Y-97250000D01*
X125273809Y-97202380D01*
X126083333Y-96964285D02*
X126178571Y-96916666D01*
X126321428Y-96916666D01*
X126416666Y-96964285D01*
X126464285Y-97059523D01*
X126464285Y-97154761D01*
X126416666Y-97250000D01*
X126083333Y-97583333D01*
X126464285Y-97583333D01*
X124488095Y-93952380D02*
X125059523Y-93952380D01*
X124773809Y-94952380D02*
X124773809Y-93952380D01*
X125392857Y-94952380D02*
X125392857Y-93952380D01*
X125773809Y-93952380D01*
X125869047Y-94000000D01*
X125916666Y-94047619D01*
X125964285Y-94142857D01*
X125964285Y-94285714D01*
X125916666Y-94380952D01*
X125869047Y-94428571D01*
X125773809Y-94476190D01*
X125392857Y-94476190D01*
X126345238Y-94904761D02*
X126488095Y-94952380D01*
X126726190Y-94952380D01*
X126821428Y-94904761D01*
X126869047Y-94857142D01*
X126916666Y-94761904D01*
X126916666Y-94666666D01*
X126869047Y-94571428D01*
X126821428Y-94523809D01*
X126726190Y-94476190D01*
X126535714Y-94428571D01*
X126440476Y-94380952D01*
X126392857Y-94333333D01*
X126345238Y-94238095D01*
X126345238Y-94142857D01*
X126392857Y-94047619D01*
X126440476Y-94000000D01*
X126535714Y-93952380D01*
X126773809Y-93952380D01*
X126916666Y-94000000D01*
X104619047Y-83952380D02*
X104619047Y-82952380D01*
X105095238Y-83952380D02*
X105095238Y-82952380D01*
X105666666Y-83952380D01*
X105666666Y-82952380D01*
X106428571Y-82952380D02*
X106428571Y-83666666D01*
X106380952Y-83809523D01*
X106285714Y-83904761D01*
X106142857Y-83952380D01*
X106047619Y-83952380D01*
X106857142Y-83047619D02*
X106904761Y-83000000D01*
X107000000Y-82952380D01*
X107238095Y-82952380D01*
X107333333Y-83000000D01*
X107380952Y-83047619D01*
X107428571Y-83142857D01*
X107428571Y-83238095D01*
X107380952Y-83380952D01*
X106809523Y-83952380D01*
X107428571Y-83952380D01*
D11*
X84410714Y-69496428D02*
X85482142Y-69496428D01*
X85410714Y-69925000D02*
X85410714Y-70353571D01*
X84660714Y-70139285D02*
X85410714Y-70139285D01*
X84875000Y-70567857D02*
X84875000Y-70925000D01*
X84660714Y-70496428D02*
X85410714Y-70746428D01*
X84660714Y-70996428D01*
X84732142Y-71675000D02*
X84696428Y-71639285D01*
X84660714Y-71532142D01*
X84660714Y-71460714D01*
X84696428Y-71353571D01*
X84767857Y-71282142D01*
X84839285Y-71246428D01*
X84982142Y-71210714D01*
X85089285Y-71210714D01*
X85232142Y-71246428D01*
X85303571Y-71282142D01*
X85375000Y-71353571D01*
X85410714Y-71460714D01*
X85410714Y-71532142D01*
X85375000Y-71639285D01*
X85339285Y-71675000D01*
X84660714Y-71996428D02*
X85410714Y-71996428D01*
X85053571Y-71996428D02*
X85053571Y-72425000D01*
X84660714Y-72425000D02*
X85410714Y-72425000D01*
X85410714Y-72925000D02*
X85410714Y-73067857D01*
X85375000Y-73139285D01*
X85303571Y-73210714D01*
X85160714Y-73246428D01*
X84910714Y-73246428D01*
X84767857Y-73210714D01*
X84696428Y-73139285D01*
X84660714Y-73067857D01*
X84660714Y-72925000D01*
X84696428Y-72853571D01*
X84767857Y-72782142D01*
X84910714Y-72746428D01*
X85160714Y-72746428D01*
X85303571Y-72782142D01*
X85375000Y-72853571D01*
X85410714Y-72925000D01*
X84410714Y-73746428D02*
X85482142Y-73746428D01*
X85410714Y-74175000D02*
X84660714Y-74425000D01*
X85410714Y-74675000D01*
X84660714Y-75353571D02*
X85017857Y-75103571D01*
X84660714Y-74925000D02*
X85410714Y-74925000D01*
X85410714Y-75210714D01*
X85375000Y-75282142D01*
X85339285Y-75317857D01*
X85267857Y-75353571D01*
X85160714Y-75353571D01*
X85089285Y-75317857D01*
X85053571Y-75282142D01*
X85017857Y-75210714D01*
X85017857Y-74925000D01*
X85339285Y-75639285D02*
X85375000Y-75675000D01*
X85410714Y-75746428D01*
X85410714Y-75925000D01*
X85375000Y-75996428D01*
X85339285Y-76032142D01*
X85267857Y-76067857D01*
X85196428Y-76067857D01*
X85089285Y-76032142D01*
X84660714Y-75603571D01*
X84660714Y-76067857D01*
X84946428Y-76389285D02*
X84946428Y-76960714D01*
X84410714Y-77496428D02*
X85482142Y-77496428D01*
X85410714Y-77925000D02*
X84660714Y-78175000D01*
X85410714Y-78425000D01*
X84660714Y-79103571D02*
X85017857Y-78853571D01*
X84660714Y-78675000D02*
X85410714Y-78675000D01*
X85410714Y-78960714D01*
X85375000Y-79032142D01*
X85339285Y-79067857D01*
X85267857Y-79103571D01*
X85160714Y-79103571D01*
X85089285Y-79067857D01*
X85053571Y-79032142D01*
X85017857Y-78960714D01*
X85017857Y-78675000D01*
X85339285Y-79389285D02*
X85375000Y-79425000D01*
X85410714Y-79496428D01*
X85410714Y-79675000D01*
X85375000Y-79746428D01*
X85339285Y-79782142D01*
X85267857Y-79817857D01*
X85196428Y-79817857D01*
X85089285Y-79782142D01*
X84660714Y-79353571D01*
X84660714Y-79817857D01*
X84946428Y-80139285D02*
X84946428Y-80710714D01*
X84660714Y-80425000D02*
X85232142Y-80425000D01*
X84410714Y-81246428D02*
X85482142Y-81246428D01*
X85410714Y-81675000D02*
X84660714Y-81925000D01*
X85410714Y-82175000D01*
X84660714Y-82853571D02*
X85017857Y-82603571D01*
X84660714Y-82425000D02*
X85410714Y-82425000D01*
X85410714Y-82710714D01*
X85375000Y-82782142D01*
X85339285Y-82817857D01*
X85267857Y-82853571D01*
X85160714Y-82853571D01*
X85089285Y-82817857D01*
X85053571Y-82782142D01*
X85017857Y-82710714D01*
X85017857Y-82425000D01*
X84660714Y-83567857D02*
X84660714Y-83139285D01*
X84660714Y-83353571D02*
X85410714Y-83353571D01*
X85303571Y-83282142D01*
X85232142Y-83210714D01*
X85196428Y-83139285D01*
X84946428Y-83889285D02*
X84946428Y-84460714D01*
X84410714Y-84996428D02*
X85482142Y-84996428D01*
X85410714Y-85425000D02*
X84660714Y-85675000D01*
X85410714Y-85925000D01*
X84660714Y-86603571D02*
X85017857Y-86353571D01*
X84660714Y-86175000D02*
X85410714Y-86175000D01*
X85410714Y-86460714D01*
X85375000Y-86532142D01*
X85339285Y-86567857D01*
X85267857Y-86603571D01*
X85160714Y-86603571D01*
X85089285Y-86567857D01*
X85053571Y-86532142D01*
X85017857Y-86460714D01*
X85017857Y-86175000D01*
X84660714Y-87317857D02*
X84660714Y-86889285D01*
X84660714Y-87103571D02*
X85410714Y-87103571D01*
X85303571Y-87032142D01*
X85232142Y-86960714D01*
X85196428Y-86889285D01*
X84946428Y-87639285D02*
X84946428Y-88210714D01*
X84660714Y-87925000D02*
X85232142Y-87925000D01*
X84410714Y-88746428D02*
X85482142Y-88746428D01*
X84660714Y-89282142D02*
X85410714Y-89282142D01*
X84875000Y-89603571D02*
X84875000Y-89960714D01*
X84660714Y-89532142D02*
X85410714Y-89782142D01*
X84660714Y-90032142D01*
X85410714Y-90175000D02*
X85410714Y-90603571D01*
X84660714Y-90389285D02*
X85410714Y-90389285D01*
X84410714Y-91032142D02*
X85482142Y-91032142D01*
X84732142Y-91996428D02*
X84696428Y-91960714D01*
X84660714Y-91853571D01*
X84660714Y-91782142D01*
X84696428Y-91675000D01*
X84767857Y-91603571D01*
X84839285Y-91567857D01*
X84982142Y-91532142D01*
X85089285Y-91532142D01*
X85232142Y-91567857D01*
X85303571Y-91603571D01*
X85375000Y-91675000D01*
X85410714Y-91782142D01*
X85410714Y-91853571D01*
X85375000Y-91960714D01*
X85339285Y-91996428D01*
X84660714Y-92675000D02*
X84660714Y-92317857D01*
X85410714Y-92317857D01*
X85410714Y-92817857D02*
X85410714Y-93246428D01*
X84660714Y-93032142D02*
X85410714Y-93032142D01*
X84410714Y-93675000D02*
X85482142Y-93675000D01*
X85410714Y-94103571D02*
X85410714Y-94532142D01*
X84660714Y-94317857D02*
X85410714Y-94317857D01*
X84660714Y-94782142D02*
X85410714Y-94782142D01*
X85410714Y-95067857D01*
X85375000Y-95139285D01*
X85339285Y-95175000D01*
X85267857Y-95210714D01*
X85160714Y-95210714D01*
X85089285Y-95175000D01*
X85053571Y-95139285D01*
X85017857Y-95067857D01*
X85017857Y-94782142D01*
X84696428Y-95496428D02*
X84660714Y-95603571D01*
X84660714Y-95782142D01*
X84696428Y-95853571D01*
X84732142Y-95889285D01*
X84803571Y-95925000D01*
X84875000Y-95925000D01*
X84946428Y-95889285D01*
X84982142Y-95853571D01*
X85017857Y-95782142D01*
X85053571Y-95639285D01*
X85089285Y-95567857D01*
X85125000Y-95532142D01*
X85196428Y-95496428D01*
X85267857Y-95496428D01*
X85339285Y-95532142D01*
X85375000Y-95567857D01*
X85410714Y-95639285D01*
X85410714Y-95817857D01*
X85375000Y-95925000D01*
X84410714Y-96425000D02*
X85482142Y-96425000D01*
X85410714Y-97103571D02*
X85410714Y-97246428D01*
X85375000Y-97317857D01*
X85303571Y-97389285D01*
X85160714Y-97425000D01*
X84910714Y-97425000D01*
X84767857Y-97389285D01*
X84696428Y-97317857D01*
X84660714Y-97246428D01*
X84660714Y-97103571D01*
X84696428Y-97032142D01*
X84767857Y-96960714D01*
X84910714Y-96925000D01*
X85160714Y-96925000D01*
X85303571Y-96960714D01*
X85375000Y-97032142D01*
X85410714Y-97103571D01*
X85589285Y-97710714D02*
X85625000Y-97782142D01*
X85625000Y-97889285D01*
X85589285Y-97960714D01*
X85517857Y-97996428D01*
X85446428Y-97996428D01*
X85375000Y-97960714D01*
X85125000Y-97710714D01*
X85125000Y-97996428D01*
X84410714Y-98496428D02*
X85482142Y-98496428D01*
X85410714Y-99389285D02*
X85410714Y-99032142D01*
X85053571Y-98996428D01*
X85089285Y-99032142D01*
X85125000Y-99103571D01*
X85125000Y-99282142D01*
X85089285Y-99353571D01*
X85053571Y-99389285D01*
X84982142Y-99425000D01*
X84803571Y-99425000D01*
X84732142Y-99389285D01*
X84696428Y-99353571D01*
X84660714Y-99282142D01*
X84660714Y-99103571D01*
X84696428Y-99032142D01*
X84732142Y-98996428D01*
X85160714Y-99675000D02*
X84660714Y-99853571D01*
X85160714Y-100032142D01*
X84410714Y-100496428D02*
X85482142Y-100496428D01*
X85375000Y-101425000D02*
X85410714Y-101353571D01*
X85410714Y-101246428D01*
X85375000Y-101139285D01*
X85303571Y-101067857D01*
X85232142Y-101032142D01*
X85089285Y-100996428D01*
X84982142Y-100996428D01*
X84839285Y-101032142D01*
X84767857Y-101067857D01*
X84696428Y-101139285D01*
X84660714Y-101246428D01*
X84660714Y-101317857D01*
X84696428Y-101425000D01*
X84732142Y-101460714D01*
X84982142Y-101460714D01*
X84982142Y-101317857D01*
X84660714Y-101782142D02*
X85410714Y-101782142D01*
X84660714Y-102210714D01*
X85410714Y-102210714D01*
X84660714Y-102567857D02*
X85410714Y-102567857D01*
X85410714Y-102746428D01*
X85375000Y-102853571D01*
X85303571Y-102925000D01*
X85232142Y-102960714D01*
X85089285Y-102996428D01*
X84982142Y-102996428D01*
X84839285Y-102960714D01*
X84767857Y-102925000D01*
X84696428Y-102853571D01*
X84660714Y-102746428D01*
X84660714Y-102567857D01*
X84410714Y-103496428D02*
X85482142Y-103496428D01*
X85053571Y-104282142D02*
X85053571Y-104032142D01*
X84660714Y-104032142D02*
X85410714Y-104032142D01*
X85410714Y-104389285D01*
X84660714Y-104782142D02*
X84696428Y-104710714D01*
X84767857Y-104675000D01*
X85410714Y-104675000D01*
X84660714Y-105389285D02*
X85053571Y-105389285D01*
X85125000Y-105353571D01*
X85160714Y-105282142D01*
X85160714Y-105139285D01*
X85125000Y-105067857D01*
X84696428Y-105389285D02*
X84660714Y-105317857D01*
X84660714Y-105139285D01*
X84696428Y-105067857D01*
X84767857Y-105032142D01*
X84839285Y-105032142D01*
X84910714Y-105067857D01*
X84946428Y-105139285D01*
X84946428Y-105317857D01*
X84982142Y-105389285D01*
X85160714Y-106067857D02*
X84660714Y-106067857D01*
X85160714Y-105746428D02*
X84767857Y-105746428D01*
X84696428Y-105782142D01*
X84660714Y-105853571D01*
X84660714Y-105960714D01*
X84696428Y-106032142D01*
X84732142Y-106067857D01*
X85160714Y-106425000D02*
X84660714Y-106425000D01*
X85089285Y-106425000D02*
X85125000Y-106460714D01*
X85160714Y-106532142D01*
X85160714Y-106639285D01*
X85125000Y-106710714D01*
X85053571Y-106746428D01*
X84660714Y-106746428D01*
X84696428Y-107425000D02*
X84660714Y-107353571D01*
X84660714Y-107210714D01*
X84696428Y-107139285D01*
X84732142Y-107103571D01*
X84803571Y-107067857D01*
X85017857Y-107067857D01*
X85089285Y-107103571D01*
X85125000Y-107139285D01*
X85160714Y-107210714D01*
X85160714Y-107353571D01*
X85125000Y-107425000D01*
X84660714Y-107746428D02*
X85410714Y-107746428D01*
X84660714Y-108067857D02*
X85053571Y-108067857D01*
X85125000Y-108032142D01*
X85160714Y-107960714D01*
X85160714Y-107853571D01*
X85125000Y-107782142D01*
X85089285Y-107746428D01*
X84410714Y-108603571D02*
X85482142Y-108603571D01*
D10*
X99619047Y-86928571D02*
X99285714Y-86928571D01*
X99285714Y-87452380D02*
X99285714Y-86452380D01*
X99761904Y-86452380D01*
X100571428Y-86785714D02*
X100571428Y-87452380D01*
X100142857Y-86785714D02*
X100142857Y-87309523D01*
X100190476Y-87404761D01*
X100285714Y-87452380D01*
X100428571Y-87452380D01*
X100523809Y-87404761D01*
X100571428Y-87357142D01*
X101428571Y-87404761D02*
X101333333Y-87452380D01*
X101142857Y-87452380D01*
X101047619Y-87404761D01*
X101000000Y-87309523D01*
X101000000Y-86928571D01*
X101047619Y-86833333D01*
X101142857Y-86785714D01*
X101333333Y-86785714D01*
X101428571Y-86833333D01*
X101476190Y-86928571D01*
X101476190Y-87023809D01*
X101000000Y-87119047D01*
X102047619Y-87452380D02*
X101952380Y-87404761D01*
X101904761Y-87309523D01*
X101904761Y-86452380D01*
X103190476Y-87452380D02*
X103190476Y-86452380D01*
X103571428Y-86452380D01*
X103666666Y-86500000D01*
X103714285Y-86547619D01*
X103761904Y-86642857D01*
X103761904Y-86785714D01*
X103714285Y-86880952D01*
X103666666Y-86928571D01*
X103571428Y-86976190D01*
X103190476Y-86976190D01*
X104333333Y-87452380D02*
X104238095Y-87404761D01*
X104190476Y-87357142D01*
X104142857Y-87261904D01*
X104142857Y-86976190D01*
X104190476Y-86880952D01*
X104238095Y-86833333D01*
X104333333Y-86785714D01*
X104476190Y-86785714D01*
X104571428Y-86833333D01*
X104619047Y-86880952D01*
X104666666Y-86976190D01*
X104666666Y-87261904D01*
X104619047Y-87357142D01*
X104571428Y-87404761D01*
X104476190Y-87452380D01*
X104333333Y-87452380D01*
X105095238Y-87452380D02*
X105095238Y-86785714D01*
X105095238Y-86880952D02*
X105142857Y-86833333D01*
X105238095Y-86785714D01*
X105380952Y-86785714D01*
X105476190Y-86833333D01*
X105523809Y-86928571D01*
X105523809Y-87452380D01*
X105523809Y-86928571D02*
X105571428Y-86833333D01*
X105666666Y-86785714D01*
X105809523Y-86785714D01*
X105904761Y-86833333D01*
X105952380Y-86928571D01*
X105952380Y-87452380D01*
X106428571Y-86785714D02*
X106428571Y-87785714D01*
X106428571Y-86833333D02*
X106523809Y-86785714D01*
X106714285Y-86785714D01*
X106809523Y-86833333D01*
X106857142Y-86880952D01*
X106904761Y-86976190D01*
X106904761Y-87261904D01*
X106857142Y-87357142D01*
X106809523Y-87404761D01*
X106714285Y-87452380D01*
X106523809Y-87452380D01*
X106428571Y-87404761D01*
X107714285Y-87404761D02*
X107619047Y-87452380D01*
X107428571Y-87452380D01*
X107333333Y-87404761D01*
X107285714Y-87309523D01*
X107285714Y-86928571D01*
X107333333Y-86833333D01*
X107428571Y-86785714D01*
X107619047Y-86785714D01*
X107714285Y-86833333D01*
X107761904Y-86928571D01*
X107761904Y-87023809D01*
X107285714Y-87119047D01*
X104166666Y-90952380D02*
X104166666Y-89952380D01*
X104642857Y-90952380D02*
X104642857Y-89952380D01*
X104880952Y-89952380D01*
X105023809Y-90000000D01*
X105119047Y-90095238D01*
X105166666Y-90190476D01*
X105214285Y-90380952D01*
X105214285Y-90523809D01*
X105166666Y-90714285D01*
X105119047Y-90809523D01*
X105023809Y-90904761D01*
X104880952Y-90952380D01*
X104642857Y-90952380D01*
X106119047Y-90952380D02*
X105642857Y-90952380D01*
X105642857Y-89952380D01*
X106452380Y-90428571D02*
X106785714Y-90428571D01*
X106928571Y-90952380D02*
X106452380Y-90952380D01*
X106452380Y-89952380D01*
X106928571Y-89952380D01*
X107880952Y-90952380D02*
X107309523Y-90952380D01*
X107595238Y-90952380D02*
X107595238Y-89952380D01*
X107500000Y-90095238D01*
X107404761Y-90190476D01*
X107309523Y-90238095D01*
D11*
X88613500Y-96000000D02*
X88580166Y-96100000D01*
X88546833Y-96133333D01*
X88480166Y-96166666D01*
X88380166Y-96166666D01*
X88313500Y-96133333D01*
X88280166Y-96100000D01*
X88246833Y-96033333D01*
X88246833Y-95766666D01*
X88946833Y-95766666D01*
X88946833Y-96000000D01*
X88913500Y-96066666D01*
X88880166Y-96100000D01*
X88813500Y-96133333D01*
X88746833Y-96133333D01*
X88680166Y-96100000D01*
X88646833Y-96066666D01*
X88613500Y-96000000D01*
X88613500Y-95766666D01*
X88713500Y-96400000D02*
X88246833Y-96566666D01*
X88713500Y-96733333D02*
X88246833Y-96566666D01*
X88080166Y-96500000D01*
X88046833Y-96466666D01*
X88013500Y-96400000D01*
X88446833Y-97500000D02*
X88446833Y-97833333D01*
X88246833Y-97433333D02*
X88946833Y-97666666D01*
X88246833Y-97900000D01*
X88246833Y-98233333D02*
X88280166Y-98166666D01*
X88346833Y-98133333D01*
X88946833Y-98133333D01*
X88713500Y-98500000D02*
X88013500Y-98500000D01*
X88680166Y-98500000D02*
X88713500Y-98566666D01*
X88713500Y-98700000D01*
X88680166Y-98766666D01*
X88646833Y-98800000D01*
X88580166Y-98833333D01*
X88380166Y-98833333D01*
X88313500Y-98800000D01*
X88280166Y-98766666D01*
X88246833Y-98700000D01*
X88246833Y-98566666D01*
X88280166Y-98500000D01*
X88246833Y-99133333D02*
X88946833Y-99133333D01*
X88246833Y-99433333D02*
X88613500Y-99433333D01*
X88680166Y-99400000D01*
X88713500Y-99333333D01*
X88713500Y-99233333D01*
X88680166Y-99166666D01*
X88646833Y-99133333D01*
X88246833Y-100066666D02*
X88613500Y-100066666D01*
X88680166Y-100033333D01*
X88713500Y-99966666D01*
X88713500Y-99833333D01*
X88680166Y-99766666D01*
X88280166Y-100066666D02*
X88246833Y-100000000D01*
X88246833Y-99833333D01*
X88280166Y-99766666D01*
X88346833Y-99733333D01*
X88413500Y-99733333D01*
X88480166Y-99766666D01*
X88513500Y-99833333D01*
X88513500Y-100000000D01*
X88546833Y-100066666D01*
X88280166Y-100366666D02*
X88246833Y-100433333D01*
X88246833Y-100566666D01*
X88280166Y-100633333D01*
X88346833Y-100666666D01*
X88380166Y-100666666D01*
X88446833Y-100633333D01*
X88480166Y-100566666D01*
X88480166Y-100466666D01*
X88513500Y-100400000D01*
X88580166Y-100366666D01*
X88613500Y-100366666D01*
X88680166Y-100400000D01*
X88713500Y-100466666D01*
X88713500Y-100566666D01*
X88680166Y-100633333D01*
X88280166Y-101233333D02*
X88246833Y-101166666D01*
X88246833Y-101033333D01*
X88280166Y-100966666D01*
X88346833Y-100933333D01*
X88613500Y-100933333D01*
X88680166Y-100966666D01*
X88713500Y-101033333D01*
X88713500Y-101166666D01*
X88680166Y-101233333D01*
X88613500Y-101266666D01*
X88546833Y-101266666D01*
X88480166Y-100933333D01*
X87119833Y-89016666D02*
X87819833Y-89016666D01*
X87819833Y-89283333D01*
X87786500Y-89350000D01*
X87753166Y-89383333D01*
X87686500Y-89416666D01*
X87586500Y-89416666D01*
X87519833Y-89383333D01*
X87486500Y-89350000D01*
X87453166Y-89283333D01*
X87453166Y-89016666D01*
X87119833Y-89716666D02*
X87586500Y-89716666D01*
X87453166Y-89716666D02*
X87519833Y-89750000D01*
X87553166Y-89783333D01*
X87586500Y-89850000D01*
X87586500Y-89916666D01*
X87119833Y-90250000D02*
X87153166Y-90183333D01*
X87186500Y-90150000D01*
X87253166Y-90116666D01*
X87453166Y-90116666D01*
X87519833Y-90150000D01*
X87553166Y-90183333D01*
X87586500Y-90250000D01*
X87586500Y-90350000D01*
X87553166Y-90416666D01*
X87519833Y-90450000D01*
X87453166Y-90483333D01*
X87253166Y-90483333D01*
X87186500Y-90450000D01*
X87153166Y-90416666D01*
X87119833Y-90350000D01*
X87119833Y-90250000D01*
X87586500Y-90783333D02*
X86986500Y-90783333D01*
X86919833Y-90750000D01*
X86886500Y-90683333D01*
X86886500Y-90650000D01*
X87819833Y-90783333D02*
X87786500Y-90750000D01*
X87753166Y-90783333D01*
X87786500Y-90816666D01*
X87819833Y-90783333D01*
X87753166Y-90783333D01*
X87153166Y-91383333D02*
X87119833Y-91316666D01*
X87119833Y-91183333D01*
X87153166Y-91116666D01*
X87219833Y-91083333D01*
X87486500Y-91083333D01*
X87553166Y-91116666D01*
X87586500Y-91183333D01*
X87586500Y-91316666D01*
X87553166Y-91383333D01*
X87486500Y-91416666D01*
X87419833Y-91416666D01*
X87353166Y-91083333D01*
X87586500Y-91616666D02*
X87586500Y-91883333D01*
X87819833Y-91716666D02*
X87219833Y-91716666D01*
X87153166Y-91750000D01*
X87119833Y-91816666D01*
X87119833Y-91883333D01*
X87053166Y-91950000D02*
X87053166Y-92483333D01*
X87119833Y-93016666D02*
X87119833Y-92616666D01*
X87119833Y-92816666D02*
X87819833Y-92816666D01*
X87719833Y-92750000D01*
X87653166Y-92683333D01*
X87619833Y-92616666D01*
X87586500Y-93616666D02*
X87119833Y-93616666D01*
X87853166Y-93450000D02*
X87353166Y-93283333D01*
X87353166Y-93716666D01*
X87819833Y-93916666D02*
X87819833Y-94383333D01*
X87119833Y-94083333D01*
X87053166Y-94483333D02*
X87053166Y-95016666D01*
X87819833Y-95083333D02*
X87819833Y-95483333D01*
X87119833Y-95283333D02*
X87819833Y-95283333D01*
X87153166Y-95683333D02*
X87119833Y-95783333D01*
X87119833Y-95950000D01*
X87153166Y-96016666D01*
X87186500Y-96050000D01*
X87253166Y-96083333D01*
X87319833Y-96083333D01*
X87386500Y-96050000D01*
X87419833Y-96016666D01*
X87453166Y-95950000D01*
X87486500Y-95816666D01*
X87519833Y-95750000D01*
X87553166Y-95716666D01*
X87619833Y-95683333D01*
X87686500Y-95683333D01*
X87753166Y-95716666D01*
X87786500Y-95750000D01*
X87819833Y-95816666D01*
X87819833Y-95983333D01*
X87786500Y-96083333D01*
X87053166Y-96216666D02*
X87053166Y-96750000D01*
X87819833Y-96816666D02*
X87819833Y-97216666D01*
X87119833Y-97016666D02*
X87819833Y-97016666D01*
X87586500Y-97750000D02*
X87119833Y-97750000D01*
X87586500Y-97450000D02*
X87219833Y-97450000D01*
X87153166Y-97483333D01*
X87119833Y-97550000D01*
X87119833Y-97650000D01*
X87153166Y-97716666D01*
X87186500Y-97750000D01*
X87119833Y-98083333D02*
X87586500Y-98083333D01*
X87453166Y-98083333D02*
X87519833Y-98116666D01*
X87553166Y-98150000D01*
X87586500Y-98216666D01*
X87586500Y-98283333D01*
X87119833Y-98516666D02*
X87819833Y-98516666D01*
X87553166Y-98516666D02*
X87586500Y-98583333D01*
X87586500Y-98716666D01*
X87553166Y-98783333D01*
X87519833Y-98816666D01*
X87453166Y-98850000D01*
X87253166Y-98850000D01*
X87186500Y-98816666D01*
X87153166Y-98783333D01*
X87119833Y-98716666D01*
X87119833Y-98583333D01*
X87153166Y-98516666D01*
X87119833Y-99250000D02*
X87153166Y-99183333D01*
X87186500Y-99150000D01*
X87253166Y-99116666D01*
X87453166Y-99116666D01*
X87519833Y-99150000D01*
X87553166Y-99183333D01*
X87586500Y-99250000D01*
X87586500Y-99350000D01*
X87553166Y-99416666D01*
X87519833Y-99450000D01*
X87453166Y-99483333D01*
X87253166Y-99483333D01*
X87186500Y-99450000D01*
X87153166Y-99416666D01*
X87119833Y-99350000D01*
X87119833Y-99250000D01*
X87053166Y-99616666D02*
X87053166Y-100150000D01*
X87186500Y-100716666D02*
X87153166Y-100683333D01*
X87119833Y-100583333D01*
X87119833Y-100516666D01*
X87153166Y-100416666D01*
X87219833Y-100350000D01*
X87286500Y-100316666D01*
X87419833Y-100283333D01*
X87519833Y-100283333D01*
X87653166Y-100316666D01*
X87719833Y-100350000D01*
X87786500Y-100416666D01*
X87819833Y-100516666D01*
X87819833Y-100583333D01*
X87786500Y-100683333D01*
X87753166Y-100716666D01*
X87119833Y-101116666D02*
X87153166Y-101050000D01*
X87186500Y-101016666D01*
X87253166Y-100983333D01*
X87453166Y-100983333D01*
X87519833Y-101016666D01*
X87553166Y-101050000D01*
X87586500Y-101116666D01*
X87586500Y-101216666D01*
X87553166Y-101283333D01*
X87519833Y-101316666D01*
X87453166Y-101350000D01*
X87253166Y-101350000D01*
X87186500Y-101316666D01*
X87153166Y-101283333D01*
X87119833Y-101216666D01*
X87119833Y-101116666D01*
X87586500Y-101650000D02*
X87119833Y-101650000D01*
X87519833Y-101650000D02*
X87553166Y-101683333D01*
X87586500Y-101750000D01*
X87586500Y-101850000D01*
X87553166Y-101916666D01*
X87486500Y-101950000D01*
X87119833Y-101950000D01*
X87586500Y-102283333D02*
X87119833Y-102283333D01*
X87519833Y-102283333D02*
X87553166Y-102316666D01*
X87586500Y-102383333D01*
X87586500Y-102483333D01*
X87553166Y-102550000D01*
X87486500Y-102583333D01*
X87119833Y-102583333D01*
X87153166Y-103183333D02*
X87119833Y-103116666D01*
X87119833Y-102983333D01*
X87153166Y-102916666D01*
X87219833Y-102883333D01*
X87486500Y-102883333D01*
X87553166Y-102916666D01*
X87586500Y-102983333D01*
X87586500Y-103116666D01*
X87553166Y-103183333D01*
X87486500Y-103216666D01*
X87419833Y-103216666D01*
X87353166Y-102883333D01*
X87153166Y-103816666D02*
X87119833Y-103750000D01*
X87119833Y-103616666D01*
X87153166Y-103550000D01*
X87186500Y-103516666D01*
X87253166Y-103483333D01*
X87453166Y-103483333D01*
X87519833Y-103516666D01*
X87553166Y-103550000D01*
X87586500Y-103616666D01*
X87586500Y-103750000D01*
X87553166Y-103816666D01*
X87586500Y-104016666D02*
X87586500Y-104283333D01*
X87819833Y-104116666D02*
X87219833Y-104116666D01*
X87153166Y-104150000D01*
X87119833Y-104216666D01*
X87119833Y-104283333D01*
X87119833Y-104616666D02*
X87153166Y-104550000D01*
X87186500Y-104516666D01*
X87253166Y-104483333D01*
X87453166Y-104483333D01*
X87519833Y-104516666D01*
X87553166Y-104550000D01*
X87586500Y-104616666D01*
X87586500Y-104716666D01*
X87553166Y-104783333D01*
X87519833Y-104816666D01*
X87453166Y-104850000D01*
X87253166Y-104850000D01*
X87186500Y-104816666D01*
X87153166Y-104783333D01*
X87119833Y-104716666D01*
X87119833Y-104616666D01*
X87119833Y-105150000D02*
X87586500Y-105150000D01*
X87453166Y-105150000D02*
X87519833Y-105183333D01*
X87553166Y-105216666D01*
X87586500Y-105283333D01*
X87586500Y-105350000D01*
X87053166Y-105416666D02*
X87053166Y-105950000D01*
X87586500Y-106050000D02*
X87119833Y-106216666D01*
X87586500Y-106383333D01*
X87819833Y-106783333D02*
X87819833Y-106850000D01*
X87786500Y-106916666D01*
X87753166Y-106950000D01*
X87686500Y-106983333D01*
X87553166Y-107016666D01*
X87386500Y-107016666D01*
X87253166Y-106983333D01*
X87186500Y-106950000D01*
X87153166Y-106916666D01*
X87119833Y-106850000D01*
X87119833Y-106783333D01*
X87153166Y-106716666D01*
X87186500Y-106683333D01*
X87253166Y-106650000D01*
X87386500Y-106616666D01*
X87553166Y-106616666D01*
X87686500Y-106650000D01*
X87753166Y-106683333D01*
X87786500Y-106716666D01*
X87819833Y-106783333D01*
X87186500Y-107316666D02*
X87153166Y-107350000D01*
X87119833Y-107316666D01*
X87153166Y-107283333D01*
X87186500Y-107316666D01*
X87119833Y-107316666D01*
X87119833Y-108016666D02*
X87119833Y-107616666D01*
X87119833Y-107816666D02*
X87819833Y-107816666D01*
X87719833Y-107750000D01*
X87653166Y-107683333D01*
X87619833Y-107616666D01*
D10*
X105380952Y-108452380D02*
X104809523Y-108452380D01*
X105095238Y-108452380D02*
X105095238Y-107452380D01*
X105000000Y-107595238D01*
X104904761Y-107690476D01*
X104809523Y-107738095D01*
X105761904Y-107547619D02*
X105809523Y-107500000D01*
X105904761Y-107452380D01*
X106142857Y-107452380D01*
X106238095Y-107500000D01*
X106285714Y-107547619D01*
X106333333Y-107642857D01*
X106333333Y-107738095D01*
X106285714Y-107880952D01*
X105714285Y-108452380D01*
X106333333Y-108452380D01*
X106619047Y-107452380D02*
X106952380Y-108452380D01*
X107285714Y-107452380D01*
X104500000Y-73452380D02*
X104500000Y-72452380D01*
X104976190Y-73452380D02*
X104976190Y-72452380D01*
X105547619Y-73452380D01*
X105547619Y-72452380D01*
X106547619Y-72500000D02*
X106452380Y-72452380D01*
X106309523Y-72452380D01*
X106166666Y-72500000D01*
X106071428Y-72595238D01*
X106023809Y-72690476D01*
X105976190Y-72880952D01*
X105976190Y-73023809D01*
X106023809Y-73214285D01*
X106071428Y-73309523D01*
X106166666Y-73404761D01*
X106309523Y-73452380D01*
X106404761Y-73452380D01*
X106547619Y-73404761D01*
X106595238Y-73357142D01*
X106595238Y-73023809D01*
X106404761Y-73023809D01*
X107547619Y-73452380D02*
X106976190Y-73452380D01*
X107261904Y-73452380D02*
X107261904Y-72452380D01*
X107166666Y-72595238D01*
X107071428Y-72690476D01*
X106976190Y-72738095D01*
X104619047Y-80452380D02*
X104619047Y-79452380D01*
X105095238Y-80452380D02*
X105095238Y-79452380D01*
X105666666Y-80452380D01*
X105666666Y-79452380D01*
X106428571Y-79452380D02*
X106428571Y-80166666D01*
X106380952Y-80309523D01*
X106285714Y-80404761D01*
X106142857Y-80452380D01*
X106047619Y-80452380D01*
X106857142Y-79547619D02*
X106904761Y-79500000D01*
X107000000Y-79452380D01*
X107238095Y-79452380D01*
X107333333Y-79500000D01*
X107380952Y-79547619D01*
X107428571Y-79642857D01*
X107428571Y-79738095D01*
X107380952Y-79880952D01*
X106809523Y-80452380D01*
X107428571Y-80452380D01*
X105238095Y-97000000D02*
X105142857Y-96952380D01*
X105000000Y-96952380D01*
X104857142Y-97000000D01*
X104761904Y-97095238D01*
X104714285Y-97190476D01*
X104666666Y-97380952D01*
X104666666Y-97523809D01*
X104714285Y-97714285D01*
X104761904Y-97809523D01*
X104857142Y-97904761D01*
X105000000Y-97952380D01*
X105095238Y-97952380D01*
X105238095Y-97904761D01*
X105285714Y-97857142D01*
X105285714Y-97523809D01*
X105095238Y-97523809D01*
X105714285Y-97952380D02*
X105714285Y-96952380D01*
X106285714Y-97952380D01*
X106285714Y-96952380D01*
X106761904Y-97952380D02*
X106761904Y-96952380D01*
X107000000Y-96952380D01*
X107142857Y-97000000D01*
X107238095Y-97095238D01*
X107285714Y-97190476D01*
X107333333Y-97380952D01*
X107333333Y-97523809D01*
X107285714Y-97714285D01*
X107238095Y-97809523D01*
X107142857Y-97904761D01*
X107000000Y-97952380D01*
X106761904Y-97952380D01*
X125273809Y-91357142D02*
X125226190Y-91404761D01*
X125083333Y-91452380D01*
X124988095Y-91452380D01*
X124845238Y-91404761D01*
X124750000Y-91309523D01*
X124702380Y-91214285D01*
X124654761Y-91023809D01*
X124654761Y-90880952D01*
X124702380Y-90690476D01*
X124750000Y-90595238D01*
X124845238Y-90500000D01*
X124988095Y-90452380D01*
X125083333Y-90452380D01*
X125226190Y-90500000D01*
X125273809Y-90547619D01*
X126178571Y-91452380D02*
X125702380Y-91452380D01*
X125702380Y-90452380D01*
X126369047Y-90452380D02*
X126940476Y-90452380D01*
X126654761Y-91452380D02*
X126654761Y-90452380D01*
X125488095Y-108428571D02*
X125154761Y-108428571D01*
X125154761Y-108952380D02*
X125154761Y-107952380D01*
X125630952Y-107952380D01*
X126488095Y-108952380D02*
X126011904Y-108952380D01*
X126011904Y-107952380D01*
D11*
%TO.C,J2*%
X65352380Y-92483333D02*
X66066666Y-92483333D01*
X66209523Y-92530952D01*
X66304761Y-92626190D01*
X66352380Y-92769047D01*
X66352380Y-92864285D01*
X65447619Y-92054761D02*
X65400000Y-92007142D01*
X65352380Y-91911904D01*
X65352380Y-91673809D01*
X65400000Y-91578571D01*
X65447619Y-91530952D01*
X65542857Y-91483333D01*
X65638095Y-91483333D01*
X65780952Y-91530952D01*
X66352380Y-92102380D01*
X66352380Y-91483333D01*
D12*
X79335000Y-68810000D02*
X79335000Y-109180000D01*
X69205000Y-108180000D02*
X69205000Y-69810000D01*
X70205000Y-68810000D02*
X79335000Y-68810000D01*
X70205000Y-109180000D02*
X69205000Y-108180000D01*
X69205000Y-69810000D02*
X70205000Y-68810000D01*
X79335000Y-109180000D02*
X70205000Y-109180000D01*
%TO.C,G\u002A\u002A\u002A*%
G36*
X95400933Y-93280489D02*
G01*
X95400723Y-93523812D01*
X95399960Y-93721741D01*
X95398411Y-93879579D01*
X95395842Y-94002631D01*
X95392019Y-94096198D01*
X95386709Y-94165586D01*
X95379678Y-94216096D01*
X95370693Y-94253034D01*
X95359520Y-94281701D01*
X95356572Y-94287771D01*
X95310739Y-94357339D01*
X95249608Y-94402930D01*
X95162897Y-94428777D01*
X95040323Y-94439110D01*
X94987097Y-94439846D01*
X94885442Y-94438719D01*
X94819477Y-94432077D01*
X94774210Y-94415731D01*
X94734650Y-94385492D01*
X94711233Y-94362763D01*
X94633777Y-94285306D01*
X94529401Y-94327338D01*
X94438817Y-94363652D01*
X94337024Y-94404233D01*
X94304615Y-94417100D01*
X94184206Y-94464829D01*
X94184206Y-94118666D01*
X94412350Y-94014747D01*
X94640494Y-93910829D01*
X94640494Y-92691117D01*
X94944685Y-92691117D01*
X94945073Y-93369211D01*
X94945987Y-93550951D01*
X94948365Y-93716943D01*
X94951981Y-93860162D01*
X94956613Y-93973581D01*
X94962035Y-94050175D01*
X94967864Y-94082686D01*
X95007127Y-94105468D01*
X95030849Y-94102493D01*
X95042960Y-94093073D01*
X95052429Y-94071503D01*
X95059571Y-94032232D01*
X95064702Y-93969710D01*
X95068138Y-93878387D01*
X95070194Y-93752712D01*
X95071187Y-93587135D01*
X95071432Y-93389019D01*
X95071432Y-92691117D01*
X94944685Y-92691117D01*
X94640494Y-92691117D01*
X94184206Y-92691117D01*
X94184206Y-92361577D01*
X95400973Y-92361577D01*
X95400933Y-93280489D01*
G37*
G36*
X96110753Y-73070758D02*
G01*
X95781212Y-73070758D01*
X95781212Y-70941417D01*
X96110753Y-70941417D01*
X96110753Y-73070758D01*
G37*
G36*
X95135908Y-77346438D02*
G01*
X95292254Y-77438410D01*
X95437555Y-77524607D01*
X95565813Y-77601532D01*
X95671028Y-77665690D01*
X95747201Y-77713581D01*
X95788334Y-77741709D01*
X95793887Y-77747308D01*
X95772848Y-77764069D01*
X95713730Y-77802384D01*
X95622530Y-77858753D01*
X95505244Y-77929678D01*
X95367870Y-78011659D01*
X95216405Y-78101197D01*
X95056846Y-78194794D01*
X94895189Y-78288950D01*
X94737432Y-78380167D01*
X94589573Y-78464945D01*
X94457607Y-78539785D01*
X94347532Y-78601189D01*
X94265345Y-78645658D01*
X94217043Y-78669692D01*
X94207392Y-78672954D01*
X94195801Y-78649787D01*
X94187487Y-78588971D01*
X94184209Y-78503533D01*
X94184206Y-78501133D01*
X94184790Y-78441577D01*
X94188734Y-78391279D01*
X94199322Y-78342292D01*
X94219842Y-78286670D01*
X94253579Y-78216465D01*
X94303819Y-78123733D01*
X94373848Y-78000526D01*
X94383150Y-77984372D01*
X94771100Y-77984372D01*
X94786252Y-77981016D01*
X94815550Y-77964109D01*
X94877117Y-77928171D01*
X94959526Y-77879877D01*
X94991523Y-77861088D01*
X95177782Y-77751658D01*
X95118270Y-77705739D01*
X95056934Y-77665969D01*
X94999100Y-77640094D01*
X94961751Y-77635331D01*
X94958131Y-77637655D01*
X94942086Y-77662181D01*
X94907579Y-77718438D01*
X94861919Y-77794499D01*
X94859597Y-77798403D01*
X94802427Y-77898376D01*
X94773284Y-77959481D01*
X94771100Y-77984372D01*
X94383150Y-77984372D01*
X94435488Y-77893482D01*
X94686769Y-77457653D01*
X94435488Y-77311725D01*
X94184206Y-77165797D01*
X94184206Y-76994126D01*
X94187338Y-76908269D01*
X94195558Y-76846706D01*
X94207104Y-76822470D01*
X94207412Y-76822455D01*
X94236152Y-76834722D01*
X94301839Y-76869192D01*
X94398474Y-76922369D01*
X94520058Y-76990754D01*
X94660593Y-77070850D01*
X94814078Y-77159161D01*
X94961751Y-77244788D01*
X94974517Y-77252190D01*
X95135908Y-77346438D01*
G37*
G36*
X99136018Y-78453621D02*
G01*
X99200627Y-78497063D01*
X99297151Y-78562318D01*
X99420606Y-78646005D01*
X99566009Y-78744749D01*
X99728376Y-78855169D01*
X99881462Y-78959404D01*
X100622929Y-79464541D01*
X100622929Y-80012053D01*
X99921124Y-80489559D01*
X99750446Y-80605639D01*
X99590462Y-80714350D01*
X99446699Y-80811946D01*
X99324683Y-80894678D01*
X99229939Y-80958798D01*
X99167994Y-81000560D01*
X99147971Y-81013916D01*
X99076621Y-81060767D01*
X99076621Y-80382587D01*
X99558043Y-80066443D01*
X99695936Y-79975352D01*
X99818401Y-79893425D01*
X99919464Y-79824741D01*
X99993153Y-79773382D01*
X100033494Y-79743429D01*
X100039311Y-79737624D01*
X100019034Y-79720669D01*
X99962274Y-79680089D01*
X99875004Y-79619975D01*
X99763195Y-79544414D01*
X99632819Y-79457496D01*
X99558022Y-79408083D01*
X99076886Y-79091217D01*
X99076754Y-78753843D01*
X99077712Y-78613083D01*
X99081110Y-78517050D01*
X99087535Y-78459804D01*
X99097576Y-78435407D01*
X99108308Y-78435368D01*
X99136018Y-78453621D01*
G37*
G36*
X95388298Y-91951965D02*
G01*
X95326576Y-92017634D01*
X95237068Y-92079696D01*
X95119117Y-92116489D01*
X94988636Y-92127293D01*
X94861543Y-92111387D01*
X94753751Y-92068050D01*
X94722052Y-92045009D01*
X94653168Y-91985789D01*
X94640494Y-91178723D01*
X94636009Y-90893131D01*
X94949448Y-90893131D01*
X94950572Y-91074405D01*
X94950624Y-91079723D01*
X94952752Y-91283831D01*
X94954964Y-91442861D01*
X94957729Y-91562430D01*
X94961518Y-91648159D01*
X94966802Y-91705664D01*
X94974050Y-91740567D01*
X94983733Y-91758484D01*
X94996321Y-91765034D01*
X95008059Y-91765868D01*
X95022990Y-91764213D01*
X95034735Y-91755550D01*
X95043746Y-91734328D01*
X95050476Y-91694999D01*
X95055380Y-91632012D01*
X95058909Y-91539818D01*
X95061517Y-91412868D01*
X95063656Y-91245612D01*
X95065495Y-91062425D01*
X95067329Y-90855277D01*
X95068183Y-90693291D01*
X95067742Y-90570932D01*
X95065689Y-90482667D01*
X95061709Y-90422964D01*
X95055487Y-90386287D01*
X95046707Y-90367105D01*
X95035053Y-90359884D01*
X95025359Y-90358982D01*
X94976767Y-90367397D01*
X94961186Y-90376280D01*
X94956861Y-90405237D01*
X94953424Y-90478144D01*
X94950975Y-90588257D01*
X94949616Y-90728834D01*
X94949448Y-90893131D01*
X94636009Y-90893131D01*
X94627819Y-90371656D01*
X94406013Y-90364332D01*
X94184206Y-90357008D01*
X94184206Y-90029441D01*
X95403254Y-90029441D01*
X95388298Y-91951965D01*
G37*
G36*
X94513747Y-87723450D02*
G01*
X94513955Y-87957380D01*
X94514730Y-88145599D01*
X94516305Y-88293094D01*
X94518909Y-88404850D01*
X94522772Y-88485855D01*
X94528126Y-88541095D01*
X94535200Y-88575557D01*
X94544225Y-88594226D01*
X94554330Y-88601695D01*
X94600287Y-88597677D01*
X94617315Y-88581887D01*
X94622984Y-88548390D01*
X94628152Y-88470804D01*
X94632628Y-88355739D01*
X94636222Y-88209802D01*
X94638743Y-88039604D01*
X94640002Y-87851753D01*
X94640106Y-87790698D01*
X94641201Y-87540040D01*
X94644174Y-87333825D01*
X94648978Y-87173462D01*
X94655563Y-87060361D01*
X94663880Y-86995930D01*
X94667883Y-86983712D01*
X94725961Y-86925735D01*
X94824668Y-86884760D01*
X94955982Y-86863530D01*
X95026256Y-86861152D01*
X95157531Y-86869760D01*
X95250899Y-86898103D01*
X95316921Y-86951045D01*
X95356572Y-87013227D01*
X95368289Y-87040727D01*
X95377764Y-87075260D01*
X95385230Y-87122128D01*
X95390921Y-87186634D01*
X95395070Y-87274083D01*
X95397911Y-87389778D01*
X95399678Y-87539022D01*
X95400603Y-87727119D01*
X95400921Y-87959372D01*
X95400933Y-88020509D01*
X95400973Y-88939421D01*
X95071432Y-88939421D01*
X95071432Y-88076749D01*
X95071224Y-87842819D01*
X95070449Y-87654600D01*
X95068874Y-87507105D01*
X95066270Y-87395348D01*
X95062407Y-87314343D01*
X95057053Y-87259104D01*
X95049979Y-87224642D01*
X95040954Y-87205973D01*
X95030849Y-87198504D01*
X94984892Y-87202522D01*
X94967864Y-87218312D01*
X94962228Y-87251761D01*
X94957085Y-87329342D01*
X94952624Y-87444491D01*
X94949031Y-87590643D01*
X94946494Y-87761233D01*
X94945199Y-87949696D01*
X94945073Y-88018559D01*
X94944685Y-88783425D01*
X94866687Y-88861423D01*
X94825700Y-88899547D01*
X94787134Y-88922667D01*
X94736967Y-88934524D01*
X94661175Y-88938857D01*
X94574279Y-88939421D01*
X94435256Y-88933910D01*
X94337054Y-88914792D01*
X94270737Y-88878185D01*
X94227368Y-88820209D01*
X94211452Y-88781870D01*
X94203401Y-88731911D01*
X94196681Y-88633280D01*
X94191347Y-88487986D01*
X94187453Y-88298039D01*
X94185055Y-88065449D01*
X94184207Y-87792226D01*
X94184206Y-87782245D01*
X94184206Y-86860778D01*
X94513747Y-86860778D01*
X94513747Y-87723450D01*
G37*
G36*
X94513747Y-84858979D02*
G01*
X94513955Y-85092909D01*
X94514730Y-85281128D01*
X94516305Y-85428623D01*
X94518909Y-85540379D01*
X94522772Y-85621384D01*
X94528126Y-85676624D01*
X94535200Y-85711086D01*
X94544225Y-85729755D01*
X94554330Y-85737224D01*
X94600287Y-85733206D01*
X94617315Y-85717416D01*
X94623032Y-85683848D01*
X94628238Y-85606256D01*
X94632736Y-85491315D01*
X94636331Y-85345698D01*
X94638827Y-85176079D01*
X94640029Y-84989132D01*
X94640106Y-84939310D01*
X94640601Y-84707240D01*
X94642423Y-84520522D01*
X94646482Y-84373814D01*
X94653685Y-84261770D01*
X94664940Y-84179046D01*
X94681156Y-84120300D01*
X94703240Y-84080185D01*
X94732102Y-84053359D01*
X94768650Y-84034478D01*
X94795602Y-84024405D01*
X94902354Y-84002451D01*
X95029769Y-83997872D01*
X95153685Y-84010175D01*
X95237929Y-84033419D01*
X95277875Y-84051687D01*
X95310705Y-84073159D01*
X95337115Y-84102660D01*
X95357803Y-84145015D01*
X95373466Y-84205049D01*
X95384802Y-84287586D01*
X95392507Y-84397452D01*
X95397279Y-84539471D01*
X95399815Y-84718469D01*
X95400813Y-84939270D01*
X95400973Y-85161561D01*
X95400973Y-86074950D01*
X95071432Y-86074950D01*
X95071432Y-85214570D01*
X95070640Y-84944399D01*
X95068269Y-84723430D01*
X95064329Y-84551969D01*
X95058830Y-84430323D01*
X95051780Y-84358799D01*
X95044972Y-84337836D01*
X95005874Y-84338136D01*
X94981599Y-84352119D01*
X94970909Y-84368095D01*
X94962429Y-84399750D01*
X94955923Y-84452240D01*
X94951154Y-84530722D01*
X94947884Y-84640350D01*
X94945876Y-84786282D01*
X94944893Y-84973672D01*
X94944685Y-85154754D01*
X94944685Y-85926754D01*
X94870587Y-86000852D01*
X94832043Y-86036462D01*
X94794669Y-86058310D01*
X94745078Y-86069702D01*
X94669882Y-86073943D01*
X94572733Y-86074386D01*
X94440245Y-86069782D01*
X94347122Y-86053871D01*
X94282511Y-86022330D01*
X94235561Y-85970835D01*
X94212522Y-85930858D01*
X94203992Y-85890930D01*
X94197035Y-85806804D01*
X94191617Y-85677239D01*
X94187702Y-85500993D01*
X94185255Y-85276826D01*
X94184241Y-85003496D01*
X94184206Y-84935898D01*
X94184206Y-83996307D01*
X94513747Y-83996307D01*
X94513747Y-84858979D01*
G37*
G36*
X99110632Y-74504082D02*
G01*
X99170539Y-74543245D01*
X99262798Y-74604616D01*
X99382652Y-74685006D01*
X99525344Y-74781222D01*
X99686114Y-74890074D01*
X99854652Y-75004590D01*
X100610254Y-75518862D01*
X100617017Y-75796756D01*
X100623779Y-76074650D01*
X99886442Y-76576778D01*
X99713597Y-76694189D01*
X99553104Y-76802639D01*
X99409997Y-76898772D01*
X99289307Y-76979232D01*
X99196065Y-77040660D01*
X99135304Y-77079702D01*
X99112863Y-77092814D01*
X99097820Y-77091206D01*
X99087486Y-77068122D01*
X99081051Y-77016509D01*
X99077704Y-76929316D01*
X99076635Y-76799489D01*
X99076621Y-76777325D01*
X99076621Y-76447929D01*
X99563361Y-76125260D01*
X99718723Y-76021920D01*
X99836130Y-75942572D01*
X99920092Y-75883512D01*
X99975119Y-75841035D01*
X100005721Y-75811437D01*
X100016408Y-75791014D01*
X100011691Y-75776062D01*
X100000636Y-75766122D01*
X99964868Y-75741552D01*
X99893830Y-75694204D01*
X99794795Y-75628871D01*
X99675039Y-75550350D01*
X99541835Y-75463436D01*
X99514830Y-75445865D01*
X99078489Y-75162076D01*
X99077555Y-74826197D01*
X99078005Y-74702351D01*
X99079894Y-74599094D01*
X99082936Y-74525747D01*
X99086846Y-74491635D01*
X99087836Y-74490319D01*
X99110632Y-74504082D01*
G37*
G36*
X91091591Y-79281337D02*
G01*
X90812749Y-79281337D01*
X90812749Y-76264770D01*
X91091591Y-76264770D01*
X91091591Y-79281337D01*
G37*
G36*
X94875923Y-78977450D02*
G01*
X95008066Y-78978803D01*
X95104240Y-78981863D01*
X95171810Y-78987287D01*
X95218141Y-78995735D01*
X95250597Y-79007864D01*
X95276542Y-79024333D01*
X95282872Y-79029204D01*
X95312072Y-79054781D01*
X95336167Y-79084503D01*
X95355596Y-79123128D01*
X95370798Y-79175412D01*
X95382211Y-79246115D01*
X95390275Y-79339992D01*
X95395428Y-79461804D01*
X95398109Y-79616306D01*
X95398758Y-79808258D01*
X95397811Y-80042416D01*
X95396240Y-80258447D01*
X95394030Y-80511374D01*
X95391691Y-80718549D01*
X95388981Y-80884920D01*
X95385657Y-81015433D01*
X95381477Y-81115035D01*
X95376199Y-81188672D01*
X95369580Y-81241293D01*
X95361379Y-81277842D01*
X95351352Y-81303269D01*
X95344485Y-81315051D01*
X95318227Y-81360059D01*
X95321461Y-81388289D01*
X95360153Y-81418064D01*
X95382509Y-81431834D01*
X95496909Y-81492103D01*
X95646078Y-81556525D01*
X95815108Y-81619116D01*
X95976005Y-81670130D01*
X96060087Y-81692527D01*
X96140311Y-81708342D01*
X96228328Y-81718659D01*
X96335789Y-81724563D01*
X96474345Y-81727139D01*
X96592390Y-81727545D01*
X96759943Y-81726566D01*
X96888975Y-81722879D01*
X96991639Y-81715356D01*
X97080089Y-81702867D01*
X97166476Y-81684286D01*
X97226122Y-81668723D01*
X97562826Y-81551078D01*
X97883600Y-81387861D01*
X98180280Y-81183599D01*
X98327254Y-81058137D01*
X98480913Y-80916764D01*
X98488300Y-81142703D01*
X98490336Y-81247342D01*
X98489469Y-81334041D01*
X98485940Y-81389268D01*
X98483739Y-81399780D01*
X98454863Y-81431933D01*
X98390328Y-81482574D01*
X98299066Y-81546067D01*
X98190010Y-81616776D01*
X98072091Y-81689063D01*
X97954240Y-81757292D01*
X97845390Y-81815826D01*
X97759345Y-81856935D01*
X97410511Y-81981191D01*
X97047154Y-82059770D01*
X96676250Y-82092432D01*
X96304775Y-82078936D01*
X95939702Y-82019044D01*
X95635505Y-81930004D01*
X95400973Y-81846179D01*
X95400973Y-83768163D01*
X95071432Y-83768163D01*
X95071432Y-81990186D01*
X95014396Y-81998286D01*
X94957360Y-82006387D01*
X94944028Y-83768163D01*
X94641151Y-83768163D01*
X94627819Y-82006387D01*
X94570783Y-81998286D01*
X94513747Y-81990186D01*
X94513747Y-83768163D01*
X94184206Y-83768163D01*
X94184206Y-81665369D01*
X95050034Y-81651497D01*
X94897201Y-81543762D01*
X94744368Y-81436028D01*
X94184206Y-81436028D01*
X94184206Y-81108260D01*
X94444037Y-81101036D01*
X94703867Y-81093812D01*
X94711810Y-81011427D01*
X94721618Y-80955331D01*
X94734844Y-80929272D01*
X94736091Y-80929042D01*
X94761968Y-80945326D01*
X94810655Y-80987081D01*
X94847806Y-81022175D01*
X94906613Y-81075949D01*
X94946834Y-81098342D01*
X94983919Y-81095544D01*
X95007307Y-81086092D01*
X95033020Y-81072999D01*
X95050735Y-81055487D01*
X95061943Y-81024915D01*
X95068133Y-80972642D01*
X95070796Y-80890027D01*
X95071419Y-80768429D01*
X95071432Y-80714116D01*
X95071432Y-80371357D01*
X94184206Y-80371357D01*
X94184206Y-80041816D01*
X95071432Y-80041816D01*
X95071432Y-79704670D01*
X95069157Y-79540023D01*
X95062249Y-79424350D01*
X95050581Y-79356130D01*
X95041013Y-79337105D01*
X95006740Y-79324120D01*
X94931752Y-79314877D01*
X94813008Y-79309169D01*
X94647471Y-79306787D01*
X94597400Y-79306686D01*
X94184206Y-79306686D01*
X94184206Y-78977145D01*
X94700448Y-78977145D01*
X94875923Y-78977450D01*
G37*
G36*
X92303730Y-71978436D02*
G01*
X92650357Y-72053644D01*
X92984071Y-72167771D01*
X93296488Y-72318350D01*
X93579223Y-72502911D01*
X93645534Y-72555091D01*
X93753268Y-72643214D01*
X93753268Y-72869661D01*
X93751876Y-72969724D01*
X93748149Y-73047168D01*
X93742760Y-73090640D01*
X93739827Y-73096107D01*
X93716194Y-73080672D01*
X93662751Y-73038922D01*
X93588051Y-72977692D01*
X93521198Y-72921375D01*
X93229898Y-72703857D01*
X92920844Y-72530949D01*
X92597874Y-72403881D01*
X92264827Y-72323886D01*
X91925544Y-72292193D01*
X91606089Y-72307342D01*
X91252617Y-72371015D01*
X90922954Y-72478009D01*
X90612932Y-72630190D01*
X90318386Y-72829423D01*
X90174837Y-72947948D01*
X90097977Y-73013977D01*
X90035778Y-73064855D01*
X89997715Y-73092940D01*
X89991054Y-73096107D01*
X89984605Y-73072620D01*
X89979573Y-73009592D01*
X89976663Y-72918179D01*
X89976222Y-72861497D01*
X89979177Y-72732921D01*
X89988480Y-72649638D01*
X90004786Y-72606562D01*
X90009782Y-72601666D01*
X90336467Y-72379494D01*
X90663196Y-72205300D01*
X90995846Y-72076703D01*
X91340292Y-71991318D01*
X91605280Y-71954644D01*
X91952576Y-71944613D01*
X92303730Y-71978436D01*
G37*
G36*
X94963573Y-102136300D02*
G01*
X95109603Y-102144009D01*
X95205466Y-102156868D01*
X95236905Y-102166160D01*
X95274133Y-102182450D01*
X95304699Y-102200081D01*
X95329303Y-102223905D01*
X95348643Y-102258772D01*
X95363420Y-102309530D01*
X95374332Y-102381031D01*
X95382079Y-102478125D01*
X95387359Y-102605660D01*
X95390873Y-102768488D01*
X95393319Y-102971459D01*
X95395396Y-103219422D01*
X95395776Y-103268113D01*
X95403254Y-104225050D01*
X95072097Y-104225050D01*
X95058757Y-102488622D01*
X94786252Y-102481427D01*
X94513747Y-102474233D01*
X94513747Y-104225050D01*
X94184206Y-104225050D01*
X94185105Y-103280788D01*
X94185814Y-103016940D01*
X94187475Y-102800013D01*
X94190212Y-102626236D01*
X94194146Y-102491838D01*
X94199402Y-102393049D01*
X94206102Y-102326097D01*
X94214370Y-102287211D01*
X94217800Y-102279272D01*
X94250971Y-102227353D01*
X94289658Y-102189375D01*
X94341919Y-102163202D01*
X94415816Y-102146700D01*
X94519409Y-102137733D01*
X94660756Y-102134168D01*
X94767240Y-102133732D01*
X94963573Y-102136300D01*
G37*
G36*
X96110753Y-84579341D02*
G01*
X95781212Y-84579341D01*
X95781212Y-82450000D01*
X96110753Y-82450000D01*
X96110753Y-84579341D01*
G37*
G36*
X95400973Y-86632634D02*
G01*
X94184206Y-86632634D01*
X94184206Y-86303093D01*
X95400973Y-86303093D01*
X95400973Y-86632634D01*
G37*
G36*
X93744410Y-74970102D02*
G01*
X93749700Y-75033188D01*
X93752781Y-75124760D01*
X93753268Y-75183350D01*
X93753268Y-75420094D01*
X93556811Y-75560764D01*
X93242235Y-75756383D01*
X92898749Y-75915368D01*
X92536644Y-76033233D01*
X92397081Y-76066144D01*
X92287603Y-76081830D01*
X92141540Y-76092317D01*
X91972739Y-76097626D01*
X91795045Y-76097775D01*
X91622303Y-76092783D01*
X91468358Y-76082667D01*
X91347056Y-76067448D01*
X91332410Y-76064702D01*
X90959434Y-75964951D01*
X90600570Y-75817921D01*
X90262483Y-75626482D01*
X90172679Y-75565474D01*
X89976222Y-75426784D01*
X89976222Y-75186695D01*
X89978187Y-75083388D01*
X89983469Y-75002370D01*
X89991144Y-74954666D01*
X89996294Y-74946606D01*
X90023179Y-74963410D01*
X90073411Y-75007232D01*
X90129377Y-75061836D01*
X90245798Y-75166807D01*
X90393064Y-75279182D01*
X90554949Y-75387542D01*
X90715222Y-75480469D01*
X90749376Y-75498070D01*
X91065043Y-75628564D01*
X91396624Y-75713135D01*
X91738205Y-75751621D01*
X92083872Y-75743859D01*
X92427712Y-75689685D01*
X92763810Y-75588936D01*
X92847213Y-75555920D01*
X93045909Y-75458857D01*
X93253449Y-75332457D01*
X93450306Y-75189404D01*
X93573310Y-75084286D01*
X93644611Y-75019961D01*
X93701579Y-74971696D01*
X93734297Y-74947802D01*
X93737644Y-74946606D01*
X93744410Y-74970102D01*
G37*
G36*
X93981412Y-81359980D02*
G01*
X93873677Y-81359262D01*
X93816936Y-81357011D01*
X93718406Y-81351122D01*
X93586816Y-81342230D01*
X93430895Y-81330972D01*
X93259371Y-81317983D01*
X93080975Y-81303899D01*
X92904434Y-81289356D01*
X92847031Y-81284475D01*
X92843399Y-81261336D01*
X92841106Y-81202835D01*
X92840693Y-81158334D01*
X92842625Y-81083338D01*
X92854190Y-81044464D01*
X92884039Y-81027145D01*
X92923079Y-81019626D01*
X92976031Y-81013559D01*
X93068925Y-81005294D01*
X93191093Y-80995687D01*
X93331870Y-80985593D01*
X93423727Y-80979471D01*
X93569426Y-80969661D01*
X93701919Y-80960021D01*
X93810920Y-80951352D01*
X93886142Y-80944459D01*
X93911701Y-80941367D01*
X93981412Y-80930309D01*
X93981412Y-81359980D01*
G37*
G36*
X93981412Y-74591716D02*
G01*
X93899027Y-74590998D01*
X93847333Y-74588758D01*
X93755106Y-74582990D01*
X93632336Y-74574391D01*
X93489012Y-74563654D01*
X93360354Y-74553518D01*
X93212061Y-74541677D01*
X93080322Y-74531360D01*
X92973851Y-74523233D01*
X92901361Y-74517963D01*
X92872380Y-74516212D01*
X92850675Y-74491168D01*
X92841162Y-74417179D01*
X92840693Y-74388126D01*
X92846933Y-74302358D01*
X92864441Y-74256041D01*
X92872380Y-74250756D01*
X92907036Y-74245988D01*
X92983421Y-74238884D01*
X93092653Y-74230159D01*
X93225855Y-74220530D01*
X93347679Y-74212402D01*
X93499878Y-74202181D01*
X93641084Y-74191899D01*
X93760728Y-74182387D01*
X93848240Y-74174474D01*
X93886352Y-74170099D01*
X93981412Y-74156322D01*
X93981412Y-74591716D01*
G37*
G36*
X96763848Y-73450361D02*
G01*
X96934599Y-73459206D01*
X97071512Y-73475891D01*
X97072244Y-73476024D01*
X97420032Y-73561130D01*
X97759147Y-73686734D01*
X98077272Y-73847592D01*
X98322480Y-74008494D01*
X98493588Y-74135170D01*
X98493588Y-74363443D01*
X98491349Y-74484439D01*
X98481526Y-74557772D01*
X98459462Y-74586390D01*
X98420498Y-74573244D01*
X98359976Y-74521283D01*
X98315083Y-74476486D01*
X98132638Y-74316334D01*
X97913968Y-74166659D01*
X97673495Y-74035671D01*
X97425643Y-73931578D01*
X97274160Y-73884031D01*
X96916597Y-73811821D01*
X96565977Y-73789793D01*
X96221442Y-73818033D01*
X95882131Y-73896627D01*
X95547185Y-74025664D01*
X95461437Y-74067119D01*
X95350510Y-74129379D01*
X95222491Y-74211164D01*
X95090561Y-74303052D01*
X94967899Y-74395620D01*
X94867685Y-74479445D01*
X94819857Y-74525815D01*
X94773522Y-74569751D01*
X94740294Y-74591278D01*
X94737472Y-74591716D01*
X94728410Y-74568232D01*
X94721420Y-74505216D01*
X94717476Y-74413822D01*
X94716956Y-74357235D01*
X94717370Y-74122754D01*
X94900738Y-73992246D01*
X95227428Y-73787563D01*
X95566166Y-73630911D01*
X95922003Y-73520105D01*
X96064776Y-73489178D01*
X96209725Y-73468765D01*
X96385297Y-73455351D01*
X96575376Y-73449146D01*
X96763848Y-73450361D01*
G37*
G36*
X96880183Y-78058621D02*
G01*
X96935999Y-78041235D01*
X96997276Y-78044829D01*
X97037928Y-78067734D01*
X97038599Y-78068772D01*
X97047379Y-78098888D01*
X97065397Y-78173628D01*
X97091548Y-78287984D01*
X97124727Y-78436947D01*
X97163827Y-78615509D01*
X97207743Y-78818662D01*
X97255369Y-79041398D01*
X97302921Y-79265994D01*
X97362995Y-79551858D01*
X97412860Y-79792222D01*
X97452932Y-79991156D01*
X97483633Y-80152731D01*
X97505379Y-80281019D01*
X97518590Y-80380091D01*
X97523684Y-80454018D01*
X97521080Y-80506871D01*
X97511197Y-80542721D01*
X97494453Y-80565639D01*
X97471267Y-80579697D01*
X97442059Y-80588966D01*
X97439058Y-80589727D01*
X97399660Y-80597618D01*
X97363745Y-80597377D01*
X97327738Y-80585007D01*
X97288068Y-80556513D01*
X97241160Y-80507897D01*
X97183440Y-80435163D01*
X97111337Y-80334313D01*
X97021276Y-80201353D01*
X96909683Y-80032284D01*
X96825328Y-79903306D01*
X96705323Y-79717533D01*
X96599507Y-79549773D01*
X96510670Y-79404684D01*
X96441605Y-79286926D01*
X96395103Y-79201160D01*
X96373954Y-79152044D01*
X96373208Y-79148565D01*
X96372271Y-79113163D01*
X96374095Y-79103892D01*
X96695063Y-79103892D01*
X96707876Y-79128590D01*
X96743720Y-79186904D01*
X96797279Y-79270419D01*
X96863235Y-79370718D01*
X96871232Y-79382734D01*
X96937597Y-79480123D01*
X96992666Y-79556728D01*
X97031277Y-79605679D01*
X97048265Y-79620109D01*
X97048632Y-79618718D01*
X97043646Y-79583839D01*
X97030118Y-79510096D01*
X97010250Y-79408171D01*
X96986239Y-79288747D01*
X96960287Y-79162507D01*
X96934592Y-79040135D01*
X96911355Y-78932313D01*
X96892775Y-78849724D01*
X96881053Y-78803052D01*
X96879984Y-78799700D01*
X96862779Y-78798847D01*
X96829259Y-78841947D01*
X96781868Y-78925853D01*
X96781560Y-78926447D01*
X96739919Y-79008191D01*
X96709178Y-79071045D01*
X96695310Y-79102754D01*
X96695063Y-79103892D01*
X96374095Y-79103892D01*
X96381415Y-79066686D01*
X96403154Y-79002886D01*
X96440004Y-78915518D01*
X96494480Y-78798333D01*
X96569096Y-78645084D01*
X96605508Y-78571557D01*
X96678901Y-78425607D01*
X96746239Y-78295018D01*
X96803835Y-78186671D01*
X96848007Y-78107447D01*
X96862779Y-78083855D01*
X96875068Y-78064228D01*
X96880183Y-78058621D01*
G37*
G36*
X93747955Y-82652889D02*
G01*
X93755316Y-82891900D01*
X93659232Y-82973619D01*
X93482839Y-83103871D01*
X93268216Y-83230107D01*
X93027793Y-83346281D01*
X92773997Y-83446345D01*
X92537282Y-83519534D01*
X92381081Y-83550613D01*
X92190440Y-83572516D01*
X91980870Y-83584748D01*
X91767881Y-83586809D01*
X91566983Y-83578204D01*
X91393689Y-83558433D01*
X91382715Y-83556569D01*
X91031869Y-83472302D01*
X90690472Y-83345417D01*
X90370159Y-83180842D01*
X90147330Y-83033112D01*
X89976222Y-82906546D01*
X89976222Y-82665598D01*
X89977411Y-82562085D01*
X89980605Y-82480844D01*
X89985248Y-82432882D01*
X89988399Y-82424650D01*
X90011081Y-82440632D01*
X90062470Y-82483709D01*
X90134026Y-82546584D01*
X90188569Y-82595758D01*
X90446002Y-82799013D01*
X90732471Y-82969638D01*
X91037138Y-83102354D01*
X91349166Y-83191885D01*
X91451943Y-83211060D01*
X91647101Y-83231063D01*
X91867702Y-83234969D01*
X92096185Y-83223780D01*
X92314990Y-83198502D01*
X92506559Y-83160139D01*
X92549176Y-83148313D01*
X92856940Y-83037808D01*
X93135115Y-82896039D01*
X93396509Y-82715755D01*
X93564451Y-82573606D01*
X93740593Y-82413877D01*
X93747955Y-82652889D01*
G37*
G36*
X94802710Y-94795149D02*
G01*
X94955366Y-94796367D01*
X95067004Y-94800621D01*
X95147261Y-94808870D01*
X95205773Y-94822071D01*
X95248877Y-94839510D01*
X95288541Y-94861732D01*
X95320792Y-94888216D01*
X95346333Y-94924040D01*
X95365865Y-94974282D01*
X95380093Y-95044020D01*
X95389720Y-95138331D01*
X95395447Y-95262292D01*
X95397978Y-95420983D01*
X95398016Y-95619480D01*
X95396263Y-95862861D01*
X95395907Y-95901678D01*
X95388298Y-96717647D01*
X95326576Y-96783310D01*
X95270729Y-96829869D01*
X95199026Y-96863086D01*
X95103802Y-96884360D01*
X94977391Y-96895090D01*
X94812129Y-96896673D01*
X94716542Y-96894588D01*
X94550881Y-96887400D01*
X94428149Y-96874997D01*
X94340639Y-96854658D01*
X94280644Y-96823659D01*
X94240455Y-96779279D01*
X94212364Y-96718796D01*
X94211452Y-96716201D01*
X94203109Y-96665455D01*
X94196181Y-96566891D01*
X94190757Y-96423369D01*
X94186923Y-96237753D01*
X94184766Y-96012904D01*
X94184301Y-95824311D01*
X94184506Y-95598170D01*
X94184982Y-95485042D01*
X94517373Y-95485042D01*
X94518012Y-95649273D01*
X94519682Y-95843635D01*
X94526422Y-96531537D01*
X95058757Y-96531537D01*
X95065517Y-95848863D01*
X95067114Y-95633931D01*
X95067047Y-95464960D01*
X95065148Y-95337233D01*
X95061245Y-95246035D01*
X95055170Y-95186649D01*
X95046751Y-95154360D01*
X95040168Y-95145808D01*
X94999936Y-95136151D01*
X94924269Y-95129451D01*
X94828351Y-95125884D01*
X94727370Y-95125625D01*
X94636512Y-95128848D01*
X94570963Y-95135730D01*
X94553442Y-95140191D01*
X94541335Y-95149446D01*
X94532025Y-95170513D01*
X94525242Y-95209000D01*
X94520719Y-95270512D01*
X94518186Y-95360658D01*
X94517373Y-95485042D01*
X94184982Y-95485042D01*
X94185268Y-95417047D01*
X94186893Y-95275261D01*
X94189690Y-95167131D01*
X94193966Y-95086977D01*
X94200028Y-95029118D01*
X94208184Y-94987874D01*
X94218740Y-94957563D01*
X94232005Y-94932506D01*
X94232613Y-94931505D01*
X94270395Y-94882386D01*
X94320256Y-94846254D01*
X94389816Y-94821288D01*
X94486697Y-94805664D01*
X94618520Y-94797559D01*
X94727370Y-94796057D01*
X94792904Y-94795152D01*
X94802710Y-94795149D01*
G37*
G36*
X95400973Y-101766167D02*
G01*
X95071432Y-101766167D01*
X95071432Y-100013539D01*
X95014396Y-100021640D01*
X94957360Y-100029740D01*
X94950690Y-100897954D01*
X94944020Y-101766167D01*
X94641159Y-101766167D01*
X94634489Y-100897954D01*
X94627819Y-100029740D01*
X94570783Y-100021640D01*
X94513747Y-100013539D01*
X94513747Y-101766167D01*
X94184206Y-101766167D01*
X94184206Y-99687525D01*
X95400973Y-99687525D01*
X95400973Y-101766167D01*
G37*
G36*
X94513747Y-98113156D02*
G01*
X94513963Y-98346794D01*
X94514763Y-98534715D01*
X94516375Y-98681898D01*
X94519028Y-98793324D01*
X94522950Y-98873973D01*
X94528370Y-98928824D01*
X94535515Y-98962857D01*
X94544614Y-98981053D01*
X94553844Y-98987707D01*
X94592013Y-98992969D01*
X94671209Y-98997457D01*
X94781763Y-99000835D01*
X94914005Y-99002767D01*
X94997457Y-99003093D01*
X95400973Y-99003093D01*
X95400973Y-99335480D01*
X94869158Y-99327720D01*
X94337344Y-99319960D01*
X94267112Y-99249698D01*
X94196881Y-99179437D01*
X94189672Y-98216714D01*
X94182463Y-97253992D01*
X94513747Y-97253992D01*
X94513747Y-98113156D01*
G37*
G36*
X93981412Y-73887692D02*
G01*
X93873677Y-73873282D01*
X93813401Y-73866905D01*
X93713102Y-73858166D01*
X93583357Y-73847904D01*
X93434739Y-73836964D01*
X93303318Y-73827882D01*
X92840693Y-73796893D01*
X92840693Y-73661969D01*
X92843547Y-73581813D01*
X92854623Y-73540650D01*
X92877688Y-73526971D01*
X92885055Y-73526502D01*
X92923801Y-73524357D01*
X93004053Y-73518737D01*
X93116786Y-73510314D01*
X93252977Y-73499762D01*
X93385703Y-73489196D01*
X93537399Y-73477240D01*
X93675801Y-73466827D01*
X93791248Y-73458644D01*
X93874077Y-73453381D01*
X93911701Y-73451716D01*
X93981412Y-73450998D01*
X93981412Y-73887692D01*
G37*
G36*
X91965499Y-79438910D02*
G01*
X92175832Y-79450427D01*
X92368350Y-79471653D01*
X92527542Y-79502089D01*
X92537282Y-79504617D01*
X92792367Y-79584313D01*
X93045617Y-79685733D01*
X93284604Y-79802829D01*
X93496901Y-79929554D01*
X93659232Y-80050532D01*
X93755316Y-80132251D01*
X93747955Y-80371262D01*
X93740593Y-80610274D01*
X93564451Y-80450545D01*
X93307103Y-80241162D01*
X93041348Y-80075034D01*
X92754378Y-79944911D01*
X92549176Y-79875839D01*
X92367423Y-79834281D01*
X92153929Y-79805551D01*
X91926254Y-79790653D01*
X91701957Y-79790591D01*
X91498599Y-79806370D01*
X91451943Y-79813091D01*
X91139863Y-79887207D01*
X90831568Y-80006250D01*
X90537894Y-80164944D01*
X90269677Y-80358010D01*
X90188569Y-80428393D01*
X90108330Y-80500390D01*
X90042580Y-80557444D01*
X89999859Y-80592255D01*
X89988399Y-80599501D01*
X89983168Y-80575987D01*
X89979062Y-80512786D01*
X89976638Y-80420902D01*
X89976222Y-80358553D01*
X89976222Y-80117605D01*
X90147330Y-79991039D01*
X90443757Y-79801043D01*
X90770136Y-79644980D01*
X91114832Y-79527776D01*
X91382715Y-79467582D01*
X91553430Y-79446990D01*
X91752861Y-79437598D01*
X91965499Y-79438910D01*
G37*
G36*
X93981412Y-82100866D02*
G01*
X93873677Y-82086455D01*
X93813401Y-82080079D01*
X93713102Y-82071339D01*
X93583357Y-82061078D01*
X93434739Y-82050137D01*
X93303318Y-82041056D01*
X92840693Y-82010066D01*
X92840693Y-81875143D01*
X92843547Y-81794987D01*
X92854623Y-81753824D01*
X92877688Y-81740144D01*
X92885055Y-81739676D01*
X92923801Y-81737531D01*
X93004053Y-81731911D01*
X93116786Y-81723488D01*
X93252977Y-81712936D01*
X93385703Y-81702370D01*
X93537399Y-81690414D01*
X93675801Y-81680000D01*
X93791248Y-81671818D01*
X93874077Y-81666554D01*
X93911701Y-81664889D01*
X93981412Y-81664171D01*
X93981412Y-82100866D01*
G37*
G36*
X95400973Y-106658583D02*
G01*
X95071432Y-106658583D01*
X95071432Y-105796706D01*
X94184206Y-105796706D01*
X94184206Y-105441816D01*
X95071432Y-105441816D01*
X95071432Y-104579940D01*
X95400973Y-104579940D01*
X95400973Y-106658583D01*
G37*
G36*
X97379150Y-74959281D02*
G01*
X97423104Y-74959373D01*
X97459510Y-74962272D01*
X97488141Y-74971913D01*
X97508766Y-74992229D01*
X97521159Y-75027155D01*
X97525089Y-75080624D01*
X97520328Y-75156572D01*
X97506648Y-75258932D01*
X97483820Y-75391638D01*
X97451616Y-75558625D01*
X97409807Y-75763827D01*
X97358163Y-76011179D01*
X97302694Y-76274955D01*
X97244052Y-76550919D01*
X97190465Y-76797331D01*
X97142664Y-77011069D01*
X97101382Y-77189011D01*
X97067349Y-77328038D01*
X97041299Y-77425026D01*
X97023962Y-77476856D01*
X97019038Y-77484724D01*
X96946522Y-77505233D01*
X96879248Y-77476728D01*
X96864797Y-77462525D01*
X96838470Y-77422946D01*
X96796179Y-77347778D01*
X96741996Y-77245352D01*
X96679996Y-77123997D01*
X96614254Y-76992043D01*
X96548844Y-76857821D01*
X96487840Y-76729660D01*
X96435316Y-76615890D01*
X96395346Y-76524843D01*
X96372005Y-76464847D01*
X96367698Y-76446176D01*
X96368265Y-76441829D01*
X96695017Y-76441829D01*
X96706401Y-76469177D01*
X96735263Y-76529103D01*
X96775627Y-76609240D01*
X96780385Y-76618509D01*
X96825125Y-76701301D01*
X96854114Y-76742682D01*
X96871788Y-76747745D01*
X96879752Y-76732581D01*
X96895043Y-76674509D01*
X96915673Y-76584813D01*
X96939637Y-76473587D01*
X96964933Y-76350927D01*
X96989558Y-76226927D01*
X97011508Y-76111683D01*
X97028780Y-76015288D01*
X97039371Y-75947839D01*
X97041279Y-75919430D01*
X97041145Y-75919247D01*
X97024712Y-75935053D01*
X96987840Y-75984112D01*
X96936972Y-76056697D01*
X96878553Y-76143076D01*
X96819026Y-76233520D01*
X96764837Y-76318301D01*
X96722429Y-76387687D01*
X96698248Y-76431951D01*
X96695017Y-76441829D01*
X96368265Y-76441829D01*
X96375677Y-76385004D01*
X96381343Y-76353204D01*
X96397317Y-76320003D01*
X96437759Y-76250029D01*
X96499230Y-76148834D01*
X96578288Y-76021968D01*
X96671493Y-75874985D01*
X96775403Y-75713436D01*
X96829114Y-75630749D01*
X97041145Y-75305385D01*
X97266692Y-74959281D01*
X97379150Y-74959281D01*
G37*
G36*
X96952878Y-70980007D02*
G01*
X97033934Y-70982927D01*
X97092757Y-70989868D01*
X97112201Y-70996491D01*
X97113104Y-71024316D01*
X97109107Y-71097224D01*
X97100669Y-71209884D01*
X97088249Y-71356965D01*
X97072306Y-71533135D01*
X97053301Y-71733064D01*
X97031691Y-71951419D01*
X97020255Y-72063881D01*
X96912390Y-73115353D01*
X96809426Y-73104157D01*
X96702432Y-73090616D01*
X96637060Y-73076241D01*
X96604294Y-73057739D01*
X96595116Y-73031816D01*
X96595285Y-73025914D01*
X96598512Y-72991716D01*
X96606489Y-72912773D01*
X96618627Y-72794758D01*
X96634337Y-72643343D01*
X96653029Y-72464200D01*
X96674115Y-72263002D01*
X96697006Y-72045421D01*
X96703827Y-71980738D01*
X96809474Y-70979441D01*
X96952878Y-70980007D01*
G37*
G36*
X96909954Y-82430940D02*
G01*
X96914199Y-82457497D01*
X96922611Y-82527939D01*
X96934550Y-82635869D01*
X96949378Y-82774887D01*
X96966454Y-82938594D01*
X96985140Y-83120592D01*
X97004798Y-83314481D01*
X97024788Y-83513863D01*
X97044471Y-83712339D01*
X97063209Y-83903510D01*
X97080361Y-84080977D01*
X97095290Y-84238342D01*
X97107357Y-84369205D01*
X97115921Y-84467167D01*
X97120345Y-84525831D01*
X97120579Y-84540177D01*
X97092833Y-84547018D01*
X97029891Y-84556984D01*
X96967204Y-84565203D01*
X96885273Y-84573695D01*
X96840361Y-84571467D01*
X96819315Y-84555081D01*
X96809607Y-84524015D01*
X96804177Y-84485744D01*
X96794433Y-84403177D01*
X96781038Y-84282470D01*
X96764654Y-84129782D01*
X96745942Y-83951270D01*
X96725565Y-83753091D01*
X96706585Y-83565369D01*
X96685122Y-83352469D01*
X96664675Y-83151656D01*
X96645928Y-82969487D01*
X96629563Y-82812520D01*
X96616264Y-82687313D01*
X96606713Y-82600423D01*
X96602050Y-82561586D01*
X96587789Y-82457703D01*
X96746362Y-82441129D01*
X96829255Y-82433471D01*
X96888469Y-82429907D01*
X96909954Y-82430940D01*
G37*
%TD*%
M02*
